<svg xmlns="http://www.w3.org/2000/svg" version="1.1" xmlns:xlink="http://www.w3.org/1999/xlink" xmlns:svgjs="http://svgjs.dev/svgjs" width="1000" height="1000"><g clip-path="url(#SvgjsClipPath1152)"><rect width="1000" height="1000" fill="#ffffff"></rect><g transform="matrix(12.162162162162161,0,0,12.162162162162161,50,159.45945945945948)"><svg xmlns="http://www.w3.org/2000/svg" version="1.1" xmlns:xlink="http://www.w3.org/1999/xlink" xmlns:svgjs="http://svgjs.dev/svgjs" width="74" height="56"><svg version="1.1" id="svg2" xml:space="preserve" width="74" height="56" viewBox="0 0 74 56.000001" sodipodi:docname="logo_lotus_notext.svg" inkscape:version="1.3 (0e150ed6c4, 2023-07-21)" inkscape:export-filename="logo_lotus_V2.png" inkscape:export-xdpi="400" inkscape:export-ydpi="400" xmlns:inkscape="http://www.inkscape.org/namespaces/inkscape" xmlns:sodipodi="http://sodipodi.sourceforge.net/DTD/sodipodi-0.dtd" xmlns="http://www.w3.org/2000/svg" xmlns:svg="http://www.w3.org/2000/svg" xmlns:rdf="http://www.w3.org/1999/02/22-rdf-syntax-ns#" xmlns:cc="http://creativecommons.org/ns#" xmlns:dc="http://purl.org/dc/elements/1.1/"><sodipodi:namedview id="namedview1" pagecolor="#ffffff" bordercolor="#000000" borderopacity="0.25" inkscape:showpageshadow="2" inkscape:pageopacity="0.0" inkscape:pagecheckerboard="true" inkscape:deskcolor="#d1d1d1" inkscape:zoom="9.8136585" inkscape:cx="140.82414" inkscape:cy="40.708569" inkscape:window-width="3840" inkscape:window-height="2054" inkscape:window-x="2869" inkscape:window-y="-11" inkscape:window-maximized="1" inkscape:current-layer="g12"></sodipodi:namedview><metadata id="metadata8"><rdf:rdf><cc:work rdf:about=""><dc:format>image/svg+xml</dc:format><dc:type rdf:resource="http://purl.org/dc/dcmitype/StillImage"></dc:type></cc:work></rdf:rdf></metadata><defs id="defs6"><clipPath id="SvgjsClipPath1152"><rect width="1000" height="1000" x="0" y="0" rx="500" ry="500"></rect></clipPath></defs><g id="g10" transform="matrix(1.3333333,0,0,-1.3333333,0,87.677663)"><g id="g12"><rect style="display:none;fill:#ffd355;stroke:none;stroke-width:1.5;stroke-opacity:1" id="rect1" width="238.31639" height="90.354881" x="-20.96752" y="-93.750969" transform="scale(1,-1)"></rect><path style="fill:#e8d6e5;fill-opacity:1;stroke:none;stroke-width:2.72088;stroke-dasharray:none;stroke-opacity:1;paint-order:stroke fill markers" id="path2" transform="scale(1,-1)" sodipodi:type="arc" sodipodi:cx="27.474936" sodipodi:cy="-30.382849" sodipodi:rx="22.14769" sodipodi:ry="6.6246004" sodipodi:start="5.5740676" sodipodi:end="3.8297309" sodipodi:open="true" sodipodi:arc-type="arc" d="m 44.28363,-34.696553 a 22.14769,6.6246004 0 0 1 -1.439243,9.083552 22.14769,6.6246004 0 0 1 -30.40099,0.09539 22.14769,6.6246004 0 0 1 -2.075996,-9.072522"></path><path style="fill:#d0accc;fill-opacity:1;stroke:none;stroke-width:2.32238;stroke-dasharray:none;stroke-opacity:1;paint-order:stroke fill markers" id="path2-7" transform="scale(1,-1)" sodipodi:type="arc" sodipodi:cx="27.811272" sodipodi:cy="-30.933771" sodipodi:rx="18.903931" sodipodi:ry="5.6543584" sodipodi:start="5.5740676" sodipodi:end="3.8297309" sodipodi:open="true" sodipodi:arc-type="arc" d="m 42.158158,-34.615688 a 18.903931,5.6543584 0 0 1 -1.22845,7.753171 18.903931,5.6543584 0 0 1 -25.94845,0.08142 18.903931,5.6543584 0 0 1 -1.771945,-7.743756"></path><path style="fill:#b983b2;fill-opacity:1;stroke:none;stroke-width:1.89019;stroke-dasharray:none;stroke-opacity:1;paint-order:stroke fill markers" id="path2-7-0" transform="scale(1,-1)" sodipodi:type="arc" sodipodi:cx="27.474936" sodipodi:cy="-31.457247" sodipodi:rx="15.385935" sodipodi:ry="4.6020904" sodipodi:start="5.5740676" sodipodi:end="3.8297309" sodipodi:open="true" sodipodi:arc-type="arc" d="m 39.151886,-34.453964 a 15.385935,4.6020904 0 0 1 -0.999838,6.310317 15.385935,4.6020904 0 0 1 -21.119478,0.06627 15.385935,4.6020904 0 0 1 -1.442188,-6.302654"></path><path style="fill:#a15999;fill-opacity:1;stroke:none;stroke-width:1.39635;stroke-dasharray:none;stroke-opacity:1;paint-order:stroke fill markers" id="path2-7-0-1" sodipodi:type="arc" sodipodi:cx="27.474936" sodipodi:cy="-32.270805" sodipodi:rx="11.366142" sodipodi:ry="3.399729" sodipodi:start="5.5740676" sodipodi:end="3.8297309" sodipodi:open="true" sodipodi:arc-type="arc" d="m 36.101118,-34.484588 a 11.366142,3.399729 0 0 1 -0.738616,4.661657 11.366142,3.399729 0 0 1 -15.601717,0.04895 11.366142,3.399729 0 0 1 -1.065396,-4.655997" transform="scale(1,-1)"></path><path style="fill:#8a307f;fill-opacity:1;stroke:none;stroke-width:1.01233;stroke-dasharray:none;stroke-opacity:1;paint-order:stroke fill markers" id="path2-7-0-1-4" sodipodi:type="arc" sodipodi:cx="27.474936" sodipodi:cy="-32.661121" sodipodi:rx="8.2402678" sodipodi:ry="2.4647486" sodipodi:start="5.5740676" sodipodi:end="3.8297309" sodipodi:open="true" sodipodi:arc-type="arc" d="m 33.728777,-34.266078 a 8.2402678,2.4647486 0 0 1 -0.535484,3.379626 8.2402678,2.4647486 0 0 1 -11.310991,0.03549 8.2402678,2.4647486 0 0 1 -0.772394,-3.375523" transform="scale(1,-1)"></path><g id="g1" inkscape:label="lotus flower" transform="matrix(0.69931024,0,0,0.69931024,-8.6880086,16.656946)"><path id="path1-3-2" style="fill:#8a307f;stroke:#ffffff;stroke-width:3.75;stroke-dasharray:none;stroke-opacity:1;paint-order:stroke fill markers" d="m 15.651985,40.438107 c 0,0 5.827013,-9.271643 15.855161,-12.935835 10.028151,-3.664193 20.459985,-0.333381 20.459985,-0.333381 0,0 -5.827014,9.271644 -15.855163,12.935836 -10.028152,3.664194 -20.459983,0.33338 -20.459983,0.33338 z" sodipodi:nodetypes="cscsc"></path><path id="path1-3" style="fill:#8a307f;stroke:#ffffff;stroke-width:3.75;stroke-dasharray:none;stroke-opacity:1;paint-order:stroke fill markers" d="m 88.200515,40.438107 c 0,0 -5.827013,-9.271643 -15.855161,-12.935835 -10.028151,-3.664193 -20.459985,-0.333381 -20.459985,-0.333381 0,0 5.827014,9.271644 15.855163,12.935836 10.028152,3.664194 20.459983,0.33338 20.459983,0.33338 z" sodipodi:nodetypes="cscsc" inkscape:label="path1-3"></path><path id="path1-3-9" style="fill:#8a307f;stroke:#ffffff;stroke-width:3.75;stroke-dasharray:none;stroke-opacity:1;paint-order:stroke fill markers" d="m 78.604628,55.264643 c 0,0 -1.070861,-10.898197 -8.405497,-18.656623 -7.334638,-7.758428 -18.155576,-9.439129 -18.155576,-9.439129 0,0 1.070861,10.898198 8.405498,18.656625 7.334638,7.758429 18.155575,9.439127 18.155575,9.439127 z" sodipodi:nodetypes="cscsc" inkscape:label="path1-3"></path><path id="path1-3-9-0" style="fill:#8a307f;stroke:#ffffff;stroke-width:3.75;stroke-dasharray:none;stroke-opacity:1;paint-order:stroke fill markers" d="m 25.324297,55.264643 c 0,0 1.070861,-10.898197 8.405497,-18.656623 7.334638,-7.758428 18.155575,-9.439129 18.155575,-9.439129 0,0 -1.070861,10.898198 -8.405498,18.656625 -7.334638,7.758429 -18.155574,9.439127 -18.155574,9.439127 z" sodipodi:nodetypes="cscsc" inkscape:label="path1-3"></path><path id="path1-3-3" style="fill:#8a307f;stroke:#ffffff;stroke-width:3.75;stroke-dasharray:none;stroke-opacity:1;paint-order:stroke fill markers" d="m 52.193256,28.241296 c 0,0 -6.708693,8.655107 -6.708693,19.331721 0,10.676615 6.708693,19.331722 6.708693,19.331722 0,0 6.708694,-8.655107 6.708694,-19.331722 0,-10.676615 -6.708694,-19.331721 -6.708694,-19.331721 z" sodipodi:nodetypes="cscsc"></path></g></g></g></svg></svg></g></g></svg>