<?xml version="1.0" encoding="UTF-8" standalone="no"?>
<!-- Created with Inkscape (http://www.inkscape.org/) -->

<svg
   version="1.1"
   id="svg1"
   width="320.13901"
   height="54.66"
   viewBox="0 0 320.13901 54.66"
   sodipodi:docname="IDA_Wireless_Group.svg"
   inkscape:version="1.3 (0e150ed6c4, 2023-07-21)"
   xmlns:inkscape="http://www.inkscape.org/namespaces/inkscape"
   xmlns:sodipodi="http://sodipodi.sourceforge.net/DTD/sodipodi-0.dtd"
   xmlns="http://www.w3.org/2000/svg"
   xmlns:svg="http://www.w3.org/2000/svg">
  <defs
     id="defs1">
    <clipPath
       clipPathUnits="userSpaceOnUse"
       id="clipPath1">
      <path
         d="M 0,0 H 208.40851 V 65.758247 H 0 Z"
         id="path1" />
    </clipPath>
    <clipPath
       clipPathUnits="userSpaceOnUse"
       id="clipPath2">
      <path
         d="M 0,0 H 208.40851 V 65.758247 H 0 Z"
         id="path2" />
    </clipPath>
    <clipPath
       clipPathUnits="userSpaceOnUse"
       id="clipPath3">
      <path
         d="M 0,0 H 208.40851 V 65.758247 H 0 Z"
         id="path3" />
    </clipPath>
    <clipPath
       clipPathUnits="userSpaceOnUse"
       id="clipPath4">
      <path
         d="M 0,0 H 208.40851 V 65.758247 H 0 Z"
         id="path4" />
    </clipPath>
    <clipPath
       clipPathUnits="userSpaceOnUse"
       id="clipPath5">
      <path
         d="M 0,0 H 208.40851 V 65.758247 H 0 Z"
         id="path5" />
    </clipPath>
    <clipPath
       clipPathUnits="userSpaceOnUse"
       id="clipPath6">
      <path
         d="M 0,0 H 208.40851 V 65.758247 H 0 Z"
         id="path6" />
    </clipPath>
    <clipPath
       clipPathUnits="userSpaceOnUse"
       id="clipPath7">
      <path
         d="M 0,0 H 208.40851 V 65.758247 H 0 Z"
         id="path7" />
    </clipPath>
    <clipPath
       clipPathUnits="userSpaceOnUse"
       id="clipPath8">
      <path
         d="M 0,0 H 208.40851 V 65.758247 H 0 Z"
         id="path8" />
    </clipPath>
    <clipPath
       clipPathUnits="userSpaceOnUse"
       id="clipPath9">
      <path
         d="M 0,0 H 208.40851 V 65.758247 H 0 Z"
         id="path9" />
    </clipPath>
    <clipPath
       clipPathUnits="userSpaceOnUse"
       id="clipPath10">
      <path
         d="M 0,0 H 208.40851 V 65.758247 H 0 Z"
         id="path10" />
    </clipPath>
    <clipPath
       clipPathUnits="userSpaceOnUse"
       id="clipPath11">
      <path
         d="M 0,0 H 208.40851 V 65.758247 H 0 Z"
         id="path11" />
    </clipPath>
    <clipPath
       clipPathUnits="userSpaceOnUse"
       id="clipPath12">
      <path
         d="M 0,0 H 208.40851 V 65.758247 H 0 Z"
         id="path12" />
    </clipPath>
    <clipPath
       clipPathUnits="userSpaceOnUse"
       id="clipPath13">
      <path
         d="M 0,0 H 208.40851 V 65.758247 H 0 Z"
         id="path13" />
    </clipPath>
    <clipPath
       clipPathUnits="userSpaceOnUse"
       id="clipPath14">
      <path
         d="M 0,0 H 208.40851 V 65.758247 H 0 Z"
         id="path14" />
    </clipPath>
    <clipPath
       clipPathUnits="userSpaceOnUse"
       id="clipPath15">
      <path
         d="M 0,0 H 208.40851 V 65.758247 H 0 Z"
         id="path15" />
    </clipPath>
    <clipPath
       clipPathUnits="userSpaceOnUse"
       id="clipPath16">
      <path
         d="M 0,0 H 208.40851 V 65.758247 H 0 Z"
         id="path16" />
    </clipPath>
    <clipPath
       clipPathUnits="userSpaceOnUse"
       id="clipPath17">
      <path
         d="M 0,0 H 208.40851 V 65.758247 H 0 Z"
         id="path17" />
    </clipPath>
    <clipPath
       clipPathUnits="userSpaceOnUse"
       id="clipPath18">
      <path
         d="M 0,0 H 208.40851 V 65.758247 H 0 Z"
         id="path18" />
    </clipPath>
    <clipPath
       clipPathUnits="userSpaceOnUse"
       id="clipPath19">
      <path
         d="M 0,0 H 208.40851 V 65.758247 H 0 Z"
         id="path19" />
    </clipPath>
    <clipPath
       clipPathUnits="userSpaceOnUse"
       id="clipPath20">
      <path
         d="M 0,0 H 208.40851 V 65.758247 H 0 Z"
         id="path20" />
    </clipPath>
    <clipPath
       clipPathUnits="userSpaceOnUse"
       id="clipPath21">
      <path
         d="M 0,0 H 208.40851 V 65.758247 H 0 Z"
         id="path21" />
    </clipPath>
    <clipPath
       clipPathUnits="userSpaceOnUse"
       id="clipPath22">
      <path
         d="M 0,0 H 208.40851 V 65.758247 H 0 Z"
         id="path22" />
    </clipPath>
    <clipPath
       clipPathUnits="userSpaceOnUse"
       id="clipPath23">
      <path
         d="M 0,0 H 208.40851 V 65.758247 H 0 Z"
         id="path23" />
    </clipPath>
    <clipPath
       clipPathUnits="userSpaceOnUse"
       id="clipPath24">
      <path
         d="M 0,0 H 208.40851 V 65.758247 H 0 Z"
         id="path24" />
    </clipPath>
    <clipPath
       clipPathUnits="userSpaceOnUse"
       id="clipPath25">
      <path
         d="M 0,0 H 208.40851 V 65.758247 H 0 Z"
         id="path25" />
    </clipPath>
    <clipPath
       clipPathUnits="userSpaceOnUse"
       id="clipPath26">
      <path
         d="M 0,0 H 208.40851 V 65.758247 H 0 Z"
         id="path26" />
    </clipPath>
    <clipPath
       clipPathUnits="userSpaceOnUse"
       id="clipPath27">
      <path
         d="M 0,0 H 208.40851 V 65.758247 H 0 Z"
         id="path27" />
    </clipPath>
    <clipPath
       clipPathUnits="userSpaceOnUse"
       id="clipPath28">
      <path
         d="M 0,0 H 208.40851 V 65.758247 H 0 Z"
         id="path28" />
    </clipPath>
    <clipPath
       clipPathUnits="userSpaceOnUse"
       id="clipPath29">
      <path
         d="M 0,0 H 208.40851 V 65.758247 H 0 Z"
         id="path29" />
    </clipPath>
    <clipPath
       clipPathUnits="userSpaceOnUse"
       id="clipPath30">
      <path
         d="M 0,0 H 208.40851 V 65.758247 H 0 Z"
         id="path30" />
    </clipPath>
    <clipPath
       clipPathUnits="userSpaceOnUse"
       id="clipPath31">
      <path
         d="M 0,0 H 208.40851 V 65.758247 H 0 Z"
         id="path31" />
    </clipPath>
    <clipPath
       clipPathUnits="userSpaceOnUse"
       id="clipPath32">
      <path
         d="M 0,0 H 208.40851 V 65.758247 H 0 Z"
         id="path32" />
    </clipPath>
    <clipPath
       clipPathUnits="userSpaceOnUse"
       id="clipPath33">
      <path
         d="M 0,0 H 208.40851 V 65.758247 H 0 Z"
         id="path33" />
    </clipPath>
    <clipPath
       clipPathUnits="userSpaceOnUse"
       id="clipPath34">
      <path
         d="M 0,0 H 208.40851 V 65.758247 H 0 Z"
         id="path34" />
    </clipPath>
    <clipPath
       clipPathUnits="userSpaceOnUse"
       id="clipPath35">
      <path
         d="M 0,0 H 208.40851 V 65.758247 H 0 Z"
         id="path35" />
    </clipPath>
    <clipPath
       clipPathUnits="userSpaceOnUse"
       id="clipPath36">
      <path
         d="M 0,0 H 208.40851 V 65.758247 H 0 Z"
         id="path36" />
    </clipPath>
    <clipPath
       clipPathUnits="userSpaceOnUse"
       id="clipPath37">
      <path
         d="M 0,0 H 208.40851 V 65.758247 H 0 Z"
         id="path37" />
    </clipPath>
    <clipPath
       clipPathUnits="userSpaceOnUse"
       id="clipPath38">
      <path
         d="M 0,0 H 208.40851 V 65.758247 H 0 Z"
         id="path38" />
    </clipPath>
    <clipPath
       clipPathUnits="userSpaceOnUse"
       id="clipPath39">
      <path
         d="M 0,0 H 208.40851 V 65.758247 H 0 Z"
         id="path39" />
    </clipPath>
    <clipPath
       clipPathUnits="userSpaceOnUse"
       id="clipPath40">
      <path
         d="M 0,0 H 208.40851 V 65.758247 H 0 Z"
         id="path40" />
    </clipPath>
    <clipPath
       clipPathUnits="userSpaceOnUse"
       id="clipPath41">
      <path
         d="M 0,0 H 208.40851 V 65.758247 H 0 Z"
         id="path41" />
    </clipPath>
    <clipPath
       clipPathUnits="userSpaceOnUse"
       id="clipPath42">
      <path
         d="M 0,0 H 208.40851 V 65.758247 H 0 Z"
         id="path42" />
    </clipPath>
    <clipPath
       clipPathUnits="userSpaceOnUse"
       id="clipPath43">
      <path
         d="M 0,0 H 208.40851 V 65.758247 H 0 Z"
         id="path43" />
    </clipPath>
  </defs>
  <sodipodi:namedview
     id="namedview1"
     pagecolor="#ffffff"
     bordercolor="#000000"
     borderopacity="0.25"
     inkscape:showpageshadow="2"
     inkscape:pageopacity="0.0"
     inkscape:pagecheckerboard="0"
     inkscape:deskcolor="#d1d1d1"
     inkscape:zoom="4.4811091"
     inkscape:cx="202.07051"
     inkscape:cy="19.303257"
     inkscape:window-width="3840"
     inkscape:window-height="2054"
     inkscape:window-x="2869"
     inkscape:window-y="-11"
     inkscape:window-maximized="1"
     inkscape:current-layer="g94"
     inkscape:lockguides="true" />
  <g
     id="g1"
     inkscape:groupmode="layer"
     inkscape:label="1">
    <g
       id="g94">
      <path
         d="M 30.719,65.497 20.766,42.047 13.414,24.731 H 7.477 0 l 13.047,17.316 z"
         style="fill:#000000;fill-opacity:1;fill-rule:nonzero;stroke:none"
         transform="matrix(1.3333333,0,0,-1.3333333,0,87.677333)"
         clip-path="url(#clipPath1)"
         id="path48" />
      <path
         d="M 1.93,33.004 1.078,30.981 H 1.23 l 1.524,2.023 z"
         style="fill:#000000;fill-opacity:1;fill-rule:nonzero;stroke:none"
         transform="matrix(1.3333333,0,0,-1.3333333,0,87.677333)"
         clip-path="url(#clipPath2)"
         id="path49" />
      <path
         d="M 3.23,36.055 2.48,34.254 h 1.223 l 1.352,1.801 z"
         style="fill:#000000;fill-opacity:1;fill-rule:nonzero;stroke:none"
         transform="matrix(1.3333333,0,0,-1.3333333,0,87.677333)"
         clip-path="url(#clipPath3)"
         id="path50" />
      <path
         d="M 4.504,39.079 3.777,37.305 h 2.227 l 1.324,1.774 z"
         style="fill:#000000;fill-opacity:1;fill-rule:nonzero;stroke:none"
         transform="matrix(1.3333333,0,0,-1.3333333,0,87.677333)"
         clip-path="url(#clipPath4)"
         id="path51" />
      <path
         d="M 5.773,42.047 H 9.57 L 8.277,40.332 h -3.23 z"
         style="fill:#000000;fill-opacity:1;fill-rule:nonzero;stroke:none"
         transform="matrix(1.3333333,0,0,-1.3333333,0,87.677333)"
         clip-path="url(#clipPath5)"
         id="path52" />
      <path
         d="m 7.031,45.012 h 4.774 L 10.629,43.45 H 6.371 Z"
         style="fill:#000000;fill-opacity:1;fill-rule:nonzero;stroke:none"
         transform="matrix(1.3333333,0,0,-1.3333333,0,87.677333)"
         clip-path="url(#clipPath6)"
         id="path53" />
      <path
         d="m 8.289,47.977 h 5.75 L 12.98,46.571 H 7.695 Z"
         style="fill:#000000;fill-opacity:1;fill-rule:nonzero;stroke:none"
         transform="matrix(1.3333333,0,0,-1.3333333,0,87.677333)"
         clip-path="url(#clipPath7)"
         id="path54" />
      <path
         d="m 9.547,50.938 h 6.726 L 15.332,49.692 H 9.02 Z"
         style="fill:#000000;fill-opacity:1;fill-rule:nonzero;stroke:none"
         transform="matrix(1.3333333,0,0,-1.3333333,0,87.677333)"
         clip-path="url(#clipPath8)"
         id="path55" />
      <path
         d="m 10.805,53.903 h 7.699 l -0.82,-1.09 h -7.34 z"
         style="fill:#000000;fill-opacity:1;fill-rule:nonzero;stroke:none"
         transform="matrix(1.3333333,0,0,-1.3333333,0,87.677333)"
         clip-path="url(#clipPath9)"
         id="path56" />
      <path
         d="m 12.062,56.868 h 8.676 L 20.035,55.93 h -8.367 z"
         style="fill:#000000;fill-opacity:1;fill-rule:nonzero;stroke:none"
         transform="matrix(1.3333333,0,0,-1.3333333,0,87.677333)"
         clip-path="url(#clipPath10)"
         id="path57" />
      <path
         d="m 13.32,59.829 h 9.653 l -0.586,-0.778 h -9.395 z"
         style="fill:#000000;fill-opacity:1;fill-rule:nonzero;stroke:none"
         transform="matrix(1.3333333,0,0,-1.3333333,0,87.677333)"
         clip-path="url(#clipPath11)"
         id="path58" />
      <path
         d="M 14.578,62.805 14.527,62.68 14.305,62.157 14.254,62.032 h 10.375 l 0.476,0.648 0.098,0.125 z"
         style="fill:#000000;fill-opacity:1;fill-rule:nonzero;stroke:none"
         transform="matrix(1.3333333,0,0,-1.3333333,0,87.677333)"
         clip-path="url(#clipPath12)"
         id="path59" />
      <path
         d="M 15.828,65.754 15.754,65.555 15.629,65.282 15.555,65.079 H 26.93 l 0.347,0.476 0.153,0.199 z"
         style="fill:#000000;fill-opacity:1;fill-rule:nonzero;stroke:none"
         transform="matrix(1.3333333,0,0,-1.3333333,0,87.677333)"
         clip-path="url(#clipPath13)"
         id="path60" />
      <path
         d="m 22.305,26.879 -0.903,-2.148 h 7.153 l 1.597,2.148 z"
         style="fill:#000000;fill-opacity:1;fill-rule:nonzero;stroke:none"
         transform="matrix(1.3333333,0,0,-1.3333333,0,87.677333)"
         clip-path="url(#clipPath14)"
         id="path61" />
      <path
         d="m 23.605,29.93 -0.75,-1.801 h 8.274 l 1.351,1.801 z"
         style="fill:#000000;fill-opacity:1;fill-rule:nonzero;stroke:none"
         transform="matrix(1.3333333,0,0,-1.3333333,0,87.677333)"
         clip-path="url(#clipPath15)"
         id="path62" />
      <path
         d="m 24.902,33.004 -0.75,-1.824 h 9.25 l 1.375,1.824 z"
         style="fill:#000000;fill-opacity:1;fill-rule:nonzero;stroke:none"
         transform="matrix(1.3333333,0,0,-1.3333333,0,87.677333)"
         clip-path="url(#clipPath16)"
         id="path63" />
      <path
         d="m 26.203,36.055 -0.75,-1.801 H 35.73 l 1.348,1.801 z"
         style="fill:#000000;fill-opacity:1;fill-rule:nonzero;stroke:none"
         transform="matrix(1.3333333,0,0,-1.3333333,0,87.677333)"
         clip-path="url(#clipPath17)"
         id="path64" />
      <path
         d="m 27.504,39.079 -0.75,-1.774 h 11.273 l 1.328,1.774 z"
         style="fill:#000000;fill-opacity:1;fill-rule:nonzero;stroke:none"
         transform="matrix(1.3333333,0,0,-1.3333333,0,87.677333)"
         clip-path="url(#clipPath18)"
         id="path65" />
      <path
         d="M 28.75,42.047 H 41.594 L 40.301,40.332 H 28.023 Z"
         style="fill:#000000;fill-opacity:1;fill-rule:nonzero;stroke:none"
         transform="matrix(1.3333333,0,0,-1.3333333,0,87.677333)"
         clip-path="url(#clipPath19)"
         id="path66" />
      <path
         d="M 30.012,45.012 H 43.395 L 42.652,43.45 H 29.348 Z"
         style="fill:#000000;fill-opacity:1;fill-rule:nonzero;stroke:none"
         transform="matrix(1.3333333,0,0,-1.3333333,0,87.677333)"
         clip-path="url(#clipPath20)"
         id="path67" />
      <path
         d="M 31.27,47.977 H 44.652 L 44.055,46.571 H 30.672 Z"
         style="fill:#000000;fill-opacity:1;fill-rule:nonzero;stroke:none"
         transform="matrix(1.3333333,0,0,-1.3333333,0,87.677333)"
         clip-path="url(#clipPath21)"
         id="path68" />
      <path
         d="M 32.527,50.938 H 45.91 L 45.379,49.692 H 31.996 Z"
         style="fill:#000000;fill-opacity:1;fill-rule:nonzero;stroke:none"
         transform="matrix(1.3333333,0,0,-1.3333333,0,87.677333)"
         clip-path="url(#clipPath22)"
         id="path69" />
      <path
         d="m 33.785,53.903 h 13.383 l -0.465,-1.09 H 33.32 Z"
         style="fill:#000000;fill-opacity:1;fill-rule:nonzero;stroke:none"
         transform="matrix(1.3333333,0,0,-1.3333333,0,87.677333)"
         clip-path="url(#clipPath23)"
         id="path70" />
      <path
         d="M 35.043,56.868 H 52.762 L 52.055,55.93 h -17.41 z"
         style="fill:#000000;fill-opacity:1;fill-rule:nonzero;stroke:none"
         transform="matrix(1.3333333,0,0,-1.3333333,0,87.677333)"
         clip-path="url(#clipPath24)"
         id="path71" />
      <path
         d="m 36.301,59.829 h 18.695 l -0.59,-0.778 H 35.969 Z"
         style="fill:#000000;fill-opacity:1;fill-rule:nonzero;stroke:none"
         transform="matrix(1.3333333,0,0,-1.3333333,0,87.677333)"
         clip-path="url(#clipPath25)"
         id="path72" />
      <path
         d="M 37.555,62.805 37.504,62.68 37.305,62.18 37.254,62.055 H 56.68 l 0.449,0.625 0.101,0.125 z"
         style="fill:#000000;fill-opacity:1;fill-rule:nonzero;stroke:none"
         transform="matrix(1.3333333,0,0,-1.3333333,0,87.677333)"
         clip-path="url(#clipPath26)"
         id="path73" />
      <path
         d="m 38.828,65.754 -0.074,-0.199 -0.125,-0.273 -0.102,-0.203 h 20.426 l 0.352,0.476 0.148,0.199 z"
         style="fill:#000000;fill-opacity:1;fill-rule:nonzero;stroke:none"
         transform="matrix(1.3333333,0,0,-1.3333333,0,87.677333)"
         clip-path="url(#clipPath27)"
         id="path74" />
      <path
         d="m 64.48,26.879 -1.625,-2.148 h 13.422 l 1.625,2.148 z"
         style="fill:#000000;fill-opacity:1;fill-rule:nonzero;stroke:none"
         transform="matrix(1.3333333,0,0,-1.3333333,0,87.677333)"
         clip-path="url(#clipPath28)"
         id="path75" />
      <path
         d="M 66.777,29.93 65.43,28.129 h 13.425 l 1.348,1.801 z"
         style="fill:#000000;fill-opacity:1;fill-rule:nonzero;stroke:none"
         transform="matrix(1.3333333,0,0,-1.3333333,0,87.677333)"
         clip-path="url(#clipPath29)"
         id="path76" />
      <path
         d="M 69.105,33.004 67.73,31.18 h 13.399 l 1.375,1.824 z"
         style="fill:#000000;fill-opacity:1;fill-rule:nonzero;stroke:none"
         transform="matrix(1.3333333,0,0,-1.3333333,0,87.677333)"
         clip-path="url(#clipPath30)"
         id="path77" />
      <path
         d="m 71.402,36.055 -1.347,-1.801 h 13.398 l 1.352,1.801 z"
         style="fill:#000000;fill-opacity:1;fill-rule:nonzero;stroke:none"
         transform="matrix(1.3333333,0,0,-1.3333333,0,87.677333)"
         clip-path="url(#clipPath31)"
         id="path78" />
      <path
         d="m 73.68,39.079 -1.325,-1.774 h 13.399 l 1.351,1.774 z"
         style="fill:#000000;fill-opacity:1;fill-rule:nonzero;stroke:none"
         transform="matrix(1.3333333,0,0,-1.3333333,0,87.677333)"
         clip-path="url(#clipPath32)"
         id="path79" />
      <path
         d="M 75.914,42.047 H 89.328 L 88.035,40.332 H 74.621 Z"
         style="fill:#000000;fill-opacity:1;fill-rule:nonzero;stroke:none"
         transform="matrix(1.3333333,0,0,-1.3333333,0,87.677333)"
         clip-path="url(#clipPath33)"
         id="path80" />
      <path
         d="M 78.145,45.012 H 91.562 L 90.387,43.45 H 76.969 Z"
         style="fill:#000000;fill-opacity:1;fill-rule:nonzero;stroke:none"
         transform="matrix(1.3333333,0,0,-1.3333333,0,87.677333)"
         clip-path="url(#clipPath34)"
         id="path81" />
      <path
         d="M 80.379,47.977 H 93.793 L 92.738,46.571 H 79.32 Z"
         style="fill:#000000;fill-opacity:1;fill-rule:nonzero;stroke:none"
         transform="matrix(1.3333333,0,0,-1.3333333,0,87.677333)"
         clip-path="url(#clipPath35)"
         id="path82" />
      <path
         d="M 82.613,50.938 H 96.027 L 95.086,49.692 H 81.672 Z"
         style="fill:#000000;fill-opacity:1;fill-rule:nonzero;stroke:none"
         transform="matrix(1.3333333,0,0,-1.3333333,0,87.677333)"
         clip-path="url(#clipPath36)"
         id="path83" />
      <path
         d="m 84.848,53.903 h 13.414 l -0.824,-1.09 H 84.023 Z"
         style="fill:#000000;fill-opacity:1;fill-rule:nonzero;stroke:none"
         transform="matrix(1.3333333,0,0,-1.3333333,0,87.677333)"
         clip-path="url(#clipPath37)"
         id="path84" />
      <path
         d="m 87.078,56.868 h 13.418 L 99.789,55.93 H 86.375 Z"
         style="fill:#000000;fill-opacity:1;fill-rule:nonzero;stroke:none"
         transform="matrix(1.3333333,0,0,-1.3333333,0,87.677333)"
         clip-path="url(#clipPath38)"
         id="path85" />
      <path
         d="m 89.312,59.829 h 13.415 l -0.586,-0.778 H 88.727 Z"
         style="fill:#000000;fill-opacity:1;fill-rule:nonzero;stroke:none"
         transform="matrix(1.3333333,0,0,-1.3333333,0,87.677333)"
         clip-path="url(#clipPath39)"
         id="path86" />
      <path
         d="M 91.555,62.805 91.48,62.68 91.078,62.18 91.004,62.055 h 13.398 l 0.102,0.125 0.101,0.125 0.274,0.375 0.074,0.125 z"
         style="fill:#000000;fill-opacity:1;fill-rule:nonzero;stroke:none"
         transform="matrix(1.3333333,0,0,-1.3333333,0,87.677333)"
         clip-path="url(#clipPath40)"
         id="path87" />
      <path
         d="M 93.777,65.754 93.629,65.555 93.43,65.282 93.277,65.079 h 13.426 l 0.152,0.203 0.2,0.273 0.148,0.199 z"
         style="fill:#000000;fill-opacity:1;fill-rule:nonzero;stroke:none"
         transform="matrix(1.3333333,0,0,-1.3333333,0,87.677333)"
         clip-path="url(#clipPath41)"
         id="path88" />
      <path
         d="M 110.684,65.719 V 24.731 H 97.641 v 5.367 H 83.84 l 6.019,7.988 h 7.782 v 10.328 z"
         style="fill:#000000;fill-opacity:1;fill-rule:nonzero;stroke:none"
         transform="matrix(1.3333333,0,0,-1.3333333,0,87.677333)"
         clip-path="url(#clipPath42)"
         id="path89" />
      <path
         d="m 55.215,55.493 c 0.949,0 5.402,-2.625 0.89,-12.043 -4.378,-9.141 -9.722,-8.453 -9.722,-8.453 H 39.77 L 32.035,24.731 h 14.348 c 5.465,0.023 10.652,2.332 18.066,11.141 6.383,7.578 8.09,15.355 8.09,19.621 0,6.675 -2.125,10.265 -9.59,10.265 z"
         style="fill:#000000;fill-opacity:1;fill-rule:nonzero;stroke:none"
         transform="matrix(1.3333333,0,0,-1.3333333,0,87.677333)"
         clip-path="url(#clipPath43)"
         id="path90" />
      <g
         id="text94"
         style="font-weight:bold;font-size:28px;line-height:1.1;font-family:serif;-inkscape-font-specification:'serif Bold';text-align:center;text-anchor:middle;fill:none;fill-opacity:0.287215;stroke:#000000;stroke-width:3.63065"
         aria-label="WIRELESS&#10;GROUP">
        <path
           style="font-family:Sans;-inkscape-font-specification:'Sans Bold';text-align:start;text-anchor:start;fill:#000000;fill-opacity:1;stroke:none"
           d="m 186.62401,1.2741413 -5.48242,20.3574217 h -5.81055 L 171.68065,8.3698444 168.12596,21.631563 h -5.81055 L 156.83299,1.2741413 h 5.48242 l 3.13086,14.0136717 3.7461,-14.0136717 h 5.23633 l 3.56836,14.0136717 3.28125,-14.0136717 z m 14.50586,20.3574217 h -11.92188 v -3.609375 h 3.33594 V 4.8835163 h -3.33594 v -3.609375 h 11.92188 v 3.609375 h -3.33594 V 18.022188 h 3.33594 z M 216.82518,7.5085163 q 0,-0.765625 -0.31445,-1.3125 -0.31446,-0.546875 -1.08008,-0.8613281 -0.5332,-0.21875 -1.24414,-0.2597656 -0.71094,-0.054687 -1.6543,-0.054687 h -1.90039 v 5.4824224 h 1.61328 q 1.25781,0 2.10547,-0.123047 0.84766,-0.123047 1.42188,-0.5605473 0.54687,-0.4238281 0.79296,-0.9296875 0.25977,-0.5195313 0.25977,-1.3808599 z m 8.18945,14.1230467 h -6.41211 l -5.55078,-7.464844 h -2.41992 v 7.464844 h -5.22266 V 1.2741413 h 8.80469 q 1.80469,0 3.10352,0.2050781 1.29883,0.2050782 2.43359,0.8886719 1.14844,0.6835938 1.81836,1.7773438 0.68359,1.0800781 0.68359,2.7207031 0,2.2558594 -1.05273,3.6777348 -1.03906,1.421875 -2.98047,2.365234 z m 17.02149,0 H 227.31151 V 1.2741413 h 14.72461 v 3.9375 h -9.50196 v 3.5136719 h 8.81836 v 3.9374998 h -8.81836 v 5.03125 h 9.50196 z m 19.08594,0 h -14.6836 V 1.2741413 h 5.25 V 17.694063 h 9.4336 z m 17.88281,0 H 264.28026 V 1.2741413 h 14.72461 v 3.9375 h -9.50196 v 3.5136719 h 8.81836 v 3.9374998 h -8.81836 v 5.03125 h 9.50196 z m 20.69922,-6.398437 q 0,3.007812 -2.55664,4.894531 -2.54297,1.873047 -6.91797,1.873047 -2.5293,0 -4.41602,-0.4375 -1.87305,-0.451172 -3.51367,-1.134766 v -4.880859 h 0.57422 q 1.62695,1.298828 3.63672,1.996094 2.02343,0.697265 3.88281,0.697265 0.47852,0 1.25781,-0.08203 0.7793,-0.08203 1.27149,-0.273438 0.60156,-0.246093 0.98437,-0.615234 0.39649,-0.369141 0.39649,-1.09375 0,-0.669922 -0.57422,-1.148437 -0.56055,-0.492188 -1.6543,-0.751954 -1.14844,-0.273437 -2.43359,-0.505859 -1.27149,-0.246094 -2.39258,-0.615234 -2.57031,-0.833985 -3.70508,-2.25586 -1.12109,-1.4355466 -1.12109,-3.5546872 0,-2.84375 2.54297,-4.6347656 2.55664,-1.80468751 6.5625,-1.80468751 2.00976,0 3.96484,0.39648441 1.96875,0.3828125 3.4043,0.9707031 v 4.6894531 h -0.56055 q -1.23047,-0.984375 -3.02149,-1.640625 -1.77734,-0.6699219 -3.63671,-0.6699219 -0.65625,0 -1.3125,0.095703 -0.64258,0.082031 -1.24414,0.328125 -0.53321,0.2050781 -0.91602,0.6289062 -0.38281,0.4101563 -0.38281,0.9433594 0,0.8066406 0.61523,1.2441406 0.61524,0.4238281 2.32422,0.7792969 1.12109,0.2324219 2.14648,0.4511719 1.03907,0.21875 2.22852,0.6015625 2.33789,0.7656251 3.44531,2.0917971 1.1211,1.3125 1.1211,3.417968 z m 19.89257,0 q 0,3.007812 -2.55664,4.894531 -2.54296,1.873047 -6.91796,1.873047 -2.5293,0 -4.41602,-0.4375 -1.87305,-0.451172 -3.51367,-1.134766 v -4.880859 h 0.57422 q 1.62695,1.298828 3.63672,1.996094 2.02343,0.697265 3.88281,0.697265 0.47851,0 1.25781,-0.08203 0.7793,-0.08203 1.27148,-0.273438 0.60157,-0.246093 0.98438,-0.615234 0.39648,-0.369141 0.39648,-1.09375 0,-0.669922 -0.57421,-1.148437 -0.56055,-0.492188 -1.6543,-0.751954 -1.14844,-0.273437 -2.4336,-0.505859 -1.27148,-0.246094 -2.39257,-0.615234 -2.57032,-0.833985 -3.70508,-2.25586 -1.1211,-1.4355466 -1.1211,-3.5546872 0,-2.84375 2.54297,-4.6347656 2.55664,-1.80468751 6.5625,-1.80468751 2.00977,0 3.96485,0.39648441 1.96875,0.3828125 3.40429,0.9707031 v 4.6894531 h -0.56054 q -1.23047,-0.984375 -3.02149,-1.640625 -1.77734,-0.6699219 -3.63672,-0.6699219 -0.65625,0 -1.3125,0.095703 -0.64257,0.082031 -1.24414,0.328125 -0.5332,0.2050781 -0.91601,0.6289062 -0.38281,0.4101563 -0.38281,0.9433594 0,0.8066406 0.61523,1.2441406 0.61523,0.4238281 2.32422,0.7792969 1.12109,0.2324219 2.14648,0.4511719 1.03907,0.21875 2.22852,0.6015625 2.33789,0.7656251 3.44531,2.0917971 1.12109,1.3125 1.12109,3.417968 z"
           id="path95" />
        <path
           style="font-family:Sans;-inkscape-font-specification:'Sans Bold';text-align:start;text-anchor:start;fill:#000000;fill-opacity:1;stroke:none"
           d="m 176.53416,52.081242 q -1.36718,0.533204 -3.62304,1.066407 -2.25586,0.519531 -4.49805,0.519531 -5.19531,0 -8.13476,-2.816406 -2.93946,-2.830078 -2.93946,-7.806641 0,-4.744141 2.9668,-7.642578 2.9668,-2.912109 8.27148,-2.912109 2.00977,0 3.82813,0.36914 1.81836,0.355469 4.04687,1.435547 v 4.771484 h -0.58789 q -0.38281,-0.287109 -1.12109,-0.80664 -0.73828,-0.533203 -1.42188,-0.902344 -0.79296,-0.4375 -1.85937,-0.751953 -1.05274,-0.314453 -2.24219,-0.314453 -1.39453,0 -2.5293,0.410156 -1.13476,0.410156 -2.0371,1.257813 -0.86133,0.820312 -1.36719,2.091796 -0.49219,1.257813 -0.49219,2.91211 0,3.376953 1.79102,5.167969 1.79101,1.791015 5.29101,1.791015 0.30078,0 0.65625,-0.01367 0.36914,-0.01367 0.66992,-0.04102 v -3.992188 h -4.06054 v -3.841797 h 9.39257 z m 16.11915,-12.960937 q 0,-0.765625 -0.31446,-1.3125 -0.31445,-0.546875 -1.08008,-0.861328 -0.5332,-0.21875 -1.24414,-0.259766 -0.71093,-0.05469 -1.65429,-0.05469 h -1.90039 v 5.482422 h 1.61328 q 1.25781,0 2.10547,-0.123047 0.84765,-0.123047 1.42187,-0.560547 0.54688,-0.423828 0.79297,-0.929688 0.25977,-0.519531 0.25977,-1.380859 z m 8.18945,14.123047 h -6.41211 l -5.55078,-7.464844 h -2.41992 v 7.464844 h -5.22266 V 32.88593 h 8.80469 q 1.80468,0 3.10351,0.205078 1.29883,0.205078 2.4336,0.888672 1.14843,0.683594 1.81836,1.777344 0.68359,1.080078 0.68359,2.720703 0,2.255859 -1.05273,3.677734 -1.03907,1.421875 -2.98047,2.365235 z m 22.09375,-10.171875 q 0,4.867187 -2.78906,7.738281 -2.78907,2.857422 -7.71094,2.857422 -4.9082,0 -7.69727,-2.857422 -2.78906,-2.871094 -2.78906,-7.738281 0,-4.908203 2.78906,-7.751953 2.78907,-2.857422 7.69727,-2.857422 4.89453,0 7.69726,2.857422 2.80274,2.84375 2.80274,7.751953 z m -6.95899,5.154297 q 0.76563,-0.929688 1.13477,-2.1875 0.36914,-1.271485 0.36914,-2.980469 0,-1.832031 -0.42383,-3.117188 -0.42383,-1.285156 -1.10742,-2.078125 -0.69727,-0.820312 -1.61328,-1.189453 -0.90234,-0.36914 -1.88672,-0.36914 -0.99805,0 -1.88672,0.355468 -0.875,0.355469 -1.61328,1.175782 -0.68359,0.765625 -1.12109,2.11914 -0.42383,1.339844 -0.42383,3.117188 0,1.818359 0.41015,3.103515 0.42383,1.271485 1.10743,2.078125 0.68359,0.806641 1.59961,1.189454 0.91601,0.382812 1.92773,0.382812 1.01172,0 1.92773,-0.382812 0.91602,-0.396485 1.59961,-1.216797 z m 28.79297,-2.351563 q 0,3.773438 -2.29687,5.783203 -2.29688,2.009766 -6.76758,2.009766 -4.4707,0 -6.76758,-2.009766 -2.2832,-2.009765 -2.2832,-5.769531 V 32.88593 h 5.27734 v 12.701172 q 0,2.11914 0.88867,3.158203 0.88868,1.039062 2.88477,1.039062 1.96875,0 2.87109,-0.998046 0.91602,-0.998047 0.91602,-3.199219 V 32.88593 h 5.27734 z m 21.71094,-6.5625 q 0,1.367188 -0.47852,2.679688 -0.47851,1.298828 -1.36718,2.1875 -1.2168,1.203125 -2.72071,1.818359 -1.49023,0.615234 -3.71875,0.615234 h -3.26757 v 6.63086 h -5.25 V 32.88593 h 8.64062 q 1.94141,0 3.26758,0.341797 1.33984,0.328125 2.36523,0.998047 1.23047,0.80664 1.87305,2.064453 0.65625,1.257812 0.65625,3.021484 z m -5.42773,0.123047 q 0,-0.861328 -0.46485,-1.476562 -0.46484,-0.628907 -1.08008,-0.875 -0.82031,-0.328125 -1.59961,-0.355469 -0.77929,-0.04102 -2.07812,-0.04102 h -0.90234 v 6.097656 h 1.5039 q 1.33985,0 2.20117,-0.164062 0.875,-0.164063 1.46289,-0.65625 0.50586,-0.4375 0.72461,-1.039063 0.23243,-0.615234 0.23243,-1.490234 z"
           id="path96" />
      </g>
    </g>
  </g>
</svg>
