<?xml version="1.0" encoding="UTF-8" standalone="no"?>
<!-- Created with Inkscape (http://www.inkscape.org/) -->

<svg
   version="1.1"
   id="svg1"
   width="152.13867"
   height="57.66"
   viewBox="0 0 152.13867 57.66"
   sodipodi:docname="IDA_Logo_Icon_Only.pdf"
   inkscape:version="0.0"
   xmlns:inkscape="http://www.inkscape.org/namespaces/inkscape"
   xmlns:sodipodi="http://sodipodi.sourceforge.net/DTD/sodipodi-0.dtd"
   xmlns="http://www.w3.org/2000/svg"
   xmlns:svg="http://www.w3.org/2000/svg">
  <defs
     id="defs1">
    <clipPath
       clipPathUnits="userSpaceOnUse"
       id="clipPath1">
      <path
         d="M 0,0 H 208.40851 V 65.758247 H 0 Z"
         id="path1" />
    </clipPath>
    <clipPath
       clipPathUnits="userSpaceOnUse"
       id="clipPath2">
      <path
         d="M 0,0 H 208.40851 V 65.758247 H 0 Z"
         id="path2" />
    </clipPath>
    <clipPath
       clipPathUnits="userSpaceOnUse"
       id="clipPath3">
      <path
         d="M 0,0 H 208.40851 V 65.758247 H 0 Z"
         id="path3" />
    </clipPath>
    <clipPath
       clipPathUnits="userSpaceOnUse"
       id="clipPath4">
      <path
         d="M 0,0 H 208.40851 V 65.758247 H 0 Z"
         id="path4" />
    </clipPath>
    <clipPath
       clipPathUnits="userSpaceOnUse"
       id="clipPath5">
      <path
         d="M 0,0 H 208.40851 V 65.758247 H 0 Z"
         id="path5" />
    </clipPath>
    <clipPath
       clipPathUnits="userSpaceOnUse"
       id="clipPath6">
      <path
         d="M 0,0 H 208.40851 V 65.758247 H 0 Z"
         id="path6" />
    </clipPath>
    <clipPath
       clipPathUnits="userSpaceOnUse"
       id="clipPath7">
      <path
         d="M 0,0 H 208.40851 V 65.758247 H 0 Z"
         id="path7" />
    </clipPath>
    <clipPath
       clipPathUnits="userSpaceOnUse"
       id="clipPath8">
      <path
         d="M 0,0 H 208.40851 V 65.758247 H 0 Z"
         id="path8" />
    </clipPath>
    <clipPath
       clipPathUnits="userSpaceOnUse"
       id="clipPath9">
      <path
         d="M 0,0 H 208.40851 V 65.758247 H 0 Z"
         id="path9" />
    </clipPath>
    <clipPath
       clipPathUnits="userSpaceOnUse"
       id="clipPath10">
      <path
         d="M 0,0 H 208.40851 V 65.758247 H 0 Z"
         id="path10" />
    </clipPath>
    <clipPath
       clipPathUnits="userSpaceOnUse"
       id="clipPath11">
      <path
         d="M 0,0 H 208.40851 V 65.758247 H 0 Z"
         id="path11" />
    </clipPath>
    <clipPath
       clipPathUnits="userSpaceOnUse"
       id="clipPath12">
      <path
         d="M 0,0 H 208.40851 V 65.758247 H 0 Z"
         id="path12" />
    </clipPath>
    <clipPath
       clipPathUnits="userSpaceOnUse"
       id="clipPath13">
      <path
         d="M 0,0 H 208.40851 V 65.758247 H 0 Z"
         id="path13" />
    </clipPath>
    <clipPath
       clipPathUnits="userSpaceOnUse"
       id="clipPath14">
      <path
         d="M 0,0 H 208.40851 V 65.758247 H 0 Z"
         id="path14" />
    </clipPath>
    <clipPath
       clipPathUnits="userSpaceOnUse"
       id="clipPath15">
      <path
         d="M 0,0 H 208.40851 V 65.758247 H 0 Z"
         id="path15" />
    </clipPath>
    <clipPath
       clipPathUnits="userSpaceOnUse"
       id="clipPath16">
      <path
         d="M 0,0 H 208.40851 V 65.758247 H 0 Z"
         id="path16" />
    </clipPath>
    <clipPath
       clipPathUnits="userSpaceOnUse"
       id="clipPath17">
      <path
         d="M 0,0 H 208.40851 V 65.758247 H 0 Z"
         id="path17" />
    </clipPath>
    <clipPath
       clipPathUnits="userSpaceOnUse"
       id="clipPath18">
      <path
         d="M 0,0 H 208.40851 V 65.758247 H 0 Z"
         id="path18" />
    </clipPath>
    <clipPath
       clipPathUnits="userSpaceOnUse"
       id="clipPath19">
      <path
         d="M 0,0 H 208.40851 V 65.758247 H 0 Z"
         id="path19" />
    </clipPath>
    <clipPath
       clipPathUnits="userSpaceOnUse"
       id="clipPath20">
      <path
         d="M 0,0 H 208.40851 V 65.758247 H 0 Z"
         id="path20" />
    </clipPath>
    <clipPath
       clipPathUnits="userSpaceOnUse"
       id="clipPath21">
      <path
         d="M 0,0 H 208.40851 V 65.758247 H 0 Z"
         id="path21" />
    </clipPath>
    <clipPath
       clipPathUnits="userSpaceOnUse"
       id="clipPath22">
      <path
         d="M 0,0 H 208.40851 V 65.758247 H 0 Z"
         id="path22" />
    </clipPath>
    <clipPath
       clipPathUnits="userSpaceOnUse"
       id="clipPath23">
      <path
         d="M 0,0 H 208.40851 V 65.758247 H 0 Z"
         id="path23" />
    </clipPath>
    <clipPath
       clipPathUnits="userSpaceOnUse"
       id="clipPath24">
      <path
         d="M 0,0 H 208.40851 V 65.758247 H 0 Z"
         id="path24" />
    </clipPath>
    <clipPath
       clipPathUnits="userSpaceOnUse"
       id="clipPath25">
      <path
         d="M 0,0 H 208.40851 V 65.758247 H 0 Z"
         id="path25" />
    </clipPath>
    <clipPath
       clipPathUnits="userSpaceOnUse"
       id="clipPath26">
      <path
         d="M 0,0 H 208.40851 V 65.758247 H 0 Z"
         id="path26" />
    </clipPath>
    <clipPath
       clipPathUnits="userSpaceOnUse"
       id="clipPath27">
      <path
         d="M 0,0 H 208.40851 V 65.758247 H 0 Z"
         id="path27" />
    </clipPath>
    <clipPath
       clipPathUnits="userSpaceOnUse"
       id="clipPath28">
      <path
         d="M 0,0 H 208.40851 V 65.758247 H 0 Z"
         id="path28" />
    </clipPath>
    <clipPath
       clipPathUnits="userSpaceOnUse"
       id="clipPath29">
      <path
         d="M 0,0 H 208.40851 V 65.758247 H 0 Z"
         id="path29" />
    </clipPath>
    <clipPath
       clipPathUnits="userSpaceOnUse"
       id="clipPath30">
      <path
         d="M 0,0 H 208.40851 V 65.758247 H 0 Z"
         id="path30" />
    </clipPath>
    <clipPath
       clipPathUnits="userSpaceOnUse"
       id="clipPath31">
      <path
         d="M 0,0 H 208.40851 V 65.758247 H 0 Z"
         id="path31" />
    </clipPath>
    <clipPath
       clipPathUnits="userSpaceOnUse"
       id="clipPath32">
      <path
         d="M 0,0 H 208.40851 V 65.758247 H 0 Z"
         id="path32" />
    </clipPath>
    <clipPath
       clipPathUnits="userSpaceOnUse"
       id="clipPath33">
      <path
         d="M 0,0 H 208.40851 V 65.758247 H 0 Z"
         id="path33" />
    </clipPath>
    <clipPath
       clipPathUnits="userSpaceOnUse"
       id="clipPath34">
      <path
         d="M 0,0 H 208.40851 V 65.758247 H 0 Z"
         id="path34" />
    </clipPath>
    <clipPath
       clipPathUnits="userSpaceOnUse"
       id="clipPath35">
      <path
         d="M 0,0 H 208.40851 V 65.758247 H 0 Z"
         id="path35" />
    </clipPath>
    <clipPath
       clipPathUnits="userSpaceOnUse"
       id="clipPath36">
      <path
         d="M 0,0 H 208.40851 V 65.758247 H 0 Z"
         id="path36" />
    </clipPath>
    <clipPath
       clipPathUnits="userSpaceOnUse"
       id="clipPath37">
      <path
         d="M 0,0 H 208.40851 V 65.758247 H 0 Z"
         id="path37" />
    </clipPath>
    <clipPath
       clipPathUnits="userSpaceOnUse"
       id="clipPath38">
      <path
         d="M 0,0 H 208.40851 V 65.758247 H 0 Z"
         id="path38" />
    </clipPath>
    <clipPath
       clipPathUnits="userSpaceOnUse"
       id="clipPath39">
      <path
         d="M 0,0 H 208.40851 V 65.758247 H 0 Z"
         id="path39" />
    </clipPath>
    <clipPath
       clipPathUnits="userSpaceOnUse"
       id="clipPath40">
      <path
         d="M 0,0 H 208.40851 V 65.758247 H 0 Z"
         id="path40" />
    </clipPath>
    <clipPath
       clipPathUnits="userSpaceOnUse"
       id="clipPath41">
      <path
         d="M 0,0 H 208.40851 V 65.758247 H 0 Z"
         id="path41" />
    </clipPath>
    <clipPath
       clipPathUnits="userSpaceOnUse"
       id="clipPath42">
      <path
         d="M 0,0 H 208.40851 V 65.758247 H 0 Z"
         id="path42" />
    </clipPath>
    <clipPath
       clipPathUnits="userSpaceOnUse"
       id="clipPath43">
      <path
         d="M 0,0 H 208.40851 V 65.758247 H 0 Z"
         id="path43" />
    </clipPath>
    <clipPath
       clipPathUnits="userSpaceOnUse"
       id="clipPath44">
      <path
         d="M 0,0 H 208.40851 V 65.758247 H 0 Z"
         id="path44" />
    </clipPath>
    <clipPath
       clipPathUnits="userSpaceOnUse"
       id="clipPath45">
      <path
         d="M 0,0 H 208.40851 V 65.758247 H 0 Z"
         id="path45" />
    </clipPath>
    <clipPath
       clipPathUnits="userSpaceOnUse"
       id="clipPath46">
      <path
         d="M 0,0 H 208.40851 V 65.758247 H 0 Z"
         id="path46" />
    </clipPath>
    <clipPath
       clipPathUnits="userSpaceOnUse"
       id="clipPath47">
      <path
         d="M 0,0 H 208.40851 V 65.758247 H 0 Z"
         id="path47" />
    </clipPath>
  </defs>
  <sodipodi:namedview
     id="namedview1"
     pagecolor="#ffffff"
     bordercolor="#000000"
     borderopacity="0.25"
     inkscape:showpageshadow="2"
     inkscape:pageopacity="0.0"
     inkscape:pagecheckerboard="0"
     inkscape:deskcolor="#d1d1d1"
     inkscape:zoom="17.924437"
     inkscape:cx="76.069337"
     inkscape:cy="28.815411"
     inkscape:window-width="3840"
     inkscape:window-height="2054"
     inkscape:window-x="2869"
     inkscape:window-y="-11"
     inkscape:window-maximized="1"
     inkscape:current-layer="g1" />
  <g
     id="g1"
     inkscape:groupmode="layer"
     inkscape:label="1">
    <g
       id="g94">
      <path
         d="M 30.719,65.497 20.766,42.047 13.414,24.731 H 7.477 0 l 13.047,17.316 z"
         style="fill:#000000;fill-opacity:1;fill-rule:nonzero;stroke:none"
         transform="matrix(1.3333333,0,0,-1.3333333,0,87.677333)"
         clip-path="url(#clipPath1)"
         id="path48" />
      <path
         d="M 1.93,33.004 1.078,30.981 H 1.23 l 1.524,2.023 z"
         style="fill:#000000;fill-opacity:1;fill-rule:nonzero;stroke:none"
         transform="matrix(1.3333333,0,0,-1.3333333,0,87.677333)"
         clip-path="url(#clipPath2)"
         id="path49" />
      <path
         d="M 3.23,36.055 2.48,34.254 h 1.223 l 1.352,1.801 z"
         style="fill:#000000;fill-opacity:1;fill-rule:nonzero;stroke:none"
         transform="matrix(1.3333333,0,0,-1.3333333,0,87.677333)"
         clip-path="url(#clipPath3)"
         id="path50" />
      <path
         d="M 4.504,39.079 3.777,37.305 h 2.227 l 1.324,1.774 z"
         style="fill:#000000;fill-opacity:1;fill-rule:nonzero;stroke:none"
         transform="matrix(1.3333333,0,0,-1.3333333,0,87.677333)"
         clip-path="url(#clipPath4)"
         id="path51" />
      <path
         d="M 5.773,42.047 H 9.57 L 8.277,40.332 h -3.23 z"
         style="fill:#000000;fill-opacity:1;fill-rule:nonzero;stroke:none"
         transform="matrix(1.3333333,0,0,-1.3333333,0,87.677333)"
         clip-path="url(#clipPath5)"
         id="path52" />
      <path
         d="m 7.031,45.012 h 4.774 L 10.629,43.45 H 6.371 Z"
         style="fill:#000000;fill-opacity:1;fill-rule:nonzero;stroke:none"
         transform="matrix(1.3333333,0,0,-1.3333333,0,87.677333)"
         clip-path="url(#clipPath6)"
         id="path53" />
      <path
         d="m 8.289,47.977 h 5.75 L 12.98,46.571 H 7.695 Z"
         style="fill:#000000;fill-opacity:1;fill-rule:nonzero;stroke:none"
         transform="matrix(1.3333333,0,0,-1.3333333,0,87.677333)"
         clip-path="url(#clipPath7)"
         id="path54" />
      <path
         d="m 9.547,50.938 h 6.726 L 15.332,49.692 H 9.02 Z"
         style="fill:#000000;fill-opacity:1;fill-rule:nonzero;stroke:none"
         transform="matrix(1.3333333,0,0,-1.3333333,0,87.677333)"
         clip-path="url(#clipPath8)"
         id="path55" />
      <path
         d="m 10.805,53.903 h 7.699 l -0.82,-1.09 h -7.34 z"
         style="fill:#000000;fill-opacity:1;fill-rule:nonzero;stroke:none"
         transform="matrix(1.3333333,0,0,-1.3333333,0,87.677333)"
         clip-path="url(#clipPath9)"
         id="path56" />
      <path
         d="m 12.062,56.868 h 8.676 L 20.035,55.93 h -8.367 z"
         style="fill:#000000;fill-opacity:1;fill-rule:nonzero;stroke:none"
         transform="matrix(1.3333333,0,0,-1.3333333,0,87.677333)"
         clip-path="url(#clipPath10)"
         id="path57" />
      <path
         d="m 13.32,59.829 h 9.653 l -0.586,-0.778 h -9.395 z"
         style="fill:#000000;fill-opacity:1;fill-rule:nonzero;stroke:none"
         transform="matrix(1.3333333,0,0,-1.3333333,0,87.677333)"
         clip-path="url(#clipPath11)"
         id="path58" />
      <path
         d="M 14.578,62.805 14.527,62.68 14.305,62.157 14.254,62.032 h 10.375 l 0.476,0.648 0.098,0.125 z"
         style="fill:#000000;fill-opacity:1;fill-rule:nonzero;stroke:none"
         transform="matrix(1.3333333,0,0,-1.3333333,0,87.677333)"
         clip-path="url(#clipPath12)"
         id="path59" />
      <path
         d="M 15.828,65.754 15.754,65.555 15.629,65.282 15.555,65.079 H 26.93 l 0.347,0.476 0.153,0.199 z"
         style="fill:#000000;fill-opacity:1;fill-rule:nonzero;stroke:none"
         transform="matrix(1.3333333,0,0,-1.3333333,0,87.677333)"
         clip-path="url(#clipPath13)"
         id="path60" />
      <path
         d="m 22.305,26.879 -0.903,-2.148 h 7.153 l 1.597,2.148 z"
         style="fill:#000000;fill-opacity:1;fill-rule:nonzero;stroke:none"
         transform="matrix(1.3333333,0,0,-1.3333333,0,87.677333)"
         clip-path="url(#clipPath14)"
         id="path61" />
      <path
         d="m 23.605,29.93 -0.75,-1.801 h 8.274 l 1.351,1.801 z"
         style="fill:#000000;fill-opacity:1;fill-rule:nonzero;stroke:none"
         transform="matrix(1.3333333,0,0,-1.3333333,0,87.677333)"
         clip-path="url(#clipPath15)"
         id="path62" />
      <path
         d="m 24.902,33.004 -0.75,-1.824 h 9.25 l 1.375,1.824 z"
         style="fill:#000000;fill-opacity:1;fill-rule:nonzero;stroke:none"
         transform="matrix(1.3333333,0,0,-1.3333333,0,87.677333)"
         clip-path="url(#clipPath16)"
         id="path63" />
      <path
         d="m 26.203,36.055 -0.75,-1.801 H 35.73 l 1.348,1.801 z"
         style="fill:#000000;fill-opacity:1;fill-rule:nonzero;stroke:none"
         transform="matrix(1.3333333,0,0,-1.3333333,0,87.677333)"
         clip-path="url(#clipPath17)"
         id="path64" />
      <path
         d="m 27.504,39.079 -0.75,-1.774 h 11.273 l 1.328,1.774 z"
         style="fill:#000000;fill-opacity:1;fill-rule:nonzero;stroke:none"
         transform="matrix(1.3333333,0,0,-1.3333333,0,87.677333)"
         clip-path="url(#clipPath18)"
         id="path65" />
      <path
         d="M 28.75,42.047 H 41.594 L 40.301,40.332 H 28.023 Z"
         style="fill:#000000;fill-opacity:1;fill-rule:nonzero;stroke:none"
         transform="matrix(1.3333333,0,0,-1.3333333,0,87.677333)"
         clip-path="url(#clipPath19)"
         id="path66" />
      <path
         d="M 30.012,45.012 H 43.395 L 42.652,43.45 H 29.348 Z"
         style="fill:#000000;fill-opacity:1;fill-rule:nonzero;stroke:none"
         transform="matrix(1.3333333,0,0,-1.3333333,0,87.677333)"
         clip-path="url(#clipPath20)"
         id="path67" />
      <path
         d="M 31.27,47.977 H 44.652 L 44.055,46.571 H 30.672 Z"
         style="fill:#000000;fill-opacity:1;fill-rule:nonzero;stroke:none"
         transform="matrix(1.3333333,0,0,-1.3333333,0,87.677333)"
         clip-path="url(#clipPath21)"
         id="path68" />
      <path
         d="M 32.527,50.938 H 45.91 L 45.379,49.692 H 31.996 Z"
         style="fill:#000000;fill-opacity:1;fill-rule:nonzero;stroke:none"
         transform="matrix(1.3333333,0,0,-1.3333333,0,87.677333)"
         clip-path="url(#clipPath22)"
         id="path69" />
      <path
         d="m 33.785,53.903 h 13.383 l -0.465,-1.09 H 33.32 Z"
         style="fill:#000000;fill-opacity:1;fill-rule:nonzero;stroke:none"
         transform="matrix(1.3333333,0,0,-1.3333333,0,87.677333)"
         clip-path="url(#clipPath23)"
         id="path70" />
      <path
         d="M 35.043,56.868 H 52.762 L 52.055,55.93 h -17.41 z"
         style="fill:#000000;fill-opacity:1;fill-rule:nonzero;stroke:none"
         transform="matrix(1.3333333,0,0,-1.3333333,0,87.677333)"
         clip-path="url(#clipPath24)"
         id="path71" />
      <path
         d="m 36.301,59.829 h 18.695 l -0.59,-0.778 H 35.969 Z"
         style="fill:#000000;fill-opacity:1;fill-rule:nonzero;stroke:none"
         transform="matrix(1.3333333,0,0,-1.3333333,0,87.677333)"
         clip-path="url(#clipPath25)"
         id="path72" />
      <path
         d="M 37.555,62.805 37.504,62.68 37.305,62.18 37.254,62.055 H 56.68 l 0.449,0.625 0.101,0.125 z"
         style="fill:#000000;fill-opacity:1;fill-rule:nonzero;stroke:none"
         transform="matrix(1.3333333,0,0,-1.3333333,0,87.677333)"
         clip-path="url(#clipPath26)"
         id="path73" />
      <path
         d="m 38.828,65.754 -0.074,-0.199 -0.125,-0.273 -0.102,-0.203 h 20.426 l 0.352,0.476 0.148,0.199 z"
         style="fill:#000000;fill-opacity:1;fill-rule:nonzero;stroke:none"
         transform="matrix(1.3333333,0,0,-1.3333333,0,87.677333)"
         clip-path="url(#clipPath27)"
         id="path74" />
      <path
         d="m 64.48,26.879 -1.625,-2.148 h 13.422 l 1.625,2.148 z"
         style="fill:#000000;fill-opacity:1;fill-rule:nonzero;stroke:none"
         transform="matrix(1.3333333,0,0,-1.3333333,0,87.677333)"
         clip-path="url(#clipPath28)"
         id="path75" />
      <path
         d="M 66.777,29.93 65.43,28.129 h 13.425 l 1.348,1.801 z"
         style="fill:#000000;fill-opacity:1;fill-rule:nonzero;stroke:none"
         transform="matrix(1.3333333,0,0,-1.3333333,0,87.677333)"
         clip-path="url(#clipPath29)"
         id="path76" />
      <path
         d="M 69.105,33.004 67.73,31.18 h 13.399 l 1.375,1.824 z"
         style="fill:#000000;fill-opacity:1;fill-rule:nonzero;stroke:none"
         transform="matrix(1.3333333,0,0,-1.3333333,0,87.677333)"
         clip-path="url(#clipPath30)"
         id="path77" />
      <path
         d="m 71.402,36.055 -1.347,-1.801 h 13.398 l 1.352,1.801 z"
         style="fill:#000000;fill-opacity:1;fill-rule:nonzero;stroke:none"
         transform="matrix(1.3333333,0,0,-1.3333333,0,87.677333)"
         clip-path="url(#clipPath31)"
         id="path78" />
      <path
         d="m 73.68,39.079 -1.325,-1.774 h 13.399 l 1.351,1.774 z"
         style="fill:#000000;fill-opacity:1;fill-rule:nonzero;stroke:none"
         transform="matrix(1.3333333,0,0,-1.3333333,0,87.677333)"
         clip-path="url(#clipPath32)"
         id="path79" />
      <path
         d="M 75.914,42.047 H 89.328 L 88.035,40.332 H 74.621 Z"
         style="fill:#000000;fill-opacity:1;fill-rule:nonzero;stroke:none"
         transform="matrix(1.3333333,0,0,-1.3333333,0,87.677333)"
         clip-path="url(#clipPath33)"
         id="path80" />
      <path
         d="M 78.145,45.012 H 91.562 L 90.387,43.45 H 76.969 Z"
         style="fill:#000000;fill-opacity:1;fill-rule:nonzero;stroke:none"
         transform="matrix(1.3333333,0,0,-1.3333333,0,87.677333)"
         clip-path="url(#clipPath34)"
         id="path81" />
      <path
         d="M 80.379,47.977 H 93.793 L 92.738,46.571 H 79.32 Z"
         style="fill:#000000;fill-opacity:1;fill-rule:nonzero;stroke:none"
         transform="matrix(1.3333333,0,0,-1.3333333,0,87.677333)"
         clip-path="url(#clipPath35)"
         id="path82" />
      <path
         d="M 82.613,50.938 H 96.027 L 95.086,49.692 H 81.672 Z"
         style="fill:#000000;fill-opacity:1;fill-rule:nonzero;stroke:none"
         transform="matrix(1.3333333,0,0,-1.3333333,0,87.677333)"
         clip-path="url(#clipPath36)"
         id="path83" />
      <path
         d="m 84.848,53.903 h 13.414 l -0.824,-1.09 H 84.023 Z"
         style="fill:#000000;fill-opacity:1;fill-rule:nonzero;stroke:none"
         transform="matrix(1.3333333,0,0,-1.3333333,0,87.677333)"
         clip-path="url(#clipPath37)"
         id="path84" />
      <path
         d="m 87.078,56.868 h 13.418 L 99.789,55.93 H 86.375 Z"
         style="fill:#000000;fill-opacity:1;fill-rule:nonzero;stroke:none"
         transform="matrix(1.3333333,0,0,-1.3333333,0,87.677333)"
         clip-path="url(#clipPath38)"
         id="path85" />
      <path
         d="m 89.312,59.829 h 13.415 l -0.586,-0.778 H 88.727 Z"
         style="fill:#000000;fill-opacity:1;fill-rule:nonzero;stroke:none"
         transform="matrix(1.3333333,0,0,-1.3333333,0,87.677333)"
         clip-path="url(#clipPath39)"
         id="path86" />
      <path
         d="M 91.555,62.805 91.48,62.68 91.078,62.18 91.004,62.055 h 13.398 l 0.102,0.125 0.101,0.125 0.274,0.375 0.074,0.125 z"
         style="fill:#000000;fill-opacity:1;fill-rule:nonzero;stroke:none"
         transform="matrix(1.3333333,0,0,-1.3333333,0,87.677333)"
         clip-path="url(#clipPath40)"
         id="path87" />
      <path
         d="M 93.777,65.754 93.629,65.555 93.43,65.282 93.277,65.079 h 13.426 l 0.152,0.203 0.2,0.273 0.148,0.199 z"
         style="fill:#000000;fill-opacity:1;fill-rule:nonzero;stroke:none"
         transform="matrix(1.3333333,0,0,-1.3333333,0,87.677333)"
         clip-path="url(#clipPath41)"
         id="path88" />
      <path
         d="M 110.684,65.719 V 24.731 H 97.641 v 5.367 H 83.84 l 6.019,7.988 h 7.782 v 10.328 z"
         style="fill:#000000;fill-opacity:1;fill-rule:nonzero;stroke:none"
         transform="matrix(1.3333333,0,0,-1.3333333,0,87.677333)"
         clip-path="url(#clipPath42)"
         id="path89" />
      <path
         d="m 55.215,55.493 c 0.949,0 5.402,-2.625 0.89,-12.043 -4.378,-9.141 -9.722,-8.453 -9.722,-8.453 H 39.77 L 32.035,24.731 h 14.348 c 5.465,0.023 10.652,2.332 18.066,11.141 6.383,7.578 8.09,15.355 8.09,19.621 0,6.675 -2.125,10.265 -9.59,10.265 z"
         style="fill:#000000;fill-opacity:1;fill-rule:nonzero;stroke:none"
         transform="matrix(1.3333333,0,0,-1.3333333,0,87.677333)"
         clip-path="url(#clipPath43)"
         id="path90" />
      <path
         d="m 120.246,37.082 v 7.704 h -1.547 v -7.704 z m 8.399,0 v 7.704 h -1.532 V 41.52 c 0,-0.106 0,-0.242 0,-0.406 0.008,-0.157 0.016,-0.321 0.016,-0.485 0,-0.168 0,-0.324 0,-0.468 0.008,-0.137 0.016,-0.243 0.016,-0.313 -0.055,0.102 -0.137,0.234 -0.25,0.391 -0.106,0.164 -0.207,0.32 -0.297,0.468 l -2.719,4.079 h -1.484 v -7.704 h 1.531 v 3.391 c 0,0.102 -0.008,0.234 -0.016,0.391 0,0.164 0,0.332 0,0.5 0,0.164 -0.008,0.32 -0.015,0.468 0,0.145 0,0.254 0,0.329 0.05,-0.106 0.128,-0.243 0.234,-0.407 0.101,-0.168 0.207,-0.324 0.312,-0.468 l 2.829,-4.204 z m 7.765,2.329 c 0,0.414 -0.082,0.757 -0.234,1.031 -0.156,0.269 -0.364,0.492 -0.61,0.672 -0.242,0.175 -0.519,0.312 -0.828,0.406 -0.304,0.102 -0.613,0.191 -0.922,0.266 -0.304,0.07 -0.554,0.14 -0.75,0.203 -0.199,0.058 -0.355,0.125 -0.468,0.187 -0.118,0.059 -0.2,0.133 -0.25,0.219 -0.043,0.09 -0.063,0.195 -0.063,0.312 0,0.09 0.016,0.176 0.047,0.25 0.039,0.082 0.102,0.157 0.188,0.219 0.082,0.071 0.191,0.129 0.328,0.172 0.144,0.039 0.32,0.063 0.531,0.063 0.351,0 0.672,-0.071 0.953,-0.204 0.277,-0.136 0.547,-0.335 0.797,-0.593 l 1.109,1.078 c -0.367,0.383 -0.777,0.68 -1.234,0.89 -0.449,0.215 -0.977,0.329 -1.578,0.329 -0.375,0 -0.731,-0.055 -1.063,-0.157 -0.336,-0.105 -0.629,-0.257 -0.875,-0.453 -0.25,-0.187 -0.449,-0.426 -0.593,-0.703 -0.149,-0.281 -0.219,-0.601 -0.219,-0.953 0,-0.375 0.054,-0.695 0.172,-0.953 0.121,-0.262 0.289,-0.477 0.5,-0.641 0.214,-0.168 0.472,-0.308 0.765,-0.422 0.301,-0.105 0.629,-0.199 0.985,-0.281 0.363,-0.086 0.656,-0.164 0.875,-0.234 0.226,-0.075 0.398,-0.153 0.515,-0.235 0.121,-0.074 0.207,-0.16 0.25,-0.25 0.039,-0.093 0.063,-0.207 0.063,-0.328 0,-0.293 -0.113,-0.508 -0.328,-0.64 -0.211,-0.125 -0.543,-0.188 -1,-0.188 -0.375,0 -0.731,0.066 -1.063,0.203 -0.336,0.133 -0.637,0.36 -0.906,0.672 l -1.125,-0.984 c 0.301,-0.438 0.711,-0.785 1.234,-1.032 0.528,-0.25 1.117,-0.375 1.766,-0.375 0.527,0 0.984,0.059 1.359,0.172 0.371,0.121 0.688,0.289 0.938,0.5 0.246,0.215 0.429,0.477 0.547,0.782 0.121,0.3 0.187,0.632 0.187,1 z m 6.922,3.859 v 1.516 h -5.953 V 43.27 h 2.203 v -6.188 h 1.547 v 6.188 z m 3.273,-6.188 v 7.704 h -1.546 v -7.704 z m 7.618,6.188 v 1.516 H 148.27 V 43.27 h 2.203 v -6.188 h 1.547 v 6.188 z m 7.808,-2.781 v 4.297 h -1.547 v -4.329 c 0,-0.625 -0.144,-1.117 -0.422,-1.468 -0.281,-0.344 -0.667,-0.516 -1.156,-0.516 -0.492,0 -0.879,0.176 -1.156,0.531 -0.281,0.364 -0.422,0.86 -0.422,1.485 v 4.297 h -1.531 v -4.329 c 0,-0.554 0.07,-1.05 0.219,-1.484 0.152,-0.437 0.367,-0.809 0.64,-1.109 0.27,-0.293 0.598,-0.52 0.985,-0.672 0.382,-0.153 0.804,-0.235 1.265,-0.235 0.977,0 1.742,0.305 2.297,0.922 0.551,0.614 0.828,1.485 0.828,2.61 z m 7.528,2.781 v 1.516 h -5.954 V 43.27 h 2.204 v -6.188 h 1.546 v 6.188 z m 7.132,-6.188 v 1.5 h -3.968 v 1.86 h 2.203 v 1.5 h -2.203 v 1.328 h 3.812 v 1.516 h -5.359 v -7.704 z m 11.368,3.86 c 0,0.621 -0.086,1.18 -0.25,1.672 -0.157,0.488 -0.387,0.898 -0.688,1.234 -0.293,0.34 -0.648,0.602 -1.062,0.781 -0.418,0.184 -0.879,0.282 -1.375,0.282 -0.5,0 -0.965,-0.098 -1.391,-0.282 -0.418,-0.187 -0.777,-0.457 -1.078,-0.797 -0.293,-0.335 -0.524,-0.746 -0.688,-1.234 -0.168,-0.492 -0.25,-1.051 -0.25,-1.672 0,-0.625 0.082,-1.183 0.25,-1.672 0.164,-0.492 0.395,-0.91 0.688,-1.25 0.301,-0.336 0.656,-0.597 1.062,-0.781 0.414,-0.176 0.879,-0.266 1.391,-0.266 0.496,0 0.957,0.09 1.375,0.266 0.414,0.184 0.773,0.453 1.078,0.797 0.301,0.34 0.531,0.758 0.688,1.25 0.164,0.488 0.25,1.047 0.25,1.672 z m -1.579,-0.016 c 0,-0.793 -0.168,-1.398 -0.5,-1.812 -0.324,-0.418 -0.757,-0.625 -1.296,-0.625 -0.543,0 -0.989,0.211 -1.329,0.64 -0.335,0.426 -0.5,1.032 -0.5,1.813 0,0.777 0.161,1.379 0.485,1.797 0.332,0.425 0.769,0.64 1.312,0.64 0.539,0 0.977,-0.215 1.313,-0.64 0.34,-0.43 0.515,-1.035 0.515,-1.813 z m 8.786,2.344 v 1.516 h -5.516 v -7.704 h 1.547 v 3.25 h 2.312 v 1.485 h -2.312 v 1.453 z"
         style="fill:#000000;fill-opacity:1;fill-rule:nonzero;stroke:none"
         transform="matrix(1.3333333,0,0,-1.3333333,0,87.677333)"
         clip-path="url(#clipPath44)"
         id="path91" />
      <path
         d="m 120.246,37.082 v 7.704 h -1.547 v -7.704 z m 8.399,0 v 7.704 h -1.532 V 41.52 c 0,-0.106 0,-0.242 0,-0.406 0.008,-0.157 0.016,-0.321 0.016,-0.485 0,-0.168 0,-0.324 0,-0.468 0.008,-0.137 0.016,-0.243 0.016,-0.313 -0.055,0.102 -0.137,0.234 -0.25,0.391 -0.106,0.164 -0.207,0.32 -0.297,0.468 l -2.719,4.079 h -1.484 v -7.704 h 1.531 v 3.391 c 0,0.102 -0.008,0.234 -0.016,0.391 0,0.164 0,0.332 0,0.5 0,0.164 -0.008,0.32 -0.015,0.468 0,0.145 0,0.254 0,0.329 0.05,-0.106 0.128,-0.243 0.234,-0.407 0.101,-0.168 0.207,-0.324 0.312,-0.468 l 2.829,-4.204 z m 7.765,2.329 c 0,0.414 -0.082,0.757 -0.234,1.031 -0.156,0.269 -0.364,0.492 -0.61,0.672 -0.242,0.175 -0.519,0.312 -0.828,0.406 -0.304,0.102 -0.613,0.191 -0.922,0.266 -0.304,0.07 -0.554,0.14 -0.75,0.203 -0.199,0.058 -0.355,0.125 -0.468,0.187 -0.118,0.059 -0.2,0.133 -0.25,0.219 -0.043,0.09 -0.063,0.195 -0.063,0.312 0,0.09 0.016,0.176 0.047,0.25 0.039,0.082 0.102,0.157 0.188,0.219 0.082,0.071 0.191,0.129 0.328,0.172 0.144,0.039 0.32,0.063 0.531,0.063 0.351,0 0.672,-0.071 0.953,-0.204 0.277,-0.136 0.547,-0.335 0.797,-0.593 l 1.109,1.078 c -0.367,0.383 -0.777,0.68 -1.234,0.89 -0.449,0.215 -0.977,0.329 -1.578,0.329 -0.375,0 -0.731,-0.055 -1.063,-0.157 -0.336,-0.105 -0.629,-0.257 -0.875,-0.453 -0.25,-0.187 -0.449,-0.426 -0.593,-0.703 -0.149,-0.281 -0.219,-0.601 -0.219,-0.953 0,-0.375 0.054,-0.695 0.172,-0.953 0.121,-0.262 0.289,-0.477 0.5,-0.641 0.214,-0.168 0.472,-0.308 0.765,-0.422 0.301,-0.105 0.629,-0.199 0.985,-0.281 0.363,-0.086 0.656,-0.164 0.875,-0.234 0.226,-0.075 0.398,-0.153 0.515,-0.235 0.121,-0.074 0.207,-0.16 0.25,-0.25 0.039,-0.093 0.063,-0.207 0.063,-0.328 0,-0.293 -0.113,-0.508 -0.328,-0.64 -0.211,-0.125 -0.543,-0.188 -1,-0.188 -0.375,0 -0.731,0.066 -1.063,0.203 -0.336,0.133 -0.637,0.36 -0.906,0.672 l -1.125,-0.984 c 0.301,-0.438 0.711,-0.785 1.234,-1.032 0.528,-0.25 1.117,-0.375 1.766,-0.375 0.527,0 0.984,0.059 1.359,0.172 0.371,0.121 0.688,0.289 0.938,0.5 0.246,0.215 0.429,0.477 0.547,0.782 0.121,0.3 0.187,0.632 0.187,1 z m 6.922,3.859 v 1.516 h -5.953 V 43.27 h 2.203 v -6.188 h 1.547 v 6.188 z m 3.273,-6.188 v 7.704 h -1.546 v -7.704 z m 7.618,6.188 v 1.516 H 148.27 V 43.27 h 2.203 v -6.188 h 1.547 v 6.188 z m 7.808,-2.781 v 4.297 h -1.547 v -4.329 c 0,-0.625 -0.144,-1.117 -0.422,-1.468 -0.281,-0.344 -0.667,-0.516 -1.156,-0.516 -0.492,0 -0.879,0.176 -1.156,0.531 -0.281,0.364 -0.422,0.86 -0.422,1.485 v 4.297 h -1.531 v -4.329 c 0,-0.554 0.07,-1.05 0.219,-1.484 0.152,-0.437 0.367,-0.809 0.64,-1.109 0.27,-0.293 0.598,-0.52 0.985,-0.672 0.382,-0.153 0.804,-0.235 1.265,-0.235 0.977,0 1.742,0.305 2.297,0.922 0.551,0.614 0.828,1.485 0.828,2.61 z m 7.528,2.781 v 1.516 h -5.954 V 43.27 h 2.204 v -6.188 h 1.546 v 6.188 z m 7.132,-6.188 v 1.5 h -3.968 v 1.86 h 2.203 v 1.5 h -2.203 v 1.328 h 3.812 v 1.516 h -5.359 v -7.704 z m 11.368,3.86 c 0,0.621 -0.086,1.18 -0.25,1.672 -0.157,0.488 -0.387,0.898 -0.688,1.234 -0.293,0.34 -0.648,0.602 -1.062,0.781 -0.418,0.184 -0.879,0.282 -1.375,0.282 -0.5,0 -0.965,-0.098 -1.391,-0.282 -0.418,-0.187 -0.777,-0.457 -1.078,-0.797 -0.293,-0.335 -0.524,-0.746 -0.688,-1.234 -0.168,-0.492 -0.25,-1.051 -0.25,-1.672 0,-0.625 0.082,-1.183 0.25,-1.672 0.164,-0.492 0.395,-0.91 0.688,-1.25 0.301,-0.336 0.656,-0.597 1.062,-0.781 0.414,-0.176 0.879,-0.266 1.391,-0.266 0.496,0 0.957,0.09 1.375,0.266 0.414,0.184 0.773,0.453 1.078,0.797 0.301,0.34 0.531,0.758 0.688,1.25 0.164,0.488 0.25,1.047 0.25,1.672 z m -1.579,-0.016 c 0,-0.793 -0.168,-1.398 -0.5,-1.812 -0.324,-0.418 -0.757,-0.625 -1.296,-0.625 -0.543,0 -0.989,0.211 -1.329,0.64 -0.335,0.426 -0.5,1.032 -0.5,1.813 0,0.777 0.161,1.379 0.485,1.797 0.332,0.425 0.769,0.64 1.312,0.64 0.539,0 0.977,-0.215 1.313,-0.64 0.34,-0.43 0.515,-1.035 0.515,-1.813 z m 8.786,2.344 v 1.516 h -5.516 v -7.704 h 1.547 v 3.25 h 2.312 v 1.485 h -2.312 V 43.27 Z M 124.418,30.872 c -0.117,0.246 -0.262,0.476 -0.438,0.687 -0.168,0.207 -0.367,0.383 -0.593,0.531 -0.231,0.153 -0.496,0.274 -0.797,0.36 -0.293,0.089 -0.621,0.14 -0.985,0.14 -0.5,0 -0.964,-0.101 -1.39,-0.297 -0.418,-0.199 -0.777,-0.476 -1.078,-0.828 -0.293,-0.343 -0.528,-0.761 -0.703,-1.25 -0.168,-0.48 -0.25,-1.019 -0.25,-1.609 0,-0.606 0.078,-1.152 0.234,-1.641 0.164,-0.492 0.394,-0.91 0.687,-1.25 0.301,-0.343 0.657,-0.613 1.063,-0.797 0.414,-0.183 0.879,-0.281 1.391,-0.281 0.695,0 1.281,0.149 1.75,0.453 0.464,0.309 0.832,0.739 1.093,1.282 l -1.297,0.781 c -0.21,-0.344 -0.429,-0.598 -0.656,-0.75 -0.219,-0.156 -0.504,-0.235 -0.844,-0.235 -0.293,0 -0.554,0.063 -0.781,0.188 -0.23,0.121 -0.426,0.297 -0.578,0.516 -0.156,0.214 -0.277,0.472 -0.359,0.765 -0.075,0.301 -0.11,0.625 -0.11,0.969 0,0.363 0.035,0.691 0.11,0.984 0.082,0.301 0.203,0.555 0.359,0.766 0.152,0.215 0.344,0.391 0.563,0.516 0.226,0.121 0.488,0.187 0.781,0.187 0.351,0 0.64,-0.074 0.859,-0.219 0.227,-0.148 0.41,-0.355 0.547,-0.625 z m 7.773,-2.25 c 0,0.621 -0.086,1.179 -0.25,1.671 -0.156,0.489 -0.386,0.899 -0.687,1.235 -0.293,0.34 -0.649,0.601 -1.063,0.781 -0.418,0.184 -0.879,0.281 -1.375,0.281 -0.5,0 -0.964,-0.097 -1.39,-0.281 -0.418,-0.187 -0.778,-0.457 -1.078,-0.797 -0.293,-0.336 -0.524,-0.746 -0.688,-1.234 -0.168,-0.492 -0.25,-1.051 -0.25,-1.672 0,-0.625 0.082,-1.184 0.25,-1.672 0.164,-0.492 0.395,-0.91 0.688,-1.25 0.3,-0.336 0.656,-0.598 1.062,-0.781 0.414,-0.176 0.879,-0.266 1.391,-0.266 0.496,0 0.957,0.09 1.375,0.266 0.414,0.183 0.773,0.453 1.078,0.797 0.301,0.339 0.531,0.757 0.687,1.25 0.164,0.488 0.25,1.047 0.25,1.672 z m -1.578,-0.016 c 0,-0.793 -0.168,-1.399 -0.5,-1.813 -0.324,-0.418 -0.758,-0.625 -1.297,-0.625 -0.543,0 -0.988,0.211 -1.328,0.641 -0.336,0.426 -0.5,1.031 -0.5,1.813 0,0.777 0.16,1.378 0.485,1.796 0.332,0.426 0.769,0.641 1.312,0.641 0.539,0 0.977,-0.215 1.313,-0.641 0.34,-0.429 0.515,-1.035 0.515,-1.812 z m 10.469,-3.844 v 7.703 h -1.516 l -1.546,-3.484 c -0.106,-0.219 -0.208,-0.457 -0.297,-0.703 -0.094,-0.25 -0.168,-0.449 -0.219,-0.594 -0.024,0.07 -0.055,0.156 -0.094,0.25 -0.043,0.102 -0.09,0.211 -0.14,0.328 -0.043,0.121 -0.09,0.242 -0.141,0.36 -0.055,0.121 -0.106,0.242 -0.156,0.359 l -1.61,3.484 h -1.484 v -7.703 h 1.516 v 2.828 c 0,0.102 -0.008,0.235 -0.016,0.391 0,0.164 0,0.332 0,0.5 0,0.164 -0.008,0.32 -0.016,0.469 0,0.144 0,0.254 0,0.328 0.059,-0.149 0.141,-0.34 0.235,-0.578 0.101,-0.243 0.207,-0.473 0.312,-0.688 l 1.563,-3.422 1.562,3.422 c 0.102,0.215 0.203,0.445 0.297,0.688 0.102,0.238 0.18,0.429 0.234,0.578 0,-0.074 0,-0.184 0,-0.328 0,-0.149 0,-0.305 0,-0.469 0,-0.168 -0.007,-0.336 -0.015,-0.5 0,-0.156 0,-0.289 0,-0.391 v -2.828 z m 8.176,5.266 c 0,0.402 -0.07,0.758 -0.203,1.062 -0.137,0.301 -0.332,0.555 -0.578,0.766 -0.243,0.207 -0.524,0.359 -0.844,0.453 -0.313,0.102 -0.653,0.156 -1.016,0.156 h -3.375 v -7.703 h 1.547 v 2.735 h 1.688 c 0.394,0 0.765,0.046 1.109,0.14 0.34,0.09 0.641,0.238 0.891,0.438 0.246,0.207 0.441,0.472 0.578,0.797 0.133,0.32 0.203,0.707 0.203,1.156 z m -1.578,-0.047 c 0,-0.668 -0.368,-1 -1.094,-1 h -1.797 v 1.984 h 1.766 c 0.34,0 0.613,-0.082 0.812,-0.234 0.207,-0.156 0.313,-0.41 0.313,-0.75 z m 9.363,-1.813 v 4.297 h -1.547 v -4.328 c 0,-0.625 -0.144,-1.117 -0.422,-1.469 -0.281,-0.343 -0.668,-0.515 -1.156,-0.515 -0.492,0 -0.879,0.176 -1.156,0.531 -0.282,0.363 -0.422,0.859 -0.422,1.484 v 4.297 h -1.531 v -4.328 c 0,-0.555 0.07,-1.051 0.218,-1.484 0.153,-0.438 0.368,-0.809 0.641,-1.11 0.27,-0.293 0.598,-0.519 0.984,-0.671 0.383,-0.153 0.805,-0.235 1.266,-0.235 0.977,0 1.742,0.305 2.297,0.922 0.551,0.613 0.828,1.484 0.828,2.609 z m 7.527,2.782 v 1.515 h -5.953 V 30.95 h 2.203 v -6.188 h 1.547 v 6.188 z m 7.137,-6.188 v 1.5 h -3.969 v 1.86 h 2.203 v 1.5 h -2.203 v 1.328 h 3.813 v 1.515 h -5.36 v -7.703 z m 8.016,0 -1.485,2.985 c 0.489,0.195 0.86,0.476 1.11,0.843 0.246,0.371 0.375,0.852 0.375,1.438 0,0.402 -0.075,0.758 -0.219,1.062 -0.137,0.301 -0.332,0.555 -0.578,0.766 -0.242,0.207 -0.524,0.359 -0.844,0.453 -0.312,0.102 -0.652,0.156 -1.016,0.156 h -3.593 v -7.703 h 1.547 v 2.766 h 1.546 l 1.375,-2.766 z m -1.594,5.219 c 0,-0.668 -0.367,-1 -1.094,-1 h -2.015 v 1.984 h 2.015 c 0.34,0 0.61,-0.082 0.797,-0.234 0.195,-0.149 0.297,-0.399 0.297,-0.75 z m 13.418,-5.219 -2.922,7.703 h -1.5 l -2.953,-7.703 h 1.656 l 0.594,1.719 h 2.828 l 0.594,-1.719 z m -2.828,3.172 h -1.766 l 0.5,1.406 c 0.082,0.227 0.156,0.446 0.219,0.657 0.07,0.214 0.129,0.398 0.172,0.546 0.027,-0.148 0.078,-0.332 0.14,-0.546 0.071,-0.211 0.149,-0.43 0.235,-0.657 z m 10.648,-3.172 v 7.703 h -1.531 V 29.2 c 0,-0.106 0,-0.243 0,-0.407 0.008,-0.156 0.016,-0.32 0.016,-0.484 0,-0.168 0,-0.324 0,-0.469 0.007,-0.136 0.015,-0.242 0.015,-0.312 -0.055,0.101 -0.137,0.234 -0.25,0.39 -0.105,0.164 -0.207,0.321 -0.297,0.469 l -2.718,4.078 h -1.485 v -7.703 h 1.531 v 3.391 c 0,0.101 -0.007,0.234 -0.015,0.39 0,0.164 0,0.332 0,0.5 0,0.164 -0.008,0.321 -0.016,0.469 0,0.145 0,0.254 0,0.328 0.051,-0.105 0.129,-0.242 0.235,-0.406 0.101,-0.168 0.207,-0.324 0.312,-0.469 l 2.828,-4.203 z m 8.356,3.844 c 0,0.707 -0.102,1.305 -0.297,1.797 -0.188,0.488 -0.457,0.883 -0.797,1.187 -0.344,0.309 -0.754,0.535 -1.219,0.672 -0.469,0.133 -0.976,0.203 -1.515,0.203 h -2.422 v -7.703 h 2.297 c 0.496,0 0.984,0.07 1.453,0.219 0.465,0.144 0.89,0.375 1.265,0.687 0.371,0.309 0.672,0.711 0.891,1.204 0.226,0.488 0.344,1.066 0.344,1.734 z m -1.594,0 c 0,-0.344 -0.051,-0.664 -0.141,-0.953 -0.093,-0.293 -0.242,-0.543 -0.437,-0.75 -0.188,-0.199 -0.434,-0.356 -0.735,-0.469 -0.293,-0.117 -0.644,-0.172 -1.046,-0.172 h -0.75 v 4.703 h 0.812 c 0.809,0 1.395,-0.199 1.75,-0.593 0.363,-0.387 0.547,-0.977 0.547,-1.766 z"
         style="fill:#000000;fill-opacity:1;fill-rule:nonzero;stroke:none"
         transform="matrix(1.3333333,0,0,-1.3333333,0,87.677333)"
         clip-path="url(#clipPath45)"
         id="path92" />
      <path
         d="m 120.246,37.082 v 7.704 h -1.547 v -7.704 z m 8.399,0 v 7.704 h -1.532 V 41.52 c 0,-0.106 0,-0.242 0,-0.406 0.008,-0.157 0.016,-0.321 0.016,-0.485 0,-0.168 0,-0.324 0,-0.468 0.008,-0.137 0.016,-0.243 0.016,-0.313 -0.055,0.102 -0.137,0.234 -0.25,0.391 -0.106,0.164 -0.207,0.32 -0.297,0.468 l -2.719,4.079 h -1.484 v -7.704 h 1.531 v 3.391 c 0,0.102 -0.008,0.234 -0.016,0.391 0,0.164 0,0.332 0,0.5 0,0.164 -0.008,0.32 -0.015,0.468 0,0.145 0,0.254 0,0.329 0.05,-0.106 0.128,-0.243 0.234,-0.407 0.101,-0.168 0.207,-0.324 0.312,-0.468 l 2.829,-4.204 z m 7.765,2.329 c 0,0.414 -0.082,0.757 -0.234,1.031 -0.156,0.269 -0.364,0.492 -0.61,0.672 -0.242,0.175 -0.519,0.312 -0.828,0.406 -0.304,0.102 -0.613,0.191 -0.922,0.266 -0.304,0.07 -0.554,0.14 -0.75,0.203 -0.199,0.058 -0.355,0.125 -0.468,0.187 -0.118,0.059 -0.2,0.133 -0.25,0.219 -0.043,0.09 -0.063,0.195 -0.063,0.312 0,0.09 0.016,0.176 0.047,0.25 0.039,0.082 0.102,0.157 0.188,0.219 0.082,0.071 0.191,0.129 0.328,0.172 0.144,0.039 0.32,0.063 0.531,0.063 0.351,0 0.672,-0.071 0.953,-0.204 0.277,-0.136 0.547,-0.335 0.797,-0.593 l 1.109,1.078 c -0.367,0.383 -0.777,0.68 -1.234,0.89 -0.449,0.215 -0.977,0.329 -1.578,0.329 -0.375,0 -0.731,-0.055 -1.063,-0.157 -0.336,-0.105 -0.629,-0.257 -0.875,-0.453 -0.25,-0.187 -0.449,-0.426 -0.593,-0.703 -0.149,-0.281 -0.219,-0.601 -0.219,-0.953 0,-0.375 0.054,-0.695 0.172,-0.953 0.121,-0.262 0.289,-0.477 0.5,-0.641 0.214,-0.168 0.472,-0.308 0.765,-0.422 0.301,-0.105 0.629,-0.199 0.985,-0.281 0.363,-0.086 0.656,-0.164 0.875,-0.234 0.226,-0.075 0.398,-0.153 0.515,-0.235 0.121,-0.074 0.207,-0.16 0.25,-0.25 0.039,-0.093 0.063,-0.207 0.063,-0.328 0,-0.293 -0.113,-0.508 -0.328,-0.64 -0.211,-0.125 -0.543,-0.188 -1,-0.188 -0.375,0 -0.731,0.066 -1.063,0.203 -0.336,0.133 -0.637,0.36 -0.906,0.672 l -1.125,-0.984 c 0.301,-0.438 0.711,-0.785 1.234,-1.032 0.528,-0.25 1.117,-0.375 1.766,-0.375 0.527,0 0.984,0.059 1.359,0.172 0.371,0.121 0.688,0.289 0.938,0.5 0.246,0.215 0.429,0.477 0.547,0.782 0.121,0.3 0.187,0.632 0.187,1 z m 6.922,3.859 v 1.516 h -5.953 V 43.27 h 2.203 v -6.188 h 1.547 v 6.188 z m 3.273,-6.188 v 7.704 h -1.546 v -7.704 z m 7.618,6.188 v 1.516 H 148.27 V 43.27 h 2.203 v -6.188 h 1.547 v 6.188 z m 7.808,-2.781 v 4.297 h -1.547 v -4.329 c 0,-0.625 -0.144,-1.117 -0.422,-1.468 -0.281,-0.344 -0.667,-0.516 -1.156,-0.516 -0.492,0 -0.879,0.176 -1.156,0.531 -0.281,0.364 -0.422,0.86 -0.422,1.485 v 4.297 h -1.531 v -4.329 c 0,-0.554 0.07,-1.05 0.219,-1.484 0.152,-0.437 0.367,-0.809 0.64,-1.109 0.27,-0.293 0.598,-0.52 0.985,-0.672 0.382,-0.153 0.804,-0.235 1.265,-0.235 0.977,0 1.742,0.305 2.297,0.922 0.551,0.614 0.828,1.485 0.828,2.61 z m 7.528,2.781 v 1.516 h -5.954 V 43.27 h 2.204 v -6.188 h 1.546 v 6.188 z m 7.132,-6.188 v 1.5 h -3.968 v 1.86 h 2.203 v 1.5 h -2.203 v 1.328 h 3.812 v 1.516 h -5.359 v -7.704 z m 11.368,3.86 c 0,0.621 -0.086,1.18 -0.25,1.672 -0.157,0.488 -0.387,0.898 -0.688,1.234 -0.293,0.34 -0.648,0.602 -1.062,0.781 -0.418,0.184 -0.879,0.282 -1.375,0.282 -0.5,0 -0.965,-0.098 -1.391,-0.282 -0.418,-0.187 -0.777,-0.457 -1.078,-0.797 -0.293,-0.335 -0.524,-0.746 -0.688,-1.234 -0.168,-0.492 -0.25,-1.051 -0.25,-1.672 0,-0.625 0.082,-1.183 0.25,-1.672 0.164,-0.492 0.395,-0.91 0.688,-1.25 0.301,-0.336 0.656,-0.597 1.062,-0.781 0.414,-0.176 0.879,-0.266 1.391,-0.266 0.496,0 0.957,0.09 1.375,0.266 0.414,0.184 0.773,0.453 1.078,0.797 0.301,0.34 0.531,0.758 0.688,1.25 0.164,0.488 0.25,1.047 0.25,1.672 z m -1.579,-0.016 c 0,-0.793 -0.168,-1.398 -0.5,-1.812 -0.324,-0.418 -0.757,-0.625 -1.296,-0.625 -0.543,0 -0.989,0.211 -1.329,0.64 -0.335,0.426 -0.5,1.032 -0.5,1.813 0,0.777 0.161,1.379 0.485,1.797 0.332,0.425 0.769,0.64 1.312,0.64 0.539,0 0.977,-0.215 1.313,-0.64 0.34,-0.43 0.515,-1.035 0.515,-1.813 z m 8.786,2.344 v 1.516 h -5.516 v -7.704 h 1.547 v 3.25 h 2.312 v 1.485 h -2.312 V 43.27 Z M 124.418,30.872 c -0.117,0.246 -0.262,0.476 -0.438,0.687 -0.168,0.207 -0.367,0.383 -0.593,0.531 -0.231,0.153 -0.496,0.274 -0.797,0.36 -0.293,0.089 -0.621,0.14 -0.985,0.14 -0.5,0 -0.964,-0.101 -1.39,-0.297 -0.418,-0.199 -0.777,-0.476 -1.078,-0.828 -0.293,-0.343 -0.528,-0.761 -0.703,-1.25 -0.168,-0.48 -0.25,-1.019 -0.25,-1.609 0,-0.606 0.078,-1.152 0.234,-1.641 0.164,-0.492 0.394,-0.91 0.687,-1.25 0.301,-0.343 0.657,-0.613 1.063,-0.797 0.414,-0.183 0.879,-0.281 1.391,-0.281 0.695,0 1.281,0.149 1.75,0.453 0.464,0.309 0.832,0.739 1.093,1.282 l -1.297,0.781 c -0.21,-0.344 -0.429,-0.598 -0.656,-0.75 -0.219,-0.156 -0.504,-0.235 -0.844,-0.235 -0.293,0 -0.554,0.063 -0.781,0.188 -0.23,0.121 -0.426,0.297 -0.578,0.516 -0.156,0.214 -0.277,0.472 -0.359,0.765 -0.075,0.301 -0.11,0.625 -0.11,0.969 0,0.363 0.035,0.691 0.11,0.984 0.082,0.301 0.203,0.555 0.359,0.766 0.152,0.215 0.344,0.391 0.563,0.516 0.226,0.121 0.488,0.187 0.781,0.187 0.351,0 0.64,-0.074 0.859,-0.219 0.227,-0.148 0.41,-0.355 0.547,-0.625 z m 7.773,-2.25 c 0,0.621 -0.086,1.179 -0.25,1.671 -0.156,0.489 -0.386,0.899 -0.687,1.235 -0.293,0.34 -0.649,0.601 -1.063,0.781 -0.418,0.184 -0.879,0.281 -1.375,0.281 -0.5,0 -0.964,-0.097 -1.39,-0.281 -0.418,-0.187 -0.778,-0.457 -1.078,-0.797 -0.293,-0.336 -0.524,-0.746 -0.688,-1.234 -0.168,-0.492 -0.25,-1.051 -0.25,-1.672 0,-0.625 0.082,-1.184 0.25,-1.672 0.164,-0.492 0.395,-0.91 0.688,-1.25 0.3,-0.336 0.656,-0.598 1.062,-0.781 0.414,-0.176 0.879,-0.266 1.391,-0.266 0.496,0 0.957,0.09 1.375,0.266 0.414,0.183 0.773,0.453 1.078,0.797 0.301,0.339 0.531,0.757 0.687,1.25 0.164,0.488 0.25,1.047 0.25,1.672 z m -1.578,-0.016 c 0,-0.793 -0.168,-1.399 -0.5,-1.813 -0.324,-0.418 -0.758,-0.625 -1.297,-0.625 -0.543,0 -0.988,0.211 -1.328,0.641 -0.336,0.426 -0.5,1.031 -0.5,1.813 0,0.777 0.16,1.378 0.485,1.796 0.332,0.426 0.769,0.641 1.312,0.641 0.539,0 0.977,-0.215 1.313,-0.641 0.34,-0.429 0.515,-1.035 0.515,-1.812 z m 10.469,-3.844 v 7.703 h -1.516 l -1.546,-3.484 c -0.106,-0.219 -0.208,-0.457 -0.297,-0.703 -0.094,-0.25 -0.168,-0.449 -0.219,-0.594 -0.024,0.07 -0.055,0.156 -0.094,0.25 -0.043,0.102 -0.09,0.211 -0.14,0.328 -0.043,0.121 -0.09,0.242 -0.141,0.36 -0.055,0.121 -0.106,0.242 -0.156,0.359 l -1.61,3.484 h -1.484 v -7.703 h 1.516 v 2.828 c 0,0.102 -0.008,0.235 -0.016,0.391 0,0.164 0,0.332 0,0.5 0,0.164 -0.008,0.32 -0.016,0.469 0,0.144 0,0.254 0,0.328 0.059,-0.149 0.141,-0.34 0.235,-0.578 0.101,-0.243 0.207,-0.473 0.312,-0.688 l 1.563,-3.422 1.562,3.422 c 0.102,0.215 0.203,0.445 0.297,0.688 0.102,0.238 0.18,0.429 0.234,0.578 0,-0.074 0,-0.184 0,-0.328 0,-0.149 0,-0.305 0,-0.469 0,-0.168 -0.007,-0.336 -0.015,-0.5 0,-0.156 0,-0.289 0,-0.391 v -2.828 z m 8.176,5.266 c 0,0.402 -0.07,0.758 -0.203,1.062 -0.137,0.301 -0.332,0.555 -0.578,0.766 -0.243,0.207 -0.524,0.359 -0.844,0.453 -0.313,0.102 -0.653,0.156 -1.016,0.156 h -3.375 v -7.703 h 1.547 v 2.735 h 1.688 c 0.394,0 0.765,0.046 1.109,0.14 0.34,0.09 0.641,0.238 0.891,0.438 0.246,0.207 0.441,0.472 0.578,0.797 0.133,0.32 0.203,0.707 0.203,1.156 z m -1.578,-0.047 c 0,-0.668 -0.368,-1 -1.094,-1 h -1.797 v 1.984 h 1.766 c 0.34,0 0.613,-0.082 0.812,-0.234 0.207,-0.156 0.313,-0.41 0.313,-0.75 z m 9.363,-1.813 v 4.297 h -1.547 v -4.328 c 0,-0.625 -0.144,-1.117 -0.422,-1.469 -0.281,-0.343 -0.668,-0.515 -1.156,-0.515 -0.492,0 -0.879,0.176 -1.156,0.531 -0.282,0.363 -0.422,0.859 -0.422,1.484 v 4.297 h -1.531 v -4.328 c 0,-0.555 0.07,-1.051 0.218,-1.484 0.153,-0.438 0.368,-0.809 0.641,-1.11 0.27,-0.293 0.598,-0.519 0.984,-0.671 0.383,-0.153 0.805,-0.235 1.266,-0.235 0.977,0 1.742,0.305 2.297,0.922 0.551,0.613 0.828,1.484 0.828,2.609 z m 7.527,2.782 v 1.515 h -5.953 V 30.95 h 2.203 v -6.188 h 1.547 v 6.188 z m 7.137,-6.188 v 1.5 h -3.969 v 1.86 h 2.203 v 1.5 h -2.203 v 1.328 h 3.813 v 1.515 h -5.36 v -7.703 z m 8.016,0 -1.485,2.985 c 0.489,0.195 0.86,0.476 1.11,0.843 0.246,0.371 0.375,0.852 0.375,1.438 0,0.402 -0.075,0.758 -0.219,1.062 -0.137,0.301 -0.332,0.555 -0.578,0.766 -0.242,0.207 -0.524,0.359 -0.844,0.453 -0.312,0.102 -0.652,0.156 -1.016,0.156 h -3.593 v -7.703 h 1.547 v 2.766 h 1.546 l 1.375,-2.766 z m -1.594,5.219 c 0,-0.668 -0.367,-1 -1.094,-1 h -2.015 v 1.984 h 2.015 c 0.34,0 0.61,-0.082 0.797,-0.234 0.195,-0.149 0.297,-0.399 0.297,-0.75 z m 13.418,-5.219 -2.922,7.703 h -1.5 l -2.953,-7.703 h 1.656 l 0.594,1.719 h 2.828 l 0.594,-1.719 z m -2.828,3.172 h -1.766 l 0.5,1.406 c 0.082,0.227 0.156,0.446 0.219,0.657 0.07,0.214 0.129,0.398 0.172,0.546 0.027,-0.148 0.078,-0.332 0.14,-0.546 0.071,-0.211 0.149,-0.43 0.235,-0.657 z m 10.648,-3.172 v 7.703 h -1.531 V 29.2 c 0,-0.106 0,-0.243 0,-0.407 0.008,-0.156 0.016,-0.32 0.016,-0.484 0,-0.168 0,-0.324 0,-0.469 0.007,-0.136 0.015,-0.242 0.015,-0.312 -0.055,0.101 -0.137,0.234 -0.25,0.39 -0.105,0.164 -0.207,0.321 -0.297,0.469 l -2.718,4.078 h -1.485 v -7.703 h 1.531 v 3.391 c 0,0.101 -0.007,0.234 -0.015,0.39 0,0.164 0,0.332 0,0.5 0,0.164 -0.008,0.321 -0.016,0.469 0,0.145 0,0.254 0,0.328 0.051,-0.105 0.129,-0.242 0.235,-0.406 0.101,-0.168 0.207,-0.324 0.312,-0.469 l 2.828,-4.203 z m 8.356,3.844 c 0,0.707 -0.102,1.305 -0.297,1.797 -0.188,0.488 -0.457,0.883 -0.797,1.187 -0.344,0.309 -0.754,0.535 -1.219,0.672 -0.469,0.133 -0.976,0.203 -1.515,0.203 h -2.422 v -7.703 h 2.297 c 0.496,0 0.984,0.07 1.453,0.219 0.465,0.144 0.89,0.375 1.265,0.687 0.371,0.309 0.672,0.711 0.891,1.204 0.226,0.488 0.344,1.066 0.344,1.734 z m -1.594,0 c 0,-0.344 -0.051,-0.664 -0.141,-0.953 -0.093,-0.293 -0.242,-0.543 -0.437,-0.75 -0.188,-0.199 -0.434,-0.356 -0.735,-0.469 -0.293,-0.117 -0.644,-0.172 -1.046,-0.172 h -0.75 v 4.703 h 0.812 c 0.809,0 1.395,-0.199 1.75,-0.593 0.363,-0.387 0.547,-0.977 0.547,-1.766 z M 124.84,12.442 v 7.703 h -1.531 v -3.266 c 0,-0.105 0,-0.242 0,-0.406 0.007,-0.156 0.015,-0.32 0.015,-0.484 0,-0.168 0,-0.325 0,-0.469 0.008,-0.137 0.016,-0.242 0.016,-0.313 -0.055,0.102 -0.137,0.235 -0.25,0.391 -0.106,0.164 -0.207,0.32 -0.297,0.469 l -2.719,4.078 h -1.484 v -7.703 h 1.531 v 3.39 c 0,0.102 -0.008,0.235 -0.016,0.391 0,0.164 0,0.332 0,0.5 0,0.164 -0.007,0.32 -0.015,0.469 0,0.144 0,0.254 0,0.328 0.051,-0.106 0.129,-0.242 0.234,-0.406 0.102,-0.168 0.207,-0.325 0.313,-0.469 l 2.828,-4.203 z m 7.621,0 v 1.5 h -3.969 v 1.859 h 2.203 v 1.5 h -2.203 v 1.328 h 3.813 v 1.516 h -5.36 v -7.703 z m 7.238,6.187 v 1.516 h -5.953 v -1.516 h 2.203 v -6.187 h 1.547 v 6.187 z m 9.774,1.516 h -1.578 l -0.672,-3.75 c -0.043,-0.188 -0.086,-0.41 -0.125,-0.656 -0.032,-0.25 -0.055,-0.457 -0.063,-0.61 -0.031,0.153 -0.074,0.352 -0.125,0.594 -0.055,0.246 -0.101,0.473 -0.14,0.672 l -0.922,3.75 h -1.328 l -0.907,-3.75 c -0.043,-0.199 -0.09,-0.426 -0.14,-0.672 -0.055,-0.242 -0.098,-0.441 -0.125,-0.594 -0.024,0.153 -0.055,0.352 -0.094,0.594 -0.031,0.246 -0.066,0.473 -0.094,0.672 l -0.672,3.75 h -1.609 l 1.609,-7.703 h 1.438 l 0.969,3.953 c 0.058,0.227 0.113,0.469 0.156,0.719 0.051,0.258 0.082,0.461 0.094,0.609 0.019,-0.148 0.054,-0.348 0.109,-0.594 0.051,-0.25 0.101,-0.496 0.156,-0.734 l 0.953,-3.953 h 1.5 z m 7.851,-3.844 c 0,0.621 -0.086,1.18 -0.25,1.672 -0.156,0.488 -0.386,0.899 -0.687,1.234 -0.293,0.34 -0.649,0.602 -1.063,0.782 -0.418,0.183 -0.879,0.281 -1.375,0.281 -0.5,0 -0.965,-0.098 -1.39,-0.281 -0.418,-0.188 -0.778,-0.457 -1.079,-0.797 -0.292,-0.336 -0.523,-0.746 -0.687,-1.235 -0.168,-0.492 -0.25,-1.05 -0.25,-1.671 0,-0.625 0.082,-1.184 0.25,-1.672 0.164,-0.492 0.395,-0.91 0.687,-1.25 0.301,-0.336 0.657,-0.598 1.063,-0.782 0.414,-0.175 0.879,-0.265 1.391,-0.265 0.496,0 0.957,0.09 1.375,0.265 0.414,0.184 0.773,0.454 1.078,0.797 0.301,0.34 0.531,0.758 0.687,1.25 0.164,0.489 0.25,1.047 0.25,1.672 z m -1.578,-0.015 c 0,-0.793 -0.168,-1.399 -0.5,-1.813 -0.324,-0.418 -0.758,-0.625 -1.297,-0.625 -0.543,0 -0.988,0.211 -1.328,0.641 -0.336,0.425 -0.5,1.031 -0.5,1.812 0,0.778 0.16,1.379 0.484,1.797 0.333,0.426 0.77,0.641 1.313,0.641 0.539,0 0.977,-0.215 1.312,-0.641 0.34,-0.43 0.516,-1.035 0.516,-1.812 z m 9.52,-3.844 -1.485,2.984 c 0.489,0.196 0.86,0.477 1.11,0.844 0.246,0.371 0.375,0.852 0.375,1.437 0,0.403 -0.075,0.758 -0.219,1.063 -0.137,0.301 -0.332,0.555 -0.578,0.766 -0.242,0.207 -0.524,0.359 -0.844,0.453 -0.313,0.101 -0.652,0.156 -1.016,0.156 h -3.593 v -7.703 h 1.546 v 2.765 h 1.547 l 1.375,-2.765 z m -1.594,5.219 c 0,-0.668 -0.367,-1 -1.094,-1 h -2.016 v 1.984 h 2.016 c 0.34,0 0.61,-0.082 0.797,-0.234 0.195,-0.149 0.297,-0.399 0.297,-0.75 z m 10.066,-5.219 -2.828,5.031 2.25,2.672 h -1.859 l -2.156,-2.625 c -0.055,-0.074 -0.114,-0.148 -0.172,-0.219 -0.055,-0.062 -0.114,-0.133 -0.172,-0.203 -0.055,-0.074 -0.106,-0.144 -0.156,-0.203 -0.043,-0.063 -0.075,-0.117 -0.094,-0.156 0,0.05 0,0.129 0,0.234 0,0.113 0,0.227 0,0.344 0.008,0.121 0.015,0.238 0.015,0.344 0,0.121 0,0.222 0,0.296 v 2.188 h -1.546 v -7.703 h 1.546 v 2.265 l 1.235,1.454 2.094,-3.719 z"
         style="fill:#000000;fill-opacity:1;fill-rule:nonzero;stroke:none"
         transform="matrix(1.3333333,0,0,-1.3333333,0,87.677333)"
         clip-path="url(#clipPath46)"
         id="path93" />
      <path
         d="m 120.246,37.082 v 7.704 h -1.547 v -7.704 z m 8.399,0 v 7.704 h -1.532 V 41.52 c 0,-0.106 0,-0.242 0,-0.406 0.008,-0.157 0.016,-0.321 0.016,-0.485 0,-0.168 0,-0.324 0,-0.468 0.008,-0.137 0.016,-0.243 0.016,-0.313 -0.055,0.102 -0.137,0.234 -0.25,0.391 -0.106,0.164 -0.207,0.32 -0.297,0.468 l -2.719,4.079 h -1.484 v -7.704 h 1.531 v 3.391 c 0,0.102 -0.008,0.234 -0.016,0.391 0,0.164 0,0.332 0,0.5 0,0.164 -0.008,0.32 -0.015,0.468 0,0.145 0,0.254 0,0.329 0.05,-0.106 0.128,-0.243 0.234,-0.407 0.101,-0.168 0.207,-0.324 0.312,-0.468 l 2.829,-4.204 z m 7.765,2.329 c 0,0.414 -0.082,0.757 -0.234,1.031 -0.156,0.269 -0.364,0.492 -0.61,0.672 -0.242,0.175 -0.519,0.312 -0.828,0.406 -0.304,0.102 -0.613,0.191 -0.922,0.266 -0.304,0.07 -0.554,0.14 -0.75,0.203 -0.199,0.058 -0.355,0.125 -0.468,0.187 -0.118,0.059 -0.2,0.133 -0.25,0.219 -0.043,0.09 -0.063,0.195 -0.063,0.312 0,0.09 0.016,0.176 0.047,0.25 0.039,0.082 0.102,0.157 0.188,0.219 0.082,0.071 0.191,0.129 0.328,0.172 0.144,0.039 0.32,0.063 0.531,0.063 0.351,0 0.672,-0.071 0.953,-0.204 0.277,-0.136 0.547,-0.335 0.797,-0.593 l 1.109,1.078 c -0.367,0.383 -0.777,0.68 -1.234,0.89 -0.449,0.215 -0.977,0.329 -1.578,0.329 -0.375,0 -0.731,-0.055 -1.063,-0.157 -0.336,-0.105 -0.629,-0.257 -0.875,-0.453 -0.25,-0.187 -0.449,-0.426 -0.593,-0.703 -0.149,-0.281 -0.219,-0.601 -0.219,-0.953 0,-0.375 0.054,-0.695 0.172,-0.953 0.121,-0.262 0.289,-0.477 0.5,-0.641 0.214,-0.168 0.472,-0.308 0.765,-0.422 0.301,-0.105 0.629,-0.199 0.985,-0.281 0.363,-0.086 0.656,-0.164 0.875,-0.234 0.226,-0.075 0.398,-0.153 0.515,-0.235 0.121,-0.074 0.207,-0.16 0.25,-0.25 0.039,-0.093 0.063,-0.207 0.063,-0.328 0,-0.293 -0.113,-0.508 -0.328,-0.64 -0.211,-0.125 -0.543,-0.188 -1,-0.188 -0.375,0 -0.731,0.066 -1.063,0.203 -0.336,0.133 -0.637,0.36 -0.906,0.672 l -1.125,-0.984 c 0.301,-0.438 0.711,-0.785 1.234,-1.032 0.528,-0.25 1.117,-0.375 1.766,-0.375 0.527,0 0.984,0.059 1.359,0.172 0.371,0.121 0.688,0.289 0.938,0.5 0.246,0.215 0.429,0.477 0.547,0.782 0.121,0.3 0.187,0.632 0.187,1 z m 6.922,3.859 v 1.516 h -5.953 V 43.27 h 2.203 v -6.188 h 1.547 v 6.188 z m 3.273,-6.188 v 7.704 h -1.546 v -7.704 z m 7.618,6.188 v 1.516 H 148.27 V 43.27 h 2.203 v -6.188 h 1.547 v 6.188 z m 7.808,-2.781 v 4.297 h -1.547 v -4.329 c 0,-0.625 -0.144,-1.117 -0.422,-1.468 -0.281,-0.344 -0.667,-0.516 -1.156,-0.516 -0.492,0 -0.879,0.176 -1.156,0.531 -0.281,0.364 -0.422,0.86 -0.422,1.485 v 4.297 h -1.531 v -4.329 c 0,-0.554 0.07,-1.05 0.219,-1.484 0.152,-0.437 0.367,-0.809 0.64,-1.109 0.27,-0.293 0.598,-0.52 0.985,-0.672 0.382,-0.153 0.804,-0.235 1.265,-0.235 0.977,0 1.742,0.305 2.297,0.922 0.551,0.614 0.828,1.485 0.828,2.61 z m 7.528,2.781 v 1.516 h -5.954 V 43.27 h 2.204 v -6.188 h 1.546 v 6.188 z m 7.132,-6.188 v 1.5 h -3.968 v 1.86 h 2.203 v 1.5 h -2.203 v 1.328 h 3.812 v 1.516 h -5.359 v -7.704 z m 11.368,3.86 c 0,0.621 -0.086,1.18 -0.25,1.672 -0.157,0.488 -0.387,0.898 -0.688,1.234 -0.293,0.34 -0.648,0.602 -1.062,0.781 -0.418,0.184 -0.879,0.282 -1.375,0.282 -0.5,0 -0.965,-0.098 -1.391,-0.282 -0.418,-0.187 -0.777,-0.457 -1.078,-0.797 -0.293,-0.335 -0.524,-0.746 -0.688,-1.234 -0.168,-0.492 -0.25,-1.051 -0.25,-1.672 0,-0.625 0.082,-1.183 0.25,-1.672 0.164,-0.492 0.395,-0.91 0.688,-1.25 0.301,-0.336 0.656,-0.597 1.062,-0.781 0.414,-0.176 0.879,-0.266 1.391,-0.266 0.496,0 0.957,0.09 1.375,0.266 0.414,0.184 0.773,0.453 1.078,0.797 0.301,0.34 0.531,0.758 0.688,1.25 0.164,0.488 0.25,1.047 0.25,1.672 z m -1.579,-0.016 c 0,-0.793 -0.168,-1.398 -0.5,-1.812 -0.324,-0.418 -0.757,-0.625 -1.296,-0.625 -0.543,0 -0.989,0.211 -1.329,0.64 -0.335,0.426 -0.5,1.032 -0.5,1.813 0,0.777 0.161,1.379 0.485,1.797 0.332,0.425 0.769,0.64 1.312,0.64 0.539,0 0.977,-0.215 1.313,-0.64 0.34,-0.43 0.515,-1.035 0.515,-1.813 z m 8.786,2.344 v 1.516 h -5.516 v -7.704 h 1.547 v 3.25 h 2.312 v 1.485 h -2.312 V 43.27 Z M 124.418,30.872 c -0.117,0.246 -0.262,0.476 -0.438,0.687 -0.168,0.207 -0.367,0.383 -0.593,0.531 -0.231,0.153 -0.496,0.274 -0.797,0.36 -0.293,0.089 -0.621,0.14 -0.985,0.14 -0.5,0 -0.964,-0.101 -1.39,-0.297 -0.418,-0.199 -0.777,-0.476 -1.078,-0.828 -0.293,-0.343 -0.528,-0.761 -0.703,-1.25 -0.168,-0.48 -0.25,-1.019 -0.25,-1.609 0,-0.606 0.078,-1.152 0.234,-1.641 0.164,-0.492 0.394,-0.91 0.687,-1.25 0.301,-0.343 0.657,-0.613 1.063,-0.797 0.414,-0.183 0.879,-0.281 1.391,-0.281 0.695,0 1.281,0.149 1.75,0.453 0.464,0.309 0.832,0.739 1.093,1.282 l -1.297,0.781 c -0.21,-0.344 -0.429,-0.598 -0.656,-0.75 -0.219,-0.156 -0.504,-0.235 -0.844,-0.235 -0.293,0 -0.554,0.063 -0.781,0.188 -0.23,0.121 -0.426,0.297 -0.578,0.516 -0.156,0.214 -0.277,0.472 -0.359,0.765 -0.075,0.301 -0.11,0.625 -0.11,0.969 0,0.363 0.035,0.691 0.11,0.984 0.082,0.301 0.203,0.555 0.359,0.766 0.152,0.215 0.344,0.391 0.563,0.516 0.226,0.121 0.488,0.187 0.781,0.187 0.351,0 0.64,-0.074 0.859,-0.219 0.227,-0.148 0.41,-0.355 0.547,-0.625 z m 7.773,-2.25 c 0,0.621 -0.086,1.179 -0.25,1.671 -0.156,0.489 -0.386,0.899 -0.687,1.235 -0.293,0.34 -0.649,0.601 -1.063,0.781 -0.418,0.184 -0.879,0.281 -1.375,0.281 -0.5,0 -0.964,-0.097 -1.39,-0.281 -0.418,-0.187 -0.778,-0.457 -1.078,-0.797 -0.293,-0.336 -0.524,-0.746 -0.688,-1.234 -0.168,-0.492 -0.25,-1.051 -0.25,-1.672 0,-0.625 0.082,-1.184 0.25,-1.672 0.164,-0.492 0.395,-0.91 0.688,-1.25 0.3,-0.336 0.656,-0.598 1.062,-0.781 0.414,-0.176 0.879,-0.266 1.391,-0.266 0.496,0 0.957,0.09 1.375,0.266 0.414,0.183 0.773,0.453 1.078,0.797 0.301,0.339 0.531,0.757 0.687,1.25 0.164,0.488 0.25,1.047 0.25,1.672 z m -1.578,-0.016 c 0,-0.793 -0.168,-1.399 -0.5,-1.813 -0.324,-0.418 -0.758,-0.625 -1.297,-0.625 -0.543,0 -0.988,0.211 -1.328,0.641 -0.336,0.426 -0.5,1.031 -0.5,1.813 0,0.777 0.16,1.378 0.485,1.796 0.332,0.426 0.769,0.641 1.312,0.641 0.539,0 0.977,-0.215 1.313,-0.641 0.34,-0.429 0.515,-1.035 0.515,-1.812 z m 10.469,-3.844 v 7.703 h -1.516 l -1.546,-3.484 c -0.106,-0.219 -0.208,-0.457 -0.297,-0.703 -0.094,-0.25 -0.168,-0.449 -0.219,-0.594 -0.024,0.07 -0.055,0.156 -0.094,0.25 -0.043,0.102 -0.09,0.211 -0.14,0.328 -0.043,0.121 -0.09,0.242 -0.141,0.36 -0.055,0.121 -0.106,0.242 -0.156,0.359 l -1.61,3.484 h -1.484 v -7.703 h 1.516 v 2.828 c 0,0.102 -0.008,0.235 -0.016,0.391 0,0.164 0,0.332 0,0.5 0,0.164 -0.008,0.32 -0.016,0.469 0,0.144 0,0.254 0,0.328 0.059,-0.149 0.141,-0.34 0.235,-0.578 0.101,-0.243 0.207,-0.473 0.312,-0.688 l 1.563,-3.422 1.562,3.422 c 0.102,0.215 0.203,0.445 0.297,0.688 0.102,0.238 0.18,0.429 0.234,0.578 0,-0.074 0,-0.184 0,-0.328 0,-0.149 0,-0.305 0,-0.469 0,-0.168 -0.007,-0.336 -0.015,-0.5 0,-0.156 0,-0.289 0,-0.391 v -2.828 z m 8.176,5.266 c 0,0.402 -0.07,0.758 -0.203,1.062 -0.137,0.301 -0.332,0.555 -0.578,0.766 -0.243,0.207 -0.524,0.359 -0.844,0.453 -0.313,0.102 -0.653,0.156 -1.016,0.156 h -3.375 v -7.703 h 1.547 v 2.735 h 1.688 c 0.394,0 0.765,0.046 1.109,0.14 0.34,0.09 0.641,0.238 0.891,0.438 0.246,0.207 0.441,0.472 0.578,0.797 0.133,0.32 0.203,0.707 0.203,1.156 z m -1.578,-0.047 c 0,-0.668 -0.368,-1 -1.094,-1 h -1.797 v 1.984 h 1.766 c 0.34,0 0.613,-0.082 0.812,-0.234 0.207,-0.156 0.313,-0.41 0.313,-0.75 z m 9.363,-1.813 v 4.297 h -1.547 v -4.328 c 0,-0.625 -0.144,-1.117 -0.422,-1.469 -0.281,-0.343 -0.668,-0.515 -1.156,-0.515 -0.492,0 -0.879,0.176 -1.156,0.531 -0.282,0.363 -0.422,0.859 -0.422,1.484 v 4.297 h -1.531 v -4.328 c 0,-0.555 0.07,-1.051 0.218,-1.484 0.153,-0.438 0.368,-0.809 0.641,-1.11 0.27,-0.293 0.598,-0.519 0.984,-0.671 0.383,-0.153 0.805,-0.235 1.266,-0.235 0.977,0 1.742,0.305 2.297,0.922 0.551,0.613 0.828,1.484 0.828,2.609 z m 7.527,2.782 v 1.515 h -5.953 V 30.95 h 2.203 v -6.188 h 1.547 v 6.188 z m 7.137,-6.188 v 1.5 h -3.969 v 1.86 h 2.203 v 1.5 h -2.203 v 1.328 h 3.813 v 1.515 h -5.36 v -7.703 z m 8.016,0 -1.485,2.985 c 0.489,0.195 0.86,0.476 1.11,0.843 0.246,0.371 0.375,0.852 0.375,1.438 0,0.402 -0.075,0.758 -0.219,1.062 -0.137,0.301 -0.332,0.555 -0.578,0.766 -0.242,0.207 -0.524,0.359 -0.844,0.453 -0.312,0.102 -0.652,0.156 -1.016,0.156 h -3.593 v -7.703 h 1.547 v 2.766 h 1.546 l 1.375,-2.766 z m -1.594,5.219 c 0,-0.668 -0.367,-1 -1.094,-1 h -2.015 v 1.984 h 2.015 c 0.34,0 0.61,-0.082 0.797,-0.234 0.195,-0.149 0.297,-0.399 0.297,-0.75 z m 13.418,-5.219 -2.922,7.703 h -1.5 l -2.953,-7.703 h 1.656 l 0.594,1.719 h 2.828 l 0.594,-1.719 z m -2.828,3.172 h -1.766 l 0.5,1.406 c 0.082,0.227 0.156,0.446 0.219,0.657 0.07,0.214 0.129,0.398 0.172,0.546 0.027,-0.148 0.078,-0.332 0.14,-0.546 0.071,-0.211 0.149,-0.43 0.235,-0.657 z m 10.648,-3.172 v 7.703 h -1.531 V 29.2 c 0,-0.106 0,-0.243 0,-0.407 0.008,-0.156 0.016,-0.32 0.016,-0.484 0,-0.168 0,-0.324 0,-0.469 0.007,-0.136 0.015,-0.242 0.015,-0.312 -0.055,0.101 -0.137,0.234 -0.25,0.39 -0.105,0.164 -0.207,0.321 -0.297,0.469 l -2.718,4.078 h -1.485 v -7.703 h 1.531 v 3.391 c 0,0.101 -0.007,0.234 -0.015,0.39 0,0.164 0,0.332 0,0.5 0,0.164 -0.008,0.321 -0.016,0.469 0,0.145 0,0.254 0,0.328 0.051,-0.105 0.129,-0.242 0.235,-0.406 0.101,-0.168 0.207,-0.324 0.312,-0.469 l 2.828,-4.203 z m 8.356,3.844 c 0,0.707 -0.102,1.305 -0.297,1.797 -0.188,0.488 -0.457,0.883 -0.797,1.187 -0.344,0.309 -0.754,0.535 -1.219,0.672 -0.469,0.133 -0.976,0.203 -1.515,0.203 h -2.422 v -7.703 h 2.297 c 0.496,0 0.984,0.07 1.453,0.219 0.465,0.144 0.89,0.375 1.265,0.687 0.371,0.309 0.672,0.711 0.891,1.204 0.226,0.488 0.344,1.066 0.344,1.734 z m -1.594,0 c 0,-0.344 -0.051,-0.664 -0.141,-0.953 -0.093,-0.293 -0.242,-0.543 -0.437,-0.75 -0.188,-0.199 -0.434,-0.356 -0.735,-0.469 -0.293,-0.117 -0.644,-0.172 -1.046,-0.172 h -0.75 v 4.703 h 0.812 c 0.809,0 1.395,-0.199 1.75,-0.593 0.363,-0.387 0.547,-0.977 0.547,-1.766 z M 124.84,12.442 v 7.703 h -1.531 v -3.266 c 0,-0.105 0,-0.242 0,-0.406 0.007,-0.156 0.015,-0.32 0.015,-0.484 0,-0.168 0,-0.325 0,-0.469 0.008,-0.137 0.016,-0.242 0.016,-0.313 -0.055,0.102 -0.137,0.235 -0.25,0.391 -0.106,0.164 -0.207,0.32 -0.297,0.469 l -2.719,4.078 h -1.484 v -7.703 h 1.531 v 3.39 c 0,0.102 -0.008,0.235 -0.016,0.391 0,0.164 0,0.332 0,0.5 0,0.164 -0.007,0.32 -0.015,0.469 0,0.144 0,0.254 0,0.328 0.051,-0.106 0.129,-0.242 0.234,-0.406 0.102,-0.168 0.207,-0.325 0.313,-0.469 l 2.828,-4.203 z m 7.621,0 v 1.5 h -3.969 v 1.859 h 2.203 v 1.5 h -2.203 v 1.328 h 3.813 v 1.516 h -5.36 v -7.703 z m 7.238,6.187 v 1.516 h -5.953 v -1.516 h 2.203 v -6.187 h 1.547 v 6.187 z m 9.774,1.516 h -1.578 l -0.672,-3.75 c -0.043,-0.188 -0.086,-0.41 -0.125,-0.656 -0.032,-0.25 -0.055,-0.457 -0.063,-0.61 -0.031,0.153 -0.074,0.352 -0.125,0.594 -0.055,0.246 -0.101,0.473 -0.14,0.672 l -0.922,3.75 h -1.328 l -0.907,-3.75 c -0.043,-0.199 -0.09,-0.426 -0.14,-0.672 -0.055,-0.242 -0.098,-0.441 -0.125,-0.594 -0.024,0.153 -0.055,0.352 -0.094,0.594 -0.031,0.246 -0.066,0.473 -0.094,0.672 l -0.672,3.75 h -1.609 l 1.609,-7.703 h 1.438 l 0.969,3.953 c 0.058,0.227 0.113,0.469 0.156,0.719 0.051,0.258 0.082,0.461 0.094,0.609 0.019,-0.148 0.054,-0.348 0.109,-0.594 0.051,-0.25 0.101,-0.496 0.156,-0.734 l 0.953,-3.953 h 1.5 z m 7.851,-3.844 c 0,0.621 -0.086,1.18 -0.25,1.672 -0.156,0.488 -0.386,0.899 -0.687,1.234 -0.293,0.34 -0.649,0.602 -1.063,0.782 -0.418,0.183 -0.879,0.281 -1.375,0.281 -0.5,0 -0.965,-0.098 -1.39,-0.281 -0.418,-0.188 -0.778,-0.457 -1.079,-0.797 -0.292,-0.336 -0.523,-0.746 -0.687,-1.235 -0.168,-0.492 -0.25,-1.05 -0.25,-1.671 0,-0.625 0.082,-1.184 0.25,-1.672 0.164,-0.492 0.395,-0.91 0.687,-1.25 0.301,-0.336 0.657,-0.598 1.063,-0.782 0.414,-0.175 0.879,-0.265 1.391,-0.265 0.496,0 0.957,0.09 1.375,0.265 0.414,0.184 0.773,0.454 1.078,0.797 0.301,0.34 0.531,0.758 0.687,1.25 0.164,0.489 0.25,1.047 0.25,1.672 z m -1.578,-0.015 c 0,-0.793 -0.168,-1.399 -0.5,-1.813 -0.324,-0.418 -0.758,-0.625 -1.297,-0.625 -0.543,0 -0.988,0.211 -1.328,0.641 -0.336,0.425 -0.5,1.031 -0.5,1.812 0,0.778 0.16,1.379 0.484,1.797 0.333,0.426 0.77,0.641 1.313,0.641 0.539,0 0.977,-0.215 1.312,-0.641 0.34,-0.43 0.516,-1.035 0.516,-1.812 z m 9.52,-3.844 -1.485,2.984 c 0.489,0.196 0.86,0.477 1.11,0.844 0.246,0.371 0.375,0.852 0.375,1.437 0,0.403 -0.075,0.758 -0.219,1.063 -0.137,0.301 -0.332,0.555 -0.578,0.766 -0.242,0.207 -0.524,0.359 -0.844,0.453 -0.313,0.101 -0.652,0.156 -1.016,0.156 h -3.593 v -7.703 h 1.546 v 2.765 h 1.547 l 1.375,-2.765 z m -1.594,5.219 c 0,-0.668 -0.367,-1 -1.094,-1 h -2.016 v 1.984 h 2.016 c 0.34,0 0.61,-0.082 0.797,-0.234 0.195,-0.149 0.297,-0.399 0.297,-0.75 z m 10.066,-5.219 -2.828,5.031 2.25,2.672 h -1.859 l -2.156,-2.625 c -0.055,-0.074 -0.114,-0.148 -0.172,-0.219 -0.055,-0.062 -0.114,-0.133 -0.172,-0.203 -0.055,-0.074 -0.106,-0.144 -0.156,-0.203 -0.043,-0.063 -0.075,-0.117 -0.094,-0.156 0,0.05 0,0.129 0,0.234 0,0.113 0,0.227 0,0.344 0.008,0.121 0.015,0.238 0.015,0.344 0,0.121 0,0.222 0,0.296 v 2.188 h -1.546 v -7.703 h 1.546 v 2.265 l 1.235,1.454 2.094,-3.719 z M 124.105,0.122 v 1.5 h -3.968 v 1.859 h 2.203 v 1.5 h -2.203 v 1.328 h 3.812 V 7.825 H 118.59 V 0.122 Z m 8.02,0 v 7.703 h -1.531 V 4.559 c 0,-0.105 0,-0.242 0,-0.406 0.008,-0.156 0.015,-0.321 0.015,-0.485 0,-0.168 0,-0.324 0,-0.468 0.008,-0.137 0.016,-0.243 0.016,-0.313 -0.055,0.102 -0.137,0.235 -0.25,0.391 -0.105,0.164 -0.207,0.32 -0.297,0.469 l -2.719,4.078 h -1.484 V 0.122 h 1.531 v 3.39 c 0,0.102 -0.008,0.235 -0.015,0.391 0,0.164 0,0.332 0,0.5 0,0.164 -0.008,0.32 -0.016,0.469 0,0.144 0,0.253 0,0.328 0.051,-0.106 0.129,-0.243 0.234,-0.407 0.102,-0.168 0.207,-0.324 0.313,-0.468 l 2.828,-4.203 z m 8.168,2.984 v 1.016 h -2.766 V 2.668 h 1.219 C 138.723,2.5 138.68,2.344 138.621,2.2 c -0.062,-0.137 -0.152,-0.258 -0.266,-0.36 -0.117,-0.105 -0.269,-0.191 -0.453,-0.25 -0.179,-0.054 -0.398,-0.078 -0.656,-0.078 -0.293,0 -0.555,0.063 -0.781,0.188 -0.231,0.121 -0.426,0.297 -0.578,0.515 -0.157,0.215 -0.278,0.477 -0.36,0.782 -0.074,0.3 -0.109,0.625 -0.109,0.968 0,0.364 0.035,0.692 0.109,0.985 0.082,0.3 0.203,0.554 0.36,0.765 0.152,0.215 0.343,0.391 0.562,0.516 0.227,0.121 0.489,0.187 0.781,0.187 0.208,0 0.383,-0.027 0.532,-0.078 0.152,-0.054 0.289,-0.129 0.406,-0.218 0.113,-0.086 0.211,-0.192 0.297,-0.313 0.082,-0.117 0.16,-0.246 0.234,-0.391 l 1.469,0.594 c -0.25,0.59 -0.606,1.063 -1.063,1.406 -0.449,0.352 -1.07,0.532 -1.859,0.532 -0.5,0 -0.965,-0.102 -1.391,-0.297 -0.417,-0.199 -0.777,-0.477 -1.078,-0.828 -0.293,-0.344 -0.527,-0.762 -0.703,-1.25 -0.168,-0.481 -0.25,-1.02 -0.25,-1.61 0,-0.605 0.078,-1.152 0.235,-1.64 0.164,-0.493 0.394,-0.911 0.687,-1.25 0.301,-0.344 0.656,-0.614 1.063,-0.797 0.414,-0.184 0.879,-0.281 1.39,-0.281 0.446,0 0.86,0.07 1.235,0.203 0.371,0.144 0.695,0.347 0.968,0.609 0.278,0.27 0.5,0.598 0.657,0.984 0.152,0.383 0.234,0.821 0.234,1.313 z m 3.402,-2.984 v 7.703 h -1.547 V 0.122 Z m 8.403,0 v 7.703 h -1.532 V 4.559 c 0,-0.105 0,-0.242 0,-0.406 0.008,-0.156 0.016,-0.321 0.016,-0.485 0,-0.168 0,-0.324 0,-0.468 0.008,-0.137 0.016,-0.243 0.016,-0.313 -0.055,0.102 -0.137,0.235 -0.25,0.391 -0.106,0.164 -0.207,0.32 -0.297,0.469 l -2.719,4.078 h -1.484 V 0.122 h 1.531 v 3.39 c 0,0.102 -0.008,0.235 -0.016,0.391 0,0.164 0,0.332 0,0.5 0,0.164 -0.008,0.32 -0.015,0.469 0,0.144 0,0.253 0,0.328 0.05,-0.106 0.129,-0.243 0.234,-0.407 0.102,-0.168 0.207,-0.324 0.313,-0.468 l 2.828,-4.203 z m 7.621,0 v 1.5 h -3.969 v 1.859 h 2.203 v 1.5 h -2.203 v 1.328 h 3.812 v 1.516 h -5.359 V 0.122 Z m 7.285,0 v 1.5 h -3.969 v 1.859 h 2.203 v 1.5 h -2.203 v 1.328 h 3.813 v 1.516 h -5.36 V 0.122 Z m 8.016,0 -1.485,2.984 c 0.488,0.195 0.86,0.476 1.11,0.844 0.246,0.371 0.375,0.851 0.375,1.437 0,0.402 -0.075,0.758 -0.219,1.063 -0.137,0.3 -0.332,0.554 -0.578,0.765 -0.243,0.207 -0.524,0.36 -0.844,0.453 -0.313,0.102 -0.652,0.157 -1.016,0.157 H 168.77 V 0.122 h 1.546 v 2.765 h 1.547 l 1.375,-2.765 z m -1.594,5.218 c 0,-0.668 -0.367,-1 -1.094,-1 h -2.016 v 1.985 h 2.016 c 0.34,0 0.609,-0.082 0.797,-0.235 0.195,-0.148 0.297,-0.398 0.297,-0.75 z m 5.008,-5.218 v 7.703 h -1.547 V 0.122 Z m 8.398,0 v 7.703 h -1.531 V 4.559 c 0,-0.105 0,-0.242 0,-0.406 0.008,-0.156 0.015,-0.321 0.015,-0.485 0,-0.168 0,-0.324 0,-0.468 0.008,-0.137 0.016,-0.243 0.016,-0.313 -0.055,0.102 -0.137,0.235 -0.25,0.391 -0.105,0.164 -0.207,0.32 -0.297,0.469 l -2.719,4.078 h -1.484 V 0.122 h 1.531 v 3.39 c 0,0.102 -0.008,0.235 -0.015,0.391 0,0.164 0,0.332 0,0.5 0,0.164 -0.008,0.32 -0.016,0.469 0,0.144 0,0.253 0,0.328 0.051,-0.106 0.129,-0.243 0.234,-0.407 0.102,-0.168 0.207,-0.324 0.313,-0.468 l 2.828,-4.203 z m 8.172,2.984 v 1.016 h -2.766 V 2.668 h 1.219 C 193.434,2.5 193.391,2.344 193.332,2.2 193.27,2.063 193.18,1.942 193.066,1.84 c -0.117,-0.105 -0.269,-0.191 -0.453,-0.25 -0.179,-0.054 -0.398,-0.078 -0.656,-0.078 -0.293,0 -0.555,0.063 -0.781,0.188 -0.231,0.121 -0.426,0.297 -0.578,0.515 -0.157,0.215 -0.278,0.477 -0.36,0.782 -0.074,0.3 -0.109,0.625 -0.109,0.968 0,0.364 0.035,0.692 0.109,0.985 0.082,0.3 0.203,0.554 0.36,0.765 0.152,0.215 0.343,0.391 0.562,0.516 0.227,0.121 0.488,0.187 0.781,0.187 0.207,0 0.383,-0.027 0.532,-0.078 0.152,-0.054 0.289,-0.129 0.406,-0.218 0.113,-0.086 0.211,-0.192 0.297,-0.313 0.082,-0.117 0.16,-0.246 0.234,-0.391 l 1.469,0.594 c -0.25,0.59 -0.606,1.063 -1.063,1.406 -0.449,0.352 -1.07,0.532 -1.859,0.532 -0.5,0 -0.965,-0.102 -1.391,-0.297 -0.418,-0.199 -0.777,-0.477 -1.078,-0.828 -0.293,-0.344 -0.527,-0.762 -0.703,-1.25 -0.168,-0.481 -0.25,-1.02 -0.25,-1.61 0,-0.605 0.078,-1.152 0.235,-1.64 0.164,-0.493 0.394,-0.911 0.687,-1.25 0.301,-0.344 0.656,-0.614 1.063,-0.797 0.414,-0.184 0.878,-0.281 1.39,-0.281 0.445,0 0.86,0.07 1.235,0.203 0.371,0.144 0.695,0.347 0.968,0.609 0.278,0.27 0.5,0.598 0.657,0.984 0.152,0.383 0.234,0.821 0.234,1.313 z"
         style="fill:#000000;fill-opacity:1;fill-rule:nonzero;stroke:none"
         transform="matrix(1.3333333,0,0,-1.3333333,0,87.677333)"
         clip-path="url(#clipPath47)"
         id="path94" />
    </g>
  </g>
</svg>
