<?xml version="1.0" encoding="UTF-8" standalone="no"?>
<svg
   version="1.1"
   id="svg2"
   xml:space="preserve"
   width="266"
   height="56"
   viewBox="0 0 266 56.000001"
   sodipodi:docname="logo_ida_en.svg"
   inkscape:version="1.3 (0e150ed6c4, 2023-07-21)"
   xmlns:inkscape="http://www.inkscape.org/namespaces/inkscape"
   xmlns:sodipodi="http://sodipodi.sourceforge.net/DTD/sodipodi-0.dtd"
   xmlns="http://www.w3.org/2000/svg"
   xmlns:svg="http://www.w3.org/2000/svg"
   xmlns:rdf="http://www.w3.org/1999/02/22-rdf-syntax-ns#"
   xmlns:cc="http://creativecommons.org/ns#"
   xmlns:dc="http://purl.org/dc/elements/1.1/"><sodipodi:namedview
     id="namedview1"
     pagecolor="#ffffff"
     bordercolor="#000000"
     borderopacity="0.25"
     inkscape:showpageshadow="2"
     inkscape:pageopacity="0.0"
     inkscape:pagecheckerboard="0"
     inkscape:deskcolor="#d1d1d1"
     inkscape:zoom="4.9068292"
     inkscape:cx="174.96024"
     inkscape:cy="74.691819"
     inkscape:window-width="3840"
     inkscape:window-height="2054"
     inkscape:window-x="2869"
     inkscape:window-y="-11"
     inkscape:window-maximized="1"
     inkscape:current-layer="g12" /><metadata
     id="metadata8"><rdf:RDF><cc:Work
         rdf:about=""><dc:format>image/svg+xml</dc:format><dc:type
           rdf:resource="http://purl.org/dc/dcmitype/StillImage" /></cc:Work></rdf:RDF></metadata><defs
     id="defs6" /><g
     id="g10"
     transform="matrix(1.3333333,0,0,-1.3333333,0,87.677663)"><g
       id="g12"><path
         d="M 30.719,65.497 20.766,42.047 13.414,24.731 H 7.477 0 l 13.047,17.316 z"
         style="fill:#000000;fill-opacity:1;fill-rule:nonzero;stroke:none"
         id="path14" /><path
         d="M 1.93,33.004 1.078,30.981 H 1.23 l 1.524,2.023 z"
         style="fill:#000000;fill-opacity:1;fill-rule:nonzero;stroke:none"
         id="path16" /><path
         d="M 3.23,36.055 2.48,34.254 h 1.223 l 1.352,1.801 z"
         style="fill:#000000;fill-opacity:1;fill-rule:nonzero;stroke:none"
         id="path18" /><path
         d="M 4.504,39.079 3.777,37.305 h 2.227 l 1.324,1.774 z"
         style="fill:#000000;fill-opacity:1;fill-rule:nonzero;stroke:none"
         id="path20" /><path
         d="M 5.773,42.047 H 9.57 L 8.277,40.332 h -3.23 z"
         style="fill:#000000;fill-opacity:1;fill-rule:nonzero;stroke:none"
         id="path22" /><path
         d="m 7.031,45.012 h 4.774 L 10.629,43.45 H 6.371 Z"
         style="fill:#000000;fill-opacity:1;fill-rule:nonzero;stroke:none"
         id="path24" /><path
         d="m 8.289,47.977 h 5.75 L 12.98,46.571 H 7.695 Z"
         style="fill:#000000;fill-opacity:1;fill-rule:nonzero;stroke:none"
         id="path26" /><path
         d="m 9.547,50.938 h 6.726 L 15.332,49.692 H 9.02 Z"
         style="fill:#000000;fill-opacity:1;fill-rule:nonzero;stroke:none"
         id="path28" /><path
         d="m 10.805,53.903 h 7.699 l -0.82,-1.09 h -7.34 z"
         style="fill:#000000;fill-opacity:1;fill-rule:nonzero;stroke:none"
         id="path30" /><path
         d="m 12.062,56.868 h 8.676 L 20.035,55.93 h -8.367 z"
         style="fill:#000000;fill-opacity:1;fill-rule:nonzero;stroke:none"
         id="path32" /><path
         d="m 13.32,59.829 h 9.653 l -0.586,-0.778 h -9.395 z"
         style="fill:#000000;fill-opacity:1;fill-rule:nonzero;stroke:none"
         id="path34" /><path
         d="M 14.578,62.805 14.527,62.68 14.305,62.157 14.254,62.032 h 10.375 l 0.476,0.648 0.098,0.125 z"
         style="fill:#000000;fill-opacity:1;fill-rule:nonzero;stroke:none"
         id="path36" /><path
         d="M 15.828,65.754 15.754,65.555 15.629,65.282 15.555,65.079 H 26.93 l 0.347,0.476 0.153,0.199 z"
         style="fill:#000000;fill-opacity:1;fill-rule:nonzero;stroke:none"
         id="path38" /><path
         d="m 22.305,26.879 -0.903,-2.148 h 7.153 l 1.597,2.148 z"
         style="fill:#000000;fill-opacity:1;fill-rule:nonzero;stroke:none"
         id="path40" /><path
         d="m 23.605,29.93 -0.75,-1.801 h 8.274 l 1.351,1.801 z"
         style="fill:#000000;fill-opacity:1;fill-rule:nonzero;stroke:none"
         id="path42" /><path
         d="m 24.902,33.004 -0.75,-1.824 h 9.25 l 1.375,1.824 z"
         style="fill:#000000;fill-opacity:1;fill-rule:nonzero;stroke:none"
         id="path44" /><path
         d="m 26.203,36.055 -0.75,-1.801 H 35.73 l 1.348,1.801 z"
         style="fill:#000000;fill-opacity:1;fill-rule:nonzero;stroke:none"
         id="path46" /><path
         d="m 27.504,39.079 -0.75,-1.774 h 11.273 l 1.328,1.774 z"
         style="fill:#000000;fill-opacity:1;fill-rule:nonzero;stroke:none"
         id="path48" /><path
         d="M 28.75,42.047 H 41.594 L 40.301,40.332 H 28.023 Z"
         style="fill:#000000;fill-opacity:1;fill-rule:nonzero;stroke:none"
         id="path50" /><path
         d="M 30.012,45.012 H 43.395 L 42.652,43.45 H 29.348 Z"
         style="fill:#000000;fill-opacity:1;fill-rule:nonzero;stroke:none"
         id="path52" /><path
         d="M 31.27,47.977 H 44.652 L 44.055,46.571 H 30.672 Z"
         style="fill:#000000;fill-opacity:1;fill-rule:nonzero;stroke:none"
         id="path54" /><path
         d="M 32.527,50.938 H 45.91 L 45.379,49.692 H 31.996 Z"
         style="fill:#000000;fill-opacity:1;fill-rule:nonzero;stroke:none"
         id="path56" /><path
         d="m 33.785,53.903 h 13.383 l -0.465,-1.09 H 33.32 Z"
         style="fill:#000000;fill-opacity:1;fill-rule:nonzero;stroke:none"
         id="path58" /><path
         d="M 35.043,56.868 H 52.762 L 52.055,55.93 h -17.41 z"
         style="fill:#000000;fill-opacity:1;fill-rule:nonzero;stroke:none"
         id="path60" /><path
         d="m 36.301,59.829 h 18.695 l -0.59,-0.778 H 35.969 Z"
         style="fill:#000000;fill-opacity:1;fill-rule:nonzero;stroke:none"
         id="path62" /><path
         d="M 37.555,62.805 37.504,62.68 37.305,62.18 37.254,62.055 H 56.68 l 0.449,0.625 0.101,0.125 z"
         style="fill:#000000;fill-opacity:1;fill-rule:nonzero;stroke:none"
         id="path64" /><path
         d="m 38.828,65.754 -0.074,-0.199 -0.125,-0.273 -0.102,-0.203 h 20.426 l 0.352,0.476 0.148,0.199 z"
         style="fill:#000000;fill-opacity:1;fill-rule:nonzero;stroke:none"
         id="path66" /><path
         d="m 64.48,26.879 -1.625,-2.148 h 13.422 l 1.625,2.148 z"
         style="fill:#000000;fill-opacity:1;fill-rule:nonzero;stroke:none"
         id="path68" /><path
         d="M 66.777,29.93 65.43,28.129 h 13.425 l 1.348,1.801 z"
         style="fill:#000000;fill-opacity:1;fill-rule:nonzero;stroke:none"
         id="path70" /><path
         d="M 69.105,33.004 67.73,31.18 h 13.399 l 1.375,1.824 z"
         style="fill:#000000;fill-opacity:1;fill-rule:nonzero;stroke:none"
         id="path72" /><path
         d="m 71.402,36.055 -1.347,-1.801 h 13.398 l 1.352,1.801 z"
         style="fill:#000000;fill-opacity:1;fill-rule:nonzero;stroke:none"
         id="path74" /><path
         d="m 73.68,39.079 -1.325,-1.774 h 13.399 l 1.351,1.774 z"
         style="fill:#000000;fill-opacity:1;fill-rule:nonzero;stroke:none"
         id="path76" /><path
         d="M 75.914,42.047 H 89.328 L 88.035,40.332 H 74.621 Z"
         style="fill:#000000;fill-opacity:1;fill-rule:nonzero;stroke:none"
         id="path78" /><path
         d="M 78.145,45.012 H 91.562 L 90.387,43.45 H 76.969 Z"
         style="fill:#000000;fill-opacity:1;fill-rule:nonzero;stroke:none"
         id="path80" /><path
         d="M 80.379,47.977 H 93.793 L 92.738,46.571 H 79.32 Z"
         style="fill:#000000;fill-opacity:1;fill-rule:nonzero;stroke:none"
         id="path82" /><path
         d="M 82.613,50.938 H 96.027 L 95.086,49.692 H 81.672 Z"
         style="fill:#000000;fill-opacity:1;fill-rule:nonzero;stroke:none"
         id="path84" /><path
         d="m 84.848,53.903 h 13.414 l -0.824,-1.09 H 84.023 Z"
         style="fill:#000000;fill-opacity:1;fill-rule:nonzero;stroke:none"
         id="path86" /><path
         d="m 87.078,56.868 h 13.418 L 99.789,55.93 H 86.375 Z"
         style="fill:#000000;fill-opacity:1;fill-rule:nonzero;stroke:none"
         id="path88" /><path
         d="m 89.312,59.829 h 13.415 l -0.586,-0.778 H 88.727 Z"
         style="fill:#000000;fill-opacity:1;fill-rule:nonzero;stroke:none"
         id="path90" /><path
         d="M 91.555,62.805 91.48,62.68 91.078,62.18 91.004,62.055 h 13.398 l 0.102,0.125 0.101,0.125 0.274,0.375 0.074,0.125 z"
         style="fill:#000000;fill-opacity:1;fill-rule:nonzero;stroke:none"
         id="path92" /><path
         d="M 93.777,65.754 93.629,65.555 93.43,65.282 93.277,65.079 h 13.426 l 0.152,0.203 0.2,0.273 0.148,0.199 z"
         style="fill:#000000;fill-opacity:1;fill-rule:nonzero;stroke:none"
         id="path94" /><path
         d="M 110.684,65.719 V 24.731 H 97.641 v 5.367 H 83.84 l 6.019,7.988 h 7.782 v 10.328 z"
         style="fill:#000000;fill-opacity:1;fill-rule:nonzero;stroke:none"
         id="path96" /><path
         d="m 55.215,55.493 c 0.949,0 5.402,-2.625 0.89,-12.043 -4.378,-9.141 -9.722,-8.453 -9.722,-8.453 H 39.77 L 32.035,24.731 h 14.348 c 5.465,0.023 10.652,2.332 18.066,11.141 6.383,7.578 8.09,15.355 8.09,19.621 0,6.675 -2.125,10.265 -9.59,10.265 z"
         style="fill:#000000;fill-opacity:1;fill-rule:nonzero;stroke:none"
         id="path98" /><path
         d="m 117.59807,58.363467 v 7.184915 h -1.44277 v -7.184915 z m 7.83309,0 v 7.184915 h -1.42878 v -3.045941 c 0,-0.09886 0,-0.225695 0,-0.378645 0.007,-0.146421 0.0149,-0.299371 0.0149,-0.452321 0,-0.15668 0,-0.302169 0,-0.436467 0.007,-0.127769 0.0149,-0.226627 0.0149,-0.29191 -0.0513,0.09513 -0.12776,0.218233 -0.23315,0.364655 -0.0989,0.152949 -0.19305,0.298438 -0.27699,0.436466 l -2.5358,3.804163 h -1.38401 v -7.184915 h 1.42785 v 3.162519 c 0,0.09513 -0.007,0.218233 -0.0149,0.364655 0,0.15295 0,0.30963 0,0.466311 0,0.15295 -0.007,0.298439 -0.014,0.436467 0,0.13523 0,0.236885 0,0.306832 0.0466,-0.09886 0.11938,-0.226627 0.21824,-0.379577 0.0942,-0.15668 0.19305,-0.302169 0.29098,-0.436467 l 2.63838,-3.92074 z m 7.2418,2.172075 c 0,0.386105 -0.0765,0.705994 -0.21823,0.961533 -0.14549,0.250875 -0.33948,0.458849 -0.5689,0.626721 -0.22569,0.163209 -0.48403,0.290978 -0.77221,0.378645 -0.28352,0.09513 -0.5717,0.17813 -0.85988,0.248077 -0.28351,0.06528 -0.51667,0.130567 -0.69946,0.189322 -0.1856,0.05409 -0.33108,0.116578 -0.43647,0.1744 -0.11005,0.05503 -0.18652,0.124039 -0.23316,0.204244 -0.0401,0.08394 -0.0588,0.181862 -0.0588,0.290978 0,0.08394 0.0149,0.164142 0.0438,0.233156 0.0364,0.07647 0.0951,0.146421 0.17533,0.204244 0.0765,0.06622 0.17814,0.120308 0.3059,0.160411 0.1343,0.03637 0.29844,0.05875 0.49523,0.05875 0.32735,0 0.62672,-0.06622 0.88879,-0.190255 0.25833,-0.126836 0.51014,-0.312428 0.74329,-0.553044 l 1.03428,1.005365 c -0.34227,0.357194 -0.72465,0.634183 -1.15085,0.830034 -0.41875,0.200513 -0.91117,0.306832 -1.47168,0.306832 -0.34973,0 -0.68175,-0.05129 -0.99138,-0.146422 -0.31336,-0.09793 -0.58662,-0.239683 -0.81604,-0.422477 -0.23316,-0.1744 -0.41875,-0.397297 -0.55304,-0.655633 -0.13897,-0.262067 -0.20425,-0.560505 -0.20425,-0.888788 0,-0.349733 0.0504,-0.648172 0.16041,-0.888788 0.11285,-0.244347 0.26953,-0.444861 0.46631,-0.597811 0.19958,-0.15668 0.4402,-0.287247 0.71346,-0.393566 0.28072,-0.09793 0.58662,-0.185592 0.91863,-0.262067 0.33854,-0.0802 0.6118,-0.15295 0.81604,-0.218233 0.21078,-0.06995 0.37119,-0.142691 0.4803,-0.219166 0.11285,-0.06901 0.19306,-0.14922 0.23316,-0.233156 0.0364,-0.08673 0.0588,-0.193052 0.0588,-0.305899 0,-0.273258 -0.10538,-0.473772 -0.3059,-0.596878 -0.19678,-0.116578 -0.50641,-0.175333 -0.93262,-0.175333 -0.34973,0 -0.68174,0.06155 -0.99137,0.189322 -0.31336,0.124039 -0.59408,0.335744 -0.84496,0.626722 l -1.0492,-0.9177 c 0.28072,-0.408488 0.6631,-0.732107 1.15086,-0.962465 0.49242,-0.233155 1.04174,-0.349733 1.64701,-0.349733 0.49149,0 0.9177,0.05503 1.26743,0.160411 0.346,0.112847 0.64164,0.269527 0.8748,0.466311 0.22942,0.200513 0.40009,0.44486 0.51014,0.72931 0.11285,0.279786 0.1744,0.589416 0.1744,0.932621 z m 6.45561,3.598986 v 1.413854 h -5.5519 v -1.413854 h 2.05457 v -5.771061 h 1.44276 v 5.771061 z m 3.05247,-5.771061 v 7.184915 h -1.44183 v -7.184915 z m 7.10471,5.771061 v 1.413854 h -5.5519 v -1.413854 h 2.05457 v -5.771061 h 1.44276 v 5.771061 z m 7.28191,-2.59362 v 4.007474 h -1.44277 v -4.037318 c 0,-0.582888 -0.1343,-1.041738 -0.39356,-1.369088 -0.26207,-0.320822 -0.62206,-0.481233 -1.07812,-0.481233 -0.45885,0 -0.81977,0.164141 -1.07811,0.495222 -0.26206,0.339474 -0.39356,0.802055 -0.39356,1.384943 v 4.007474 h -1.42785 v -4.037318 c 0,-0.516672 0.0653,-0.979252 0.20425,-1.38401 0.14176,-0.407556 0.34227,-0.754491 0.59688,-1.034277 0.2518,-0.273258 0.5577,-0.484964 0.91863,-0.626722 0.35626,-0.142691 0.74983,-0.219166 1.17976,-0.219166 0.91118,0 1.62463,0.28445 2.14224,0.859877 0.51387,0.57263 0.77221,1.384943 0.77221,2.434142 z m 7.02077,2.59362 v 1.413854 h -5.55283 v -1.413854 h 2.0555 v -5.771061 h 1.44183 v 5.771061 z m 6.65146,-5.771061 v 1.398932 h -3.70064 v 1.734676 h 2.05456 v 1.398932 h -2.05456 v 1.238521 h 3.55515 v 1.413854 h -4.99792 v -7.184915 z m 10.60204,3.599918 c 0,0.579158 -0.0802,1.100494 -0.23316,1.559344 -0.14642,0.455119 -0.36092,0.837494 -0.64164,1.150854 -0.27326,0.317092 -0.60434,0.561439 -0.99044,0.728378 -0.38984,0.171602 -0.81978,0.262999 -1.28236,0.262999 -0.46631,0 -0.89998,-0.0914 -1.29728,-0.262999 -0.38983,-0.1744 -0.72464,-0.426208 -1.00536,-0.7433 -0.27326,-0.312428 -0.4887,-0.695735 -0.64165,-1.150854 -0.15668,-0.45885 -0.23315,-0.980186 -0.23315,-1.559343 0,-0.582889 0.0765,-1.103292 0.23315,-1.559344 0.15295,-0.458849 0.36839,-0.848685 0.64165,-1.165776 0.28072,-0.313361 0.6118,-0.556775 0.99044,-0.728378 0.38611,-0.164141 0.81978,-0.248077 1.29728,-0.248077 0.46258,0 0.89252,0.08394 1.28235,0.248077 0.38611,0.171603 0.72092,0.422478 1.00537,0.7433 0.28072,0.317091 0.49522,0.706927 0.64164,1.165776 0.15295,0.45512 0.23316,0.976455 0.23316,1.559343 z m -1.47261,-0.01492 c 0,-0.739569 -0.15668,-1.303805 -0.46631,-1.689911 -0.30217,-0.389835 -0.706,-0.582888 -1.20868,-0.582888 -0.50641,0 -0.92236,0.196783 -1.23945,0.596878 -0.31243,0.397297 -0.46631,0.962465 -0.46631,1.690842 0,0.724647 0.15015,1.286085 0.45232,1.675921 0.30963,0.396364 0.71718,0.596878 1.2236,0.596878 0.50268,0 0.91117,-0.200514 1.22453,-0.596878 0.31709,-0.401027 0.4803,-0.965263 0.4803,-1.690842 z m 8.19401,2.186064 v 1.413854 h -5.14434 v -7.184915 h 1.44277 v 3.031019 h 2.15622 v 1.384943 h -2.15622 v 1.355099 z M 121.48897,52.571887 c -0.10912,0.229425 -0.24435,0.443928 -0.40849,0.640711 -0.15668,0.193053 -0.34227,0.357194 -0.55305,0.495222 -0.21543,0.142691 -0.46258,0.255539 -0.7433,0.335744 -0.27325,0.083 -0.57915,0.130567 -0.91863,0.130567 -0.46631,0 -0.89905,-0.09419 -1.29634,-0.276989 -0.38984,-0.185591 -0.72465,-0.443927 -1.00537,-0.77221 -0.27326,-0.319889 -0.49242,-0.709725 -0.65563,-1.165777 -0.15668,-0.447658 -0.23316,-0.950341 -0.23316,-1.500588 0,-0.565168 0.0727,-1.07438 0.21824,-1.530432 0.15295,-0.458849 0.36745,-0.848685 0.64071,-1.165776 0.28072,-0.31989 0.61273,-0.571697 0.99137,-0.7433 0.38611,-0.170669 0.81978,-0.262066 1.29728,-0.262066 0.64817,0 1.19469,0.13896 1.63209,0.422477 0.43274,0.28818 0.77594,0.689207 1.01935,1.195621 l -1.20961,0.728377 c -0.19585,-0.320822 -0.40009,-0.557707 -0.6118,-0.699466 -0.20424,-0.145489 -0.47004,-0.219166 -0.78713,-0.219166 -0.27326,0 -0.51667,0.05876 -0.72838,0.175333 -0.2145,0.112847 -0.39729,0.276988 -0.53905,0.481233 -0.14549,0.199581 -0.25834,0.440197 -0.33481,0.713455 -0.0699,0.280719 -0.10259,0.582888 -0.10259,0.90371 0,0.338542 0.0326,0.644442 0.10259,0.9177 0.0765,0.280719 0.18932,0.517605 0.33481,0.714388 0.14176,0.200513 0.32082,0.364655 0.52507,0.481232 0.21077,0.112848 0.45511,0.174401 0.72837,0.174401 0.32735,0 0.59688,-0.06901 0.80112,-0.204244 0.21171,-0.138028 0.38238,-0.331081 0.51015,-0.582889 z m 7.24926,-2.098398 c 0,0.579158 -0.0802,1.099561 -0.23315,1.558411 -0.14549,0.456051 -0.35999,0.838426 -0.64071,1.151787 -0.27326,0.317091 -0.60528,0.560506 -0.99138,0.728377 -0.38984,0.171603 -0.81977,0.262067 -1.28235,0.262067 -0.46632,0 -0.89905,-0.09046 -1.29635,-0.262067 -0.38983,-0.1744 -0.72558,-0.426208 -1.00536,-0.743299 -0.27326,-0.313361 -0.4887,-0.695735 -0.64165,-1.150855 -0.15668,-0.458849 -0.23315,-0.980185 -0.23315,-1.559343 0,-0.582888 0.0765,-1.104224 0.23315,-1.559343 0.15295,-0.45885 0.36839,-0.848685 0.64165,-1.165777 0.27978,-0.313361 0.6118,-0.557707 0.99044,-0.728377 0.3861,-0.164141 0.81977,-0.248077 1.29728,-0.248077 0.46258,0 0.89251,0.08394 1.28235,0.248077 0.38611,0.17067 0.72092,0.422477 1.00537,0.743299 0.28072,0.316159 0.49522,0.705995 0.64071,1.165777 0.15295,0.455119 0.23315,0.976455 0.23315,1.559343 z m -1.47167,-0.01492 c 0,-0.739569 -0.15668,-1.304737 -0.46631,-1.690843 -0.30217,-0.389835 -0.70693,-0.582888 -1.20961,-0.582888 -0.50642,0 -0.92143,0.196783 -1.23853,0.59781 -0.31336,0.397297 -0.46631,0.961533 -0.46631,1.690843 0,0.724647 0.14922,1.285152 0.45232,1.674988 0.30963,0.397297 0.71719,0.597811 1.2236,0.597811 0.50269,0 0.91117,-0.200514 1.22454,-0.597811 0.31709,-0.400094 0.4803,-0.965263 0.4803,-1.68991 z m 9.76361,-3.584997 v 7.183983 h -1.41385 l -1.44184,-3.249253 c -0.0988,-0.204244 -0.19398,-0.426208 -0.27699,-0.655633 -0.0877,-0.233155 -0.15668,-0.418747 -0.20424,-0.553977 -0.0224,0.06528 -0.0513,0.145489 -0.0877,0.233156 -0.0401,0.09513 -0.0839,0.196783 -0.13056,0.305899 -0.0401,0.112848 -0.0839,0.225695 -0.1315,0.335744 -0.0513,0.112847 -0.0989,0.225695 -0.14549,0.334811 l -1.50152,3.249253 h -1.38401 V 46.87357 h 1.41385 v 2.637454 c 0,0.09513 -0.007,0.219166 -0.0149,0.364655 0,0.15295 0,0.30963 0,0.466311 0,0.152949 -0.007,0.298438 -0.0149,0.437399 0,0.134297 0,0.236886 0,0.3059 0.055,-0.138961 0.1315,-0.317091 0.21916,-0.539055 0.0942,-0.226627 0.19306,-0.44113 0.29098,-0.641644 l 1.45769,-3.191431 1.45675,3.191431 c 0.0951,0.200514 0.18933,0.415017 0.27699,0.641644 0.0951,0.221964 0.16787,0.400094 0.21824,0.539055 0,-0.06901 0,-0.171603 0,-0.3059 0,-0.138961 0,-0.28445 0,-0.437399 0,-0.156681 -0.007,-0.313361 -0.014,-0.466311 0,-0.145489 0,-0.269528 0,-0.364655 V 46.87357 Z m 7.62511,4.911185 c 0,0.374914 -0.0653,0.706927 -0.18932,0.990444 -0.12777,0.280719 -0.30963,0.517605 -0.53905,0.714388 -0.22663,0.193053 -0.4887,0.334811 -0.78714,0.422477 -0.29191,0.09513 -0.609,0.145489 -0.94754,0.145489 h -3.1476 V 46.87357 h 1.44277 v 2.55072 h 1.57426 c 0.36746,0 0.71346,0.0429 1.03428,0.130567 0.31709,0.08394 0.59781,0.221964 0.83097,0.408488 0.22942,0.193053 0.41128,0.440198 0.53905,0.743299 0.12404,0.298439 0.18932,0.659364 0.18932,1.078111 z m -1.47167,-0.04383 c 0,-0.622991 -0.34321,-0.932622 -1.02029,-0.932622 h -1.67592 v 1.850321 h 1.64701 c 0.31709,0 0.57169,-0.07648 0.75729,-0.218233 0.19305,-0.145489 0.29191,-0.382375 0.29191,-0.699466 z m 8.73213,-1.690843 v 4.007474 h -1.44276 v -4.036385 c 0,-0.582889 -0.1343,-1.041738 -0.39357,-1.370021 -0.26207,-0.319889 -0.62299,-0.4803 -1.07811,-0.4803 -0.45885,0 -0.81978,0.164141 -1.07811,0.495222 -0.263,0.338541 -0.39357,0.801122 -0.39357,1.38401 v 4.007474 h -1.42784 v -4.036385 c 0,-0.517605 0.0653,-0.980185 0.20331,-1.384011 0.14269,-0.408488 0.3432,-0.75449 0.59781,-1.035209 0.25181,-0.273258 0.55771,-0.484031 0.9177,-0.625789 0.35719,-0.142691 0.75076,-0.219166 1.1807,-0.219166 0.91117,0 1.62463,0.284449 2.14223,0.859877 0.51387,0.571697 0.77221,1.38401 0.77221,2.433209 z m 7.01984,2.594553 v 1.412921 h -5.55189 v -1.412921 h 2.05456 V 46.87357 h 1.44277 v 5.771062 z m 6.65612,-5.771062 v 1.398933 h -3.70157 v 1.734675 h 2.05456 v 1.398933 h -2.05456 v 1.238521 h 3.55608 v 1.412921 h -4.99885 V 46.87357 Z m 7.4759,0 -1.38495,2.783875 c 0.45605,0.181862 0.80206,0.443928 1.03521,0.7862 0.22943,0.346003 0.34974,0.794594 0.34974,1.34111 0,0.374914 -0.07,0.706927 -0.20425,0.990444 -0.12777,0.280719 -0.30963,0.517605 -0.53905,0.714388 -0.2257,0.193053 -0.4887,0.334811 -0.78714,0.422477 -0.29097,0.09513 -0.60807,0.145489 -0.94754,0.145489 h -3.35091 V 46.87357 h 1.44277 v 2.579631 h 1.44183 l 1.28235,-2.579631 z m -1.4866,4.867352 c 0,-0.622991 -0.34228,-0.932622 -1.02029,-0.932622 h -1.87923 v 1.850321 h 1.87923 c 0.31709,0 0.5689,-0.07648 0.7433,-0.218233 0.18186,-0.138961 0.27699,-0.372116 0.27699,-0.699466 z m 12.51391,-4.867352 -2.72512,7.183983 h -1.39893 l -2.75403,-7.183983 h 1.54442 l 0.55398,1.603177 h 2.63745 l 0.55398,-1.603177 z m -2.63745,2.958276 h -1.64701 l 0.46631,1.311265 c 0.0765,0.211705 0.14549,0.41595 0.20424,0.612733 0.0653,0.199581 0.12031,0.371183 0.16041,0.509211 0.0252,-0.138028 0.0728,-0.30963 0.13057,-0.509211 0.0662,-0.196783 0.13896,-0.401028 0.21917,-0.612733 z m 9.93055,-2.958276 v 7.183983 h -1.42784 v -3.045009 c 0,-0.09886 0,-0.226627 0,-0.379577 0.007,-0.145489 0.0149,-0.298438 0.0149,-0.451388 0,-0.156681 0,-0.30217 0,-0.4374 0.007,-0.126836 0.014,-0.225694 0.014,-0.290978 -0.0513,0.09419 -0.12777,0.218234 -0.23316,0.363723 -0.0979,0.15295 -0.19305,0.299371 -0.27698,0.437399 l -2.53487,3.80323 h -1.38494 V 46.87357 h 1.42784 v 3.16252 c 0,0.09419 -0.007,0.218233 -0.014,0.363722 0,0.15295 0,0.30963 0,0.466311 0,0.15295 -0.007,0.299371 -0.0149,0.437399 0,0.13523 0,0.236886 0,0.3059 0.0476,-0.09793 0.12031,-0.225694 0.21917,-0.378644 0.0942,-0.156681 0.19305,-0.30217 0.29097,-0.4374 l 2.63746,-3.919808 z m 7.79299,3.584997 c 0,0.659364 -0.0951,1.217071 -0.27699,1.675921 -0.17534,0.455119 -0.42621,0.823505 -0.7433,1.107022 -0.32082,0.28818 -0.7032,0.498952 -1.13687,0.626721 -0.4374,0.124039 -0.91024,0.189322 -1.41292,0.189322 h -2.25881 V 46.87357 h 2.14223 c 0.46258,0 0.9177,0.06528 1.3551,0.204244 0.43367,0.134298 0.83004,0.349733 1.17977,0.640711 0.346,0.28818 0.62672,0.663094 0.83096,1.122877 0.21078,0.455119 0.32083,0.994174 0.32083,1.617165 z m -1.4866,0 c 0,-0.320822 -0.0476,-0.61926 -0.1315,-0.888788 -0.0867,-0.273258 -0.2257,-0.506414 -0.40756,-0.699466 -0.17533,-0.185592 -0.40476,-0.332013 -0.68547,-0.4374 -0.27326,-0.109116 -0.60061,-0.16041 -0.97553,-0.16041 h -0.69946 v 4.386118 h 0.75729 c 0.75449,0 1.301,-0.185591 1.63208,-0.553044 0.33855,-0.360925 0.51015,-0.911171 0.51015,-1.64701 z M 121.88253,35.383674 v 7.183983 h -1.42784 v -3.045942 c 0,-0.09793 0,-0.225694 0,-0.378644 0.007,-0.145489 0.014,-0.298439 0.014,-0.451389 0,-0.15668 0,-0.303102 0,-0.437399 0.007,-0.127769 0.0149,-0.225695 0.0149,-0.291911 -0.0513,0.09513 -0.12777,0.219166 -0.23316,0.364655 -0.0988,0.15295 -0.19305,0.298439 -0.27698,0.4374 l -2.5358,3.80323 h -1.38401 v -7.183983 h 1.42784 v 3.161587 c 0,0.09513 -0.007,0.219166 -0.0149,0.364655 0,0.15295 0,0.30963 0,0.46631 0,0.15295 -0.007,0.298439 -0.014,0.4374 0,0.134297 0,0.236886 0,0.3059 0.0476,-0.09886 0.12031,-0.225695 0.21823,-0.378645 0.0951,-0.15668 0.19306,-0.303102 0.29191,-0.437399 l 2.63746,-3.919808 z m 7.10751,0 v 1.398932 h -3.70157 v 1.733743 h 2.05456 v 1.398933 h -2.05456 v 1.238521 h 3.55608 v 1.413854 h -4.99885 v -7.183983 z m 6.75031,5.770129 v 1.413854 h -5.55189 v -1.413854 h 2.05456 v -5.770129 h 1.44277 v 5.770129 z m 9.11545,1.413854 h -1.47168 l -0.62672,-3.49733 c -0.0401,-0.175333 -0.0802,-0.382375 -0.11658,-0.6118 -0.0298,-0.233155 -0.0513,-0.426208 -0.0588,-0.568899 -0.0289,0.142691 -0.069,0.328283 -0.11658,0.553977 -0.0513,0.229425 -0.0942,0.44113 -0.13057,0.626722 l -0.85988,3.49733 h -1.23852 l -0.84589,-3.49733 c -0.0401,-0.185592 -0.0839,-0.397297 -0.13056,-0.626722 -0.0513,-0.225694 -0.0914,-0.411286 -0.11658,-0.553977 -0.0224,0.142691 -0.0513,0.328283 -0.0877,0.553977 -0.0289,0.229425 -0.0615,0.44113 -0.0877,0.626722 l -0.62672,3.49733 h -1.50059 l 1.50059,-7.183983 h 1.34111 l 0.90371,3.686653 c 0.0541,0.211705 0.10538,0.437399 0.14548,0.670554 0.0476,0.240617 0.0765,0.429939 0.0877,0.567967 0.0177,-0.138028 0.0504,-0.324552 0.10166,-0.553977 0.0476,-0.233156 0.0942,-0.46258 0.14549,-0.684544 l 0.88878,-3.686653 h 1.39894 z m 7.32201,-3.584997 c 0,0.579158 -0.0802,1.100494 -0.23316,1.559343 -0.14549,0.45512 -0.35999,0.838427 -0.64071,1.150855 -0.27326,0.317091 -0.60527,0.561438 -0.99138,0.72931 -0.38983,0.17067 -0.81977,0.262067 -1.28235,0.262067 -0.46631,0 -0.89998,-0.0914 -1.29634,-0.262067 -0.38984,-0.175333 -0.72558,-0.426208 -1.0063,-0.743299 -0.27233,-0.313361 -0.48776,-0.695736 -0.64071,-1.151788 -0.15668,-0.458849 -0.23316,-0.979252 -0.23316,-1.55841 0,-0.582889 0.0765,-1.104224 0.23316,-1.559343 0.15295,-0.45885 0.36838,-0.848686 0.64071,-1.165777 0.28072,-0.313361 0.61273,-0.557708 0.99137,-0.72931 0.38611,-0.163209 0.81978,-0.247145 1.29728,-0.247145 0.46258,0 0.89252,0.08394 1.28236,0.247145 0.3861,0.171602 0.72091,0.42341 1.00536,0.743299 0.28072,0.317092 0.49522,0.706927 0.64071,1.165777 0.15295,0.456052 0.23316,0.976455 0.23316,1.559343 z m -1.47168,-0.01399 c 0,-0.739569 -0.15668,-1.304738 -0.46631,-1.690843 -0.30217,-0.389836 -0.70693,-0.582888 -1.20961,-0.582888 -0.50641,0 -0.92143,0.196783 -1.23852,0.59781 -0.31336,0.396364 -0.46631,0.961533 -0.46631,1.68991 0,0.72558 0.14922,1.286085 0.45139,1.675921 0.31056,0.397297 0.71812,0.59781 1.22453,0.59781 0.50268,0 0.91117,-0.200513 1.2236,-0.59781 0.31709,-0.401027 0.48123,-0.965263 0.48123,-1.68991 z m 8.87856,-3.584997 -1.38495,2.782942 c 0.45606,0.182794 0.80206,0.444861 1.03521,0.787133 0.22943,0.346002 0.34974,0.794593 0.34974,1.340177 0,0.375846 -0.07,0.706927 -0.20425,0.991377 -0.12777,0.280719 -0.30963,0.517604 -0.53905,0.714388 -0.2257,0.193052 -0.4887,0.334811 -0.78713,0.422477 -0.29192,0.09419 -0.60807,0.145489 -0.94755,0.145489 h -3.35091 v -7.183983 h 1.44184 v 2.578698 h 1.44276 l 1.28236,-2.578698 z m -1.4866,4.867351 c 0,-0.622991 -0.34227,-0.932621 -1.02029,-0.932621 h -1.88016 v 1.850321 h 1.88016 c 0.31709,0 0.5689,-0.07648 0.7433,-0.218234 0.18186,-0.13896 0.27699,-0.372116 0.27699,-0.699466 z m 9.38777,-4.867351 -2.63746,4.692019 2.0984,2.491964 h -1.73374 l -2.01073,-2.448131 c -0.0513,-0.06901 -0.10632,-0.138028 -0.16042,-0.204244 -0.0513,-0.05782 -0.10631,-0.124039 -0.16041,-0.189323 -0.0513,-0.06901 -0.0988,-0.134297 -0.14548,-0.189322 -0.0401,-0.05875 -0.07,-0.109116 -0.0877,-0.145489 0,0.04663 0,0.120309 0,0.218234 0,0.105386 0,0.211705 0,0.320822 0.007,0.112847 0.014,0.221963 0.014,0.320821 0,0.112848 0,0.207042 0,0.276056 v 2.040576 h -1.44183 v -7.183983 h 1.44183 v 2.112388 l 1.15179,1.356031 1.9529,-3.468419 z m -46.2888,-11.489896 v 1.398932 h -3.70065 v 1.733743 h 2.05457 v 1.398932 h -2.05457 v 1.238522 h 3.55516 v 1.413854 h -4.99792 v -7.183983 z m 7.47962,0 v 7.183983 h -1.42784 v -3.045942 c 0,-0.09793 0,-0.225694 0,-0.378644 0.007,-0.145489 0.014,-0.299372 0.014,-0.452322 0,-0.15668 0,-0.302169 0,-0.436466 0.007,-0.12777 0.0149,-0.226628 0.0149,-0.291911 -0.0513,0.09513 -0.12777,0.219166 -0.23316,0.364655 -0.0979,0.15295 -0.19305,0.298439 -0.27699,0.437399 l -2.53579,3.803231 h -1.38401 v -7.183983 h 1.42784 v 3.161586 c 0,0.09513 -0.007,0.219166 -0.014,0.364655 0,0.15295 0,0.309631 0,0.466311 0,0.15295 -0.007,0.298439 -0.0149,0.4374 0,0.134297 0,0.235953 0,0.305899 0.0476,-0.09886 0.12031,-0.226627 0.21823,-0.379577 0.0951,-0.15668 0.19305,-0.302169 0.29191,-0.436466 l 2.63745,-3.919808 z m 7.61765,2.782942 v 0.947543 h -2.57963 v -1.356031 h 1.13687 c -0.0214,-0.156681 -0.0616,-0.302169 -0.11658,-0.436467 -0.0578,-0.127769 -0.14176,-0.240616 -0.24808,-0.335744 -0.10912,-0.09793 -0.25087,-0.17813 -0.42248,-0.233155 -0.16694,-0.05036 -0.37118,-0.07274 -0.6118,-0.07274 -0.27325,0 -0.5176,0.05876 -0.72837,0.175333 -0.21544,0.112848 -0.3973,0.276989 -0.53906,0.4803 -0.14642,0.200514 -0.25927,0.444861 -0.33574,0.72931 -0.069,0.279787 -0.10166,0.582889 -0.10166,0.902778 0,0.339474 0.0326,0.645374 0.10166,0.918632 0.0765,0.279786 0.18932,0.516672 0.33574,0.713455 0.14176,0.200514 0.31989,0.364655 0.52413,0.481233 0.21171,0.112847 0.45606,0.1744 0.72838,0.1744 0.19399,0 0.3572,-0.02518 0.49616,-0.07274 0.14176,-0.05036 0.26952,-0.120308 0.37864,-0.203312 0.10539,-0.0802 0.19678,-0.179063 0.27699,-0.29191 0.0765,-0.109117 0.14922,-0.229425 0.21823,-0.364655 l 1.37002,0.553977 c -0.23315,0.550247 -0.56516,0.991377 -0.99137,1.311266 -0.41875,0.328283 -0.99791,0.496154 -1.73375,0.496154 -0.46631,0 -0.89998,-0.09513 -1.29727,-0.276988 -0.38891,-0.185592 -0.72465,-0.444861 -1.00537,-0.772211 -0.27326,-0.320822 -0.49149,-0.710657 -0.65563,-1.165777 -0.15668,-0.44859 -0.23316,-0.951273 -0.23316,-1.50152 0,-0.564236 0.0727,-1.07438 0.21917,-1.529499 0.15295,-0.459783 0.36745,-0.849618 0.64071,-1.165777 0.28072,-0.320822 0.6118,-0.57263 0.99138,-0.743299 0.3861,-0.171603 0.81977,-0.262067 1.29634,-0.262067 0.41595,0 0.80206,0.06528 1.15179,0.189322 0.346,0.134298 0.64817,0.32362 0.90278,0.567967 0.25926,0.251807 0.46631,0.557707 0.61273,0.917699 0.14176,0.357194 0.21823,0.765682 0.21823,1.224532 z m 3.17278,-2.782942 v 7.183983 h -1.44277 v -7.183983 z m 7.83682,0 v 7.183983 h -1.42878 v -3.045942 c 0,-0.09793 0,-0.225694 0,-0.378644 0.007,-0.145489 0.0149,-0.299372 0.0149,-0.452322 0,-0.15668 0,-0.302169 0,-0.436466 0.007,-0.12777 0.0149,-0.226628 0.0149,-0.291911 -0.0513,0.09513 -0.12777,0.219166 -0.23316,0.364655 -0.0989,0.15295 -0.19305,0.298439 -0.27699,0.437399 l -2.5358,3.803231 h -1.38401 v -7.183983 h 1.42785 v 3.161586 c 0,0.09513 -0.007,0.219166 -0.0149,0.364655 0,0.15295 0,0.309631 0,0.466311 0,0.15295 -0.007,0.298439 -0.014,0.4374 0,0.134297 0,0.235953 0,0.305899 0.0466,-0.09886 0.1203,-0.226627 0.21823,-0.379577 0.0951,-0.15668 0.19305,-0.302169 0.29191,-0.436466 l 2.63745,-3.919808 z m 7.10751,0 v 1.398932 h -3.70158 v 1.733743 h 2.05457 v 1.398932 h -2.05457 v 1.238522 h 3.55515 v 1.413854 h -4.99791 v -7.183983 z m 6.79414,0 v 1.398932 h -3.70157 v 1.733743 h 2.05456 v 1.398932 h -2.05456 v 1.238522 h 3.55608 v 1.413854 h -4.99885 v -7.183983 z m 7.4759,0 -1.38495,2.782942 c 0.45512,0.181861 0.80206,0.443928 1.03521,0.787133 0.22943,0.346002 0.34974,0.79366 0.34974,1.340177 0,0.374913 -0.07,0.706927 -0.20425,0.991376 -0.12777,0.279787 -0.30963,0.516673 -0.53905,0.713456 -0.22663,0.193052 -0.4887,0.335743 -0.78714,0.422477 -0.29191,0.09513 -0.60806,0.146422 -0.94754,0.146422 h -3.35091 v -7.183983 h 1.44184 v 2.578698 h 1.44276 l 1.28236,-2.578698 z m -1.4866,4.866418 c 0,-0.622991 -0.34227,-0.932621 -1.02029,-0.932621 h -1.88016 v 1.851254 h 1.88016 c 0.31709,0 0.56797,-0.07647 0.7433,-0.219166 0.18186,-0.138028 0.27699,-0.371184 0.27699,-0.699467 z m 4.67057,-4.866418 v 7.183983 h -1.44277 v -7.183983 z m 7.83215,0 v 7.183983 h -1.42784 v -3.045942 c 0,-0.09793 0,-0.225694 0,-0.378644 0.007,-0.145489 0.014,-0.299372 0.014,-0.452322 0,-0.15668 0,-0.302169 0,-0.436466 0.007,-0.12777 0.0149,-0.226628 0.0149,-0.291911 -0.0513,0.09513 -0.12777,0.219166 -0.23316,0.364655 -0.0979,0.15295 -0.19305,0.298439 -0.27698,0.437399 l -2.5358,3.803231 h -1.38401 v -7.183983 h 1.42784 v 3.161586 c 0,0.09513 -0.007,0.219166 -0.014,0.364655 0,0.15295 0,0.309631 0,0.466311 0,0.15295 -0.007,0.298439 -0.0149,0.4374 0,0.134297 0,0.235953 0,0.305899 0.0476,-0.09886 0.12031,-0.226627 0.21823,-0.379577 0.0951,-0.15668 0.19306,-0.302169 0.29191,-0.436466 l 2.63746,-3.919808 z m 7.62138,2.782942 v 0.947543 h -2.57963 v -1.356031 h 1.13687 c -0.0214,-0.156681 -0.0615,-0.302169 -0.11658,-0.436467 -0.0578,-0.127769 -0.14176,-0.240616 -0.24808,-0.335744 -0.10911,-0.09793 -0.25087,-0.17813 -0.42247,-0.233155 -0.16694,-0.05036 -0.37119,-0.07274 -0.6118,-0.07274 -0.27326,0 -0.51761,0.05876 -0.72838,0.175333 -0.21544,0.112848 -0.3973,0.276989 -0.53906,0.4803 -0.14642,0.200514 -0.25926,0.444861 -0.33574,0.72931 -0.069,0.279787 -0.10166,0.582889 -0.10166,0.902778 0,0.339474 0.0326,0.645374 0.10166,0.918632 0.0765,0.279786 0.18932,0.516672 0.33574,0.713455 0.14176,0.200514 0.31989,0.364655 0.52414,0.481233 0.2117,0.112847 0.45512,0.1744 0.72837,0.1744 0.19306,0 0.3572,-0.02518 0.49616,-0.07274 0.14176,-0.05036 0.26953,-0.120308 0.37864,-0.203312 0.10539,-0.0802 0.19679,-0.179063 0.27699,-0.29191 0.0765,-0.109117 0.14922,-0.229425 0.21824,-0.364655 l 1.37002,0.553977 c -0.23316,0.550247 -0.56517,0.991377 -0.99138,1.311266 -0.41875,0.328283 -0.99791,0.496154 -1.73374,0.496154 -0.46631,0 -0.89998,-0.09513 -1.29728,-0.276988 -0.38984,-0.185592 -0.72465,-0.444861 -1.00537,-0.772211 -0.27325,-0.320822 -0.49149,-0.710657 -0.65563,-1.165777 -0.15668,-0.44859 -0.23315,-0.951273 -0.23315,-1.50152 0,-0.564236 0.0727,-1.07438 0.21916,-1.529499 0.15295,-0.459783 0.36745,-0.849618 0.64071,-1.165777 0.28072,-0.320822 0.6118,-0.57263 0.99138,-0.743299 0.3861,-0.171603 0.81884,-0.262067 1.29634,-0.262067 0.41502,0 0.80206,0.06528 1.15179,0.189322 0.346,0.134298 0.64817,0.32362 0.90278,0.567967 0.25927,0.251807 0.46631,0.557707 0.61273,0.917699 0.14176,0.357194 0.21823,0.765682 0.21823,1.224532 z"
         style="fill:#000000;fill-opacity:1;fill-rule:nonzero;stroke:none;stroke-width:0.932621"
         id="path106" /></g></g></svg>
