<?xml version="1.0" encoding="UTF-8" standalone="no"?>
<svg
   version="1.1"
   id="svg2"
   xml:space="preserve"
   width="266"
   height="56"
   viewBox="0 0 266 56.000001"
   sodipodi:docname="logo_lotus.svg"
   inkscape:version="1.3 (0e150ed6c4, 2023-07-21)"
   xmlns:inkscape="http://www.inkscape.org/namespaces/inkscape"
   xmlns:sodipodi="http://sodipodi.sourceforge.net/DTD/sodipodi-0.dtd"
   xmlns="http://www.w3.org/2000/svg"
   xmlns:svg="http://www.w3.org/2000/svg"
   xmlns:rdf="http://www.w3.org/1999/02/22-rdf-syntax-ns#"
   xmlns:cc="http://creativecommons.org/ns#"
   xmlns:dc="http://purl.org/dc/elements/1.1/"><sodipodi:namedview
     id="namedview1"
     pagecolor="#ffffff"
     bordercolor="#000000"
     borderopacity="0.25"
     inkscape:showpageshadow="2"
     inkscape:pageopacity="0.0"
     inkscape:pagecheckerboard="0"
     inkscape:deskcolor="#d1d1d1"
     inkscape:zoom="6.9393045"
     inkscape:cx="138.55856"
     inkscape:cy="66.793438"
     inkscape:window-width="3840"
     inkscape:window-height="2054"
     inkscape:window-x="2869"
     inkscape:window-y="-11"
     inkscape:window-maximized="1"
     inkscape:current-layer="text2" /><metadata
     id="metadata8"><rdf:RDF><cc:Work
         rdf:about=""><dc:format>image/svg+xml</dc:format><dc:type
           rdf:resource="http://purl.org/dc/dcmitype/StillImage" /></cc:Work></rdf:RDF></metadata><defs
     id="defs6" /><g
     id="g10"
     transform="matrix(1.3333333,0,0,-1.3333333,0,87.677663)"><g
       id="g12"><rect
         style="display:none;fill:#ffd355;stroke:none;stroke-width:1.5;stroke-opacity:1"
         id="rect1"
         width="238.31639"
         height="90.354881"
         x="-20.96752"
         y="-93.750969"
         transform="scale(1,-1)" /><path
         id="path1"
         style="stroke-width:1.07329"
         d="m 44.506098,0.62286942 c 0,0 -8.65511,-6.70869302 -19.33173,-6.70869302 -10.67661,0 -19.3317184,6.70869302 -19.3317184,6.70869302 0,0 8.6551084,6.70869398 19.3317184,6.70869398 10.67662,0 19.33173,-6.70869398 19.33173,-6.70869398 z"
         sodipodi:nodetypes="cscsc" /><path
         style="fill:#e8d6e5;fill-opacity:1;stroke:none;stroke-width:2.8501;stroke-dasharray:none;stroke-opacity:1;paint-order:stroke fill markers"
         id="path2"
         transform="scale(1,-1)"
         sodipodi:type="arc"
         sodipodi:cx="27.09584"
         sodipodi:cy="-30.697454"
         sodipodi:rx="23.199495"
         sodipodi:ry="6.9392061"
         sodipodi:start="5.5740676"
         sodipodi:end="3.8297309"
         sodipodi:open="true"
         sodipodi:arc-type="arc"
         d="m 44.702789,-35.216019 a 23.199495,6.9392061 0 0 1 -1.507593,9.514935 23.199495,6.9392061 0 0 1 -31.84475,0.09992 23.199495,6.9392061 0 0 1 -2.174586,-9.503381" /><path
         style="fill:#d0accc;fill-opacity:1;stroke:none;stroke-width:2.43267;stroke-dasharray:none;stroke-opacity:1;paint-order:stroke fill markers"
         id="path2-7"
         transform="scale(1,-1)"
         sodipodi:type="arc"
         sodipodi:cx="27.448151"
         sodipodi:cy="-31.274542"
         sodipodi:rx="19.801687"
         sodipodi:ry="5.9228868"
         sodipodi:start="5.5740676"
         sodipodi:end="3.8297309"
         sodipodi:open="true"
         sodipodi:arc-type="arc"
         d="m 42.476378,-35.131315 a 19.801687,5.9228868 0 0 1 -1.286791,8.121373 19.801687,5.9228868 0 0 1 -27.180754,0.08528 19.801687,5.9228868 0 0 1 -1.856095,-8.111512" /><path
         style="fill:#b983b2;fill-opacity:1;stroke:none;stroke-width:1.97995;stroke-dasharray:none;stroke-opacity:1;paint-order:stroke fill markers"
         id="path2-7-0"
         transform="scale(1,-1)"
         sodipodi:type="arc"
         sodipodi:cx="27.09584"
         sodipodi:cy="-31.822878"
         sodipodi:rx="16.116621"
         sodipodi:ry="4.8206463"
         sodipodi:start="5.5740676"
         sodipodi:end="3.8297309"
         sodipodi:open="true"
         sodipodi:arc-type="arc"
         d="m 39.327335,-34.961911 a 16.116621,4.8206463 0 0 1 -1.04732,6.609997 16.116621,4.8206463 0 0 1 -22.122454,0.06941 16.116621,4.8206463 0 0 1 -1.510678,-6.601971" /><path
         style="fill:#a15999;fill-opacity:1;stroke:none;stroke-width:1.46267;stroke-dasharray:none;stroke-opacity:1;paint-order:stroke fill markers"
         id="path2-7-0-1"
         sodipodi:type="arc"
         sodipodi:cx="27.09584"
         sodipodi:cy="-32.675076"
         sodipodi:rx="11.905926"
         sodipodi:ry="3.5611839"
         sodipodi:start="5.5740676"
         sodipodi:end="3.8297309"
         sodipodi:open="true"
         sodipodi:arc-type="arc"
         d="m 36.131684,-34.993992 a 11.905926,3.5611839 0 0 1 -0.773693,4.883042 11.905926,3.5611839 0 0 1 -16.34265,0.05128 11.905926,3.5611839 0 0 1 -1.115992,-4.877112"
         transform="scale(1,-1)" /><path
         style="fill:#8a307f;fill-opacity:1;stroke:none;stroke-width:1.06041;stroke-dasharray:none;stroke-opacity:1;paint-order:stroke fill markers"
         id="path2-7-0-1-4"
         sodipodi:type="arc"
         sodipodi:cx="27.09584"
         sodipodi:cy="-33.083923"
         sodipodi:rx="8.6316023"
         sodipodi:ry="2.5818007"
         sodipodi:start="5.5740676"
         sodipodi:end="3.8297309"
         sodipodi:open="true"
         sodipodi:arc-type="arc"
         d="m 33.64668,-34.7651 a 8.6316023,2.5818007 0 0 1 -0.560915,3.540126 8.6316023,2.5818007 0 0 1 -11.848155,0.03718 8.6316023,2.5818007 0 0 1 -0.809076,-3.535828"
         transform="scale(1,-1)" /><g
         id="g1"
         inkscape:label="lotus flower"
         transform="matrix(0.73252086,0,0,0.73252086,-10.7845,16.319702)"><path
           id="path1-3-2"
           style="fill:#8a307f;stroke:#ffffff;stroke-width:3.75;stroke-dasharray:none;stroke-opacity:1;paint-order:stroke fill markers"
           d="m 15.651985,40.438107 c 0,0 5.827013,-9.271643 15.855161,-12.935835 10.028151,-3.664193 20.459985,-0.333381 20.459985,-0.333381 0,0 -5.827014,9.271644 -15.855163,12.935836 -10.028152,3.664194 -20.459983,0.33338 -20.459983,0.33338 z"
           sodipodi:nodetypes="cscsc" /><path
           id="path1-3"
           style="fill:#8a307f;stroke:#ffffff;stroke-width:3.75;stroke-dasharray:none;stroke-opacity:1;paint-order:stroke fill markers"
           d="m 88.200515,40.438107 c 0,0 -5.827013,-9.271643 -15.855161,-12.935835 -10.028151,-3.664193 -20.459985,-0.333381 -20.459985,-0.333381 0,0 5.827014,9.271644 15.855163,12.935836 10.028152,3.664194 20.459983,0.33338 20.459983,0.33338 z"
           sodipodi:nodetypes="cscsc"
           inkscape:label="path1-3" /><path
           id="path1-3-9"
           style="fill:#8a307f;stroke:#ffffff;stroke-width:3.75;stroke-dasharray:none;stroke-opacity:1;paint-order:stroke fill markers"
           d="m 78.604628,55.264643 c 0,0 -1.070861,-10.898197 -8.405497,-18.656623 -7.334638,-7.758428 -18.155576,-9.439129 -18.155576,-9.439129 0,0 1.070861,10.898198 8.405498,18.656625 7.334638,7.758429 18.155575,9.439127 18.155575,9.439127 z"
           sodipodi:nodetypes="cscsc"
           inkscape:label="path1-3" /><path
           id="path1-3-9-0"
           style="fill:#8a307f;stroke:#ffffff;stroke-width:3.75;stroke-dasharray:none;stroke-opacity:1;paint-order:stroke fill markers"
           d="m 25.324297,55.264643 c 0,0 1.070861,-10.898197 8.405497,-18.656623 7.334638,-7.758428 18.155575,-9.439129 18.155575,-9.439129 0,0 -1.070861,10.898198 -8.405498,18.656625 -7.334638,7.758429 -18.155574,9.439127 -18.155574,9.439127 z"
           sodipodi:nodetypes="cscsc"
           inkscape:label="path1-3" /><path
           id="path1-3-3"
           style="fill:#8a307f;stroke:#ffffff;stroke-width:3.75;stroke-dasharray:none;stroke-opacity:1;paint-order:stroke fill markers"
           d="m 52.193256,28.241296 c 0,0 -6.708693,8.655107 -6.708693,19.331721 0,10.676615 6.708693,19.331722 6.708693,19.331722 0,0 6.708694,-8.655107 6.708694,-19.331722 0,-10.676615 -6.708694,-19.331721 -6.708694,-19.331721 z"
           sodipodi:nodetypes="cscsc" /></g><g
         id="text2"
         style="font-weight:bold;font-size:36px;line-height:1.1;font-family:Sans;-inkscape-font-specification:'Sans Bold';fill:#e8d6e5;stroke-width:5.71747;paint-order:stroke fill markers"
         transform="scale(1,-1)"
         aria-label="LOTUS"><g
           id="g14"
           transform="translate(6)"><path
             style="fill:#8a307f"
             d="M 77.722435,-33.118256 H 58.843529 v -26.173828 h 6.75 v 21.111328 h 12.128906 z"
             id="path10" /><path
             style="fill:#a15999"
             d="m 107.23611,-46.196381 q 0,6.257813 -3.58594,9.949219 -3.58594,3.673828 -9.914063,3.673828 -6.310547,0 -9.896485,-3.673828 -3.585937,-3.691406 -3.585937,-9.949219 0,-6.310546 3.585937,-9.966796 3.585938,-3.673829 9.896485,-3.673829 6.292973,0 9.896483,3.673829 3.60352,3.65625 3.60352,9.966796 z m -8.947269,6.626954 q 0.984375,-1.195313 1.458985,-2.8125 0.474604,-1.634766 0.474604,-3.832032 0,-2.355468 -0.544917,-4.007812 -0.544922,-1.652344 -1.423828,-2.671875 -0.896484,-1.054688 -2.074219,-1.529297 -1.160156,-0.474609 -2.425781,-0.474609 -1.283203,0 -2.425781,0.457031 -1.125,0.457031 -2.074219,1.511719 -0.878906,0.984375 -1.441406,2.724609 -0.544922,1.722656 -0.544922,4.007812 0,2.337891 0.527344,3.990235 0.544921,1.634765 1.423828,2.671875 0.878906,1.037109 2.05664,1.529297 1.177735,0.492187 2.478516,0.492187 1.300781,0 2.478516,-0.492187 1.177734,-0.509766 2.05664,-1.564453 z"
             id="path11" /><path
             style="fill:#b983b2"
             d="m 132.86501,-54.229584 h -8.17383 v 21.111328 h -6.75 v -21.111328 h -8.17382 v -5.0625 h 23.09765 z"
             id="path12" /><path
             style="fill:#d0accc"
             d="m 159.84743,-42.592865 q 0,4.851563 -2.95312,7.435547 -2.95313,2.583984 -8.70117,2.583984 -5.74805,0 -8.70117,-2.583984 -2.93555,-2.583984 -2.93555,-7.417969 v -16.716797 h 6.78516 v 16.330078 q 0,2.72461 1.14257,4.060547 1.14258,1.335938 3.70899,1.335938 2.53125,0 3.6914,-1.283203 1.17774,-1.283203 1.17774,-4.113282 v -16.330078 h 6.78515 z"
             id="path13" /><path
             d="m 187.11111,-41.344818 q 0,3.867187 -3.28711,6.292969 -3.26953,2.408203 -8.89453,2.408203 -3.25196,0 -5.67774,-0.5625 -2.4082,-0.580078 -4.51758,-1.458985 v -6.27539 h 0.73828 q 2.0918,1.669922 4.67579,2.566406 2.60156,0.896484 4.99218,0.896484 0.61524,0 1.61719,-0.105468 1.00195,-0.105469 1.63477,-0.351563 0.77343,-0.316406 1.26562,-0.791015 0.50977,-0.47461 0.50977,-1.40625 0,-0.861329 -0.73828,-1.476563 -0.72071,-0.632812 -2.12696,-0.966797 -1.47656,-0.351562 -3.1289,-0.65039 -1.63477,-0.316407 -3.07618,-0.791016 -3.30468,-1.072266 -4.76367,-2.900391 -1.4414,-1.845703 -1.4414,-4.570312 0,-3.65625 3.26953,-5.958985 3.28711,-2.320312 8.4375,-2.320312 2.58398,0 5.09765,0.509766 2.53125,0.492187 4.37696,1.248046 v 6.029297 h -0.72071 q -1.58203,-1.265625 -3.88476,-2.109375 -2.28516,-0.861328 -4.67578,-0.861328 -0.84375,0 -1.6875,0.123047 -0.82617,0.105469 -1.59961,0.421875 -0.68555,0.263672 -1.17774,0.808594 -0.49218,0.527344 -0.49218,1.21289 0,1.03711 0.79101,1.59961 0.79102,0.544922 2.98828,1.001953 1.44141,0.298828 2.75977,0.580078 1.33594,0.28125 2.86523,0.773438 3.00586,0.984375 4.42969,2.689453 1.44141,1.6875 1.44141,4.394531 z"
             id="path14"
             style="fill:#e2cddd;fill-opacity:1" /></g></g></g></g></svg>
